<svg width="59" height="49" viewBox="0 0 59 49" fill="none" xmlns="http://www.w3.org/2000/svg">
<path fill-rule="evenodd" clip-rule="evenodd" d="M3 31.896C3 31.896 13 17.896 29 20.896C46 18.396 55 31.896 55 31.896C55 31.896 43 47.896 29 47.896C15 47.896 3 31.896 3 31.896ZM37 31.896C37 36.3142 33.4183 39.896 29 39.896C24.5817 39.896 21 36.3142 21 31.896C21 27.4777 24.5817 23.896 29 23.896C33.4183 23.896 37 27.4777 37 31.896Z" fill="black"/>
<path fill-rule="evenodd" clip-rule="evenodd" d="M10.1059 23.131C14.9108 19.0847 21.6405 19.396 29 19.396C36.3595 19.396 43.0892 19.0847 47.8941 23.131C50.3136 25.1685 52.2847 27.2035 53.6511 28.7287C54.3349 29.492 54.8687 30.1293 55.2331 30.5779C55.4154 30.8022 55.5554 30.9794 55.6506 31.1016C55.6983 31.1628 55.7347 31.2102 55.7597 31.2429L55.7886 31.2808L55.7965 31.2913L55.7988 31.2943L55.7995 31.2953C55.7995 31.2953 55.8 31.2959 55 31.8959C55.8 32.4959 55.7995 32.4966 55.7995 32.4966L55.7988 32.4976L55.7965 32.5006L55.7886 32.5111L55.7597 32.549C55.7347 32.5817 55.6983 32.6291 55.6506 32.6903C55.5554 32.8125 55.4154 32.9897 55.2331 33.214C54.8687 33.6626 54.3349 34.2999 53.6511 35.0632C52.2847 36.5884 50.3136 38.6234 47.8941 40.6609C43.0892 44.7072 36.3595 48.896 29 48.896C21.6405 48.896 14.9108 44.7072 10.1059 40.6609C7.68635 38.6234 5.71527 36.5884 4.34891 35.0632C3.66514 34.2999 3.13128 33.6626 2.76685 33.214C2.58461 32.9897 2.44463 32.8125 2.34936 32.6903C2.30173 32.6291 2.26526 32.5817 2.24027 32.549L2.21142 32.5111L2.20352 32.5006L2.20121 32.4976L2.20047 32.4966C2.20047 32.4966 2.2 32.4959 3 31.8959C2.2 31.2959 2.20047 31.2953 2.20047 31.2953L2.20121 31.2943L2.20352 31.2913L2.21142 31.2808L2.24027 31.2429C2.26526 31.2102 2.30173 31.1628 2.34936 31.1016C2.44463 30.9794 2.58461 30.8022 2.76685 30.5779C3.13128 30.1293 3.66514 29.492 4.34891 28.7287C5.71527 27.2035 7.68635 25.1685 10.1059 23.131ZM3 31.8959L2.20047 31.2953L1.75 31.8959L2.20047 32.4966L3 31.8959ZM4.27294 31.8959C4.28797 31.9145 4.30336 31.9335 4.31908 31.9529C4.6656 32.3793 5.17861 32.992 5.83859 33.7287C7.15973 35.2035 9.06365 37.1685 11.3941 39.131C16.0892 43.0848 22.3595 46.896 29 46.896C35.6405 46.896 41.9108 43.0848 46.6059 39.131C48.9364 37.1685 50.8403 35.2035 52.1614 33.7287C52.8214 32.992 53.3344 32.3793 53.6809 31.9529C53.6966 31.9335 53.712 31.9145 53.7271 31.8959C53.712 31.8774 53.6966 31.8584 53.6809 31.839C53.3344 31.4126 52.8214 30.7999 52.1614 30.0632C50.8403 28.5884 48.9364 26.6234 46.6059 24.6609C41.9108 20.7071 35.6405 21.396 29 21.396C22.3595 21.396 16.0892 20.7071 11.3941 24.6609C9.06365 26.6234 7.15973 28.5884 5.83859 30.0632C5.17861 30.7999 4.6656 31.4126 4.31908 31.839C4.30336 31.8584 4.28797 31.8774 4.27294 31.8959ZM55 31.8959L55.7995 32.4966L56.25 31.8959L55.7995 31.2953L55 31.8959ZM20 31.8959C20 26.9254 24.0294 22.8959 29 22.8959C33.9706 22.8959 38 26.9254 38 31.8959C38 36.8665 33.9706 40.896 29 40.896C24.0294 40.896 20 36.8665 20 31.8959ZM29 30.0632C25.134 30.0632 22 28.03 22 31.8959C22 35.7619 25.134 38.896 29 38.896C32.866 38.896 36 35.7619 36 31.8959C36 28.03 32.866 30.0632 29 30.0632Z" fill="black"/>
<path d="M0 11.8377L2.28686 9.89595L9.31931 19.5404L8.30397 20.5224L0 11.8377Z" fill="black"/>
<path d="M11.1869 3.02875L13.9474 1.85421L17.7966 13.1527L16.5354 13.7886L11.1869 3.02875Z" fill="black"/>
<path d="M27.4937 0L30.4937 0L29.6121 11.9035L28.5 11.8959L27.4937 0Z" fill="black"/>
<path d="M43.4824 1.73032L46.2142 2.97031L40.4913 13.4451L39.1701 12.9456L43.4824 1.73032Z" fill="black"/>
<path d="M56.5111 9.89597L58.625 12.0247L49.5576 19.7869L48.4995 18.8511L56.5111 9.89597Z" fill="black"/>
</svg>
