<svg width="60" height="60" viewBox="0 0 60 60" fill="none" xmlns="http://www.w3.org/2000/svg">
<path d="M29.4201 12.0188C28.2497 12.1387 27.6146 12.3464 27.2231 12.7379C26.9315 13.0295 26.9195 13.385 27.1912 13.6806C27.3869 13.8923 27.6505 14.0201 28.1579 14.152C28.9648 14.3637 29.2204 14.3916 30.239 14.3916C31.0819 14.3916 31.2457 14.3836 31.6092 14.3038C32.3881 14.132 32.8595 13.9003 33.0592 13.5807C33.195 13.369 33.207 13.1893 33.0992 12.9496C32.9074 12.5341 32.0726 12.1706 31.0579 12.0628C30.4548 11.9989 29.7877 11.9829 29.4201 12.0188ZM31.4774 12.9576C31.9767 13.0455 32.1165 13.1533 31.9487 13.3091C31.8129 13.4289 30.8063 13.5767 30.1152 13.5767C29.4801 13.5767 28.7331 13.4729 28.3536 13.3291C27.9262 13.1693 28.1339 13.0534 29.0806 12.9176C29.6079 12.8417 30.9701 12.8657 31.4774 12.9576Z" fill="black"/>
<path d="M23.5401 12.8976C23.4403 12.9656 23.3364 13.0734 23.3085 13.1413C23.2605 13.2492 23.2685 13.2691 23.3524 13.365C23.4563 13.4729 24.5867 14.3317 24.7345 14.4076C25.0261 14.5634 25.3856 14.2398 25.3177 13.8803C25.3058 13.8244 25.2299 13.7165 25.146 13.6406C25.0141 13.5248 23.9396 12.8577 23.7798 12.7978C23.7479 12.7858 23.644 12.8297 23.5401 12.8976Z" fill="black"/>
<path d="M36.0271 13.0215C35.7475 13.2212 35.5198 13.397 35.1843 13.6886C34.9406 13.8963 34.9326 13.9083 34.9326 14.092C34.9326 14.3437 35.0445 14.4556 35.2961 14.4556C35.4559 14.4556 35.5078 14.4316 35.7915 14.1959C35.9672 14.0521 36.2508 13.8284 36.4226 13.6926C36.7781 13.417 36.87 13.2971 36.834 13.1653C36.8061 13.0415 36.5265 12.8577 36.3787 12.8577C36.3108 12.8577 36.1709 12.9216 36.0271 13.0215Z" fill="black"/>
<path d="M19.905 13.1773C19.7772 13.2731 19.6893 13.5408 19.7492 13.6446C19.8291 13.7964 20.0089 13.9083 21.0115 14.4356C21.5827 14.7392 22.4416 15.1866 22.9169 15.4382C23.4722 15.7298 23.8237 15.8936 23.9036 15.8936C23.9835 15.8936 24.0714 15.8537 24.1553 15.7778C24.2711 15.6739 24.2871 15.634 24.2871 15.4582C24.2871 15.2944 24.2671 15.2385 24.1712 15.1386C24.0075 14.9669 20.4003 13.1333 20.1766 13.1094C20.0488 13.0934 19.9889 13.1094 19.905 13.1773Z" fill="black"/>
<path d="M39.2469 13.401C38.9513 13.5687 38.1764 13.9842 37.5293 14.3237C36.239 15.0028 35.9594 15.1706 35.8955 15.2904C35.7836 15.4941 35.8875 15.8097 36.0872 15.8936C36.199 15.9375 36.239 15.9295 36.5386 15.7897C37.5293 15.3224 39.8621 14.0641 40.1976 13.8164C40.3614 13.6886 40.3854 13.6526 40.3974 13.5048C40.4094 13.361 40.3934 13.3171 40.2895 13.2172C40.1897 13.1173 40.1417 13.0974 39.9779 13.0974C39.8142 13.0974 39.7103 13.1413 39.2469 13.401Z" fill="black"/>
<path d="M29.5719 14.9748C28.9767 15.0467 28.5013 15.2904 28.0499 15.7538C27.7423 16.0694 27.5346 16.4089 27.3948 16.8323C27.2909 17.1279 27.287 17.1998 27.283 17.831C27.283 18.4741 27.2909 18.526 27.3948 18.8296C27.5586 19.297 27.7943 19.6685 28.1378 20.008C28.4933 20.3596 28.8329 20.5673 29.2803 20.7151C29.7157 20.8549 30.3868 20.8629 30.7782 20.7311C31.669 20.4275 32.3801 19.7484 32.7276 18.8656C32.8474 18.566 32.9114 18.0547 32.8834 17.6273C32.8275 16.8203 32.6277 16.317 32.1604 15.8257C31.673 15.3104 31.1338 15.0388 30.4627 14.9748C30.0312 14.9309 29.9514 14.9309 29.5719 14.9748ZM29.3881 17.5753C29.6238 17.803 30.1191 18.0667 30.4627 18.1506C30.6344 18.1905 30.93 18.2105 31.3694 18.2105C31.8967 18.2105 32.0166 18.2225 32.0166 18.2664C32.0166 18.4102 31.8408 18.8576 31.705 19.0733C31.4733 19.4248 31.2017 19.6725 30.8262 19.8562C30.4986 20.02 30.4906 20.024 30.0472 20.024C29.6398 20.028 29.5799 20.02 29.3681 19.9202C28.9008 19.7005 28.4214 19.0893 28.2457 18.4941C28.1418 18.1386 28.1578 18.0067 28.3415 17.783C28.4294 17.6792 28.5932 17.4675 28.709 17.3197L28.9168 17.044L29.0566 17.2198C29.1325 17.3157 29.2803 17.4755 29.3881 17.5753Z" fill="black"/>
<path d="M41.7155 15.4982C41.2282 15.6579 40.3414 15.8776 38.6677 16.2531C36.3867 16.7644 36.3308 16.7844 36.3308 17.1839C36.3308 17.3317 36.3548 17.3716 36.4906 17.4635C36.6424 17.5674 36.8301 17.5474 37.681 17.3317C38.1164 17.2238 38.9912 17.0161 39.6304 16.8723C41.0245 16.5567 41.9632 16.321 42.2268 16.2252C42.3786 16.1692 42.4386 16.1213 42.4945 16.0055C42.5584 15.8736 42.5584 15.8457 42.5105 15.7258C42.4465 15.5701 42.2268 15.3743 42.131 15.3783C42.095 15.3823 41.9073 15.4342 41.7155 15.4982Z" fill="black"/>
<path d="M17.7957 15.574C17.6998 15.6699 17.6679 15.7937 17.6839 15.9975C17.6918 16.1213 17.7238 16.1692 17.8317 16.2411C18.0354 16.381 18.2111 16.4209 20.2524 16.8323C21.287 17.0401 22.3016 17.2558 22.5093 17.3117C23.4121 17.5554 23.6039 17.5673 23.7477 17.3836C23.9394 17.1399 23.7836 16.8363 23.4001 16.6925C23.0486 16.5607 21.8183 16.2691 20.8715 16.0893C19.9328 15.9136 18.9621 15.7019 18.5067 15.574C18.1313 15.4702 17.8996 15.4702 17.7957 15.574Z" fill="black"/>
<path d="M21.3912 18.2544C20.8039 18.2904 20.1688 18.3583 19.9012 18.4182C19.6495 18.4701 19.5736 18.582 19.6136 18.8336C19.6255 18.9335 19.6775 19.0533 19.7214 19.0973C19.8173 19.1931 19.9371 19.1931 21.8905 19.0533C23.4524 18.9415 23.5243 18.9295 23.5682 18.7338C23.6002 18.586 23.5403 18.4422 23.3885 18.3183L23.2606 18.2105L22.5776 18.2145C22.1981 18.2185 21.6668 18.2344 21.3912 18.2544Z" fill="black"/>
<path d="M37.0897 18.2464C36.7702 18.2824 36.7222 18.3023 36.6383 18.4461C36.5465 18.6019 36.5545 18.7058 36.6623 18.8296C36.7782 18.9654 36.9579 18.9894 38.5478 19.0693C39.2308 19.1013 39.87 19.1412 39.9738 19.1532C40.3094 19.1931 40.4132 19.1013 40.4612 18.7098C40.4931 18.4661 40.4612 18.4142 40.2614 18.3703C39.87 18.2824 37.5731 18.1945 37.0897 18.2464Z" fill="black"/>
<path d="M41.1841 18.4501C40.9844 18.4741 40.9165 18.5939 40.9364 18.8616C40.9564 19.0893 40.9844 19.1212 41.1881 19.1772C41.3759 19.2211 42.8299 19.269 42.9777 19.2331C43.1095 19.2011 43.2094 19.0054 43.1934 18.8216C43.1734 18.6019 43.0536 18.538 42.5822 18.4901C42.0949 18.4422 41.3998 18.4222 41.1841 18.4501Z" fill="black"/>
<path d="M17.089 18.6698C16.9651 18.7937 16.9491 18.8296 16.9691 18.9575C16.9851 19.0374 17.041 19.1492 17.0969 19.2051C17.1968 19.305 17.2168 19.309 17.6482 19.301C17.8959 19.301 18.2474 19.285 18.4311 19.269C18.7307 19.2451 18.7827 19.2291 18.8825 19.1292C19.0183 18.9894 19.0263 18.8416 18.9065 18.6619L18.8146 18.53H18.0237H17.2288L17.089 18.6698Z" fill="black"/>
<path d="M22.873 19.8323C21.9183 20.1159 19.7212 20.8229 19.5854 20.8908C19.4975 20.9348 19.4176 20.9987 19.4057 21.0307C19.3697 21.1225 19.5015 21.4181 19.6334 21.546C19.7372 21.6458 19.7692 21.6538 19.921 21.6298C20.1127 21.6019 22.9688 20.6472 23.2964 20.5074C23.572 20.3835 23.6679 20.2797 23.6679 20.1039C23.6679 20 23.6359 19.9321 23.5521 19.8443C23.4083 19.7005 23.3164 19.7005 22.873 19.8323Z" fill="black"/>
<path d="M36.5067 19.9042C36.263 20.1478 36.3789 20.4594 36.7544 20.5633C37.3136 20.7191 37.7251 20.8389 38.7876 21.1665C40.4214 21.6698 40.2656 21.6338 40.3615 21.5499C40.4654 21.4581 40.6172 21.0626 40.5852 20.9667C40.5532 20.8669 40.1378 20.6911 39.287 20.4115C38.2444 20.0719 37.03 19.7684 36.7224 19.7684C36.6785 19.7684 36.5826 19.8283 36.5067 19.9042Z" fill="black"/>
<path d="M31.9048 20.4554C31.8809 20.4794 31.8569 20.5273 31.8569 20.5553C31.8569 20.6392 31.6172 20.8828 31.4295 20.9947C31.3296 21.0506 31.1059 21.1505 30.9262 21.2104C30.6226 21.3183 30.5547 21.3262 29.9994 21.3262C29.6719 21.3262 29.3323 21.3063 29.2524 21.2863C29.1126 21.2464 28.829 21.0666 28.3057 20.6831C28.0021 20.4674 27.8823 20.4394 27.4868 20.5074C26.9595 20.5992 26.5641 20.8229 26.1007 21.2823C25.6573 21.7297 25.4296 22.0772 24.8624 23.1837C24.0594 24.7456 23.9716 25.0332 24.1393 25.5845C24.2712 26.0079 24.4869 26.3355 24.9303 26.7869C25.154 27.0146 25.3537 27.1983 25.3777 27.1983C25.4456 27.1983 25.4655 26.9427 25.5055 25.4806C25.5255 24.7217 25.5614 24.0386 25.5854 23.9547C25.6373 23.7709 26.0208 23.4114 26.3124 23.2676C26.6919 23.0839 26.8477 23.0759 29.6399 23.0559C32.2803 23.0399 33.3908 23.0679 33.7104 23.1718C33.9421 23.2437 34.2616 23.5592 34.4214 23.8708L34.5612 24.1424L34.5892 25.6604C34.6052 26.4953 34.6292 27.1903 34.6491 27.2103C34.713 27.2742 35.4401 26.4034 35.7396 25.9001C35.9554 25.5405 36.0273 25.2889 35.9993 24.9693C35.9793 24.7256 35.9354 24.6098 35.46 23.6631C34.8449 22.4327 34.6012 22.0053 34.3096 21.6179C33.9141 21.1025 33.3109 20.6831 32.7357 20.5313C32.3283 20.4275 31.9687 20.3915 31.9048 20.4554Z" fill="black"/>
<path d="M40.9925 21.2064C40.8767 21.3422 40.7928 21.5659 40.8128 21.6937C40.8208 21.7537 40.8767 21.8096 40.9725 21.8535C41.2122 21.9654 42.5544 22.4048 42.6583 22.4048C42.7142 22.4048 42.8101 22.3529 42.878 22.281C43.0457 22.1132 43.0537 21.8495 42.8979 21.7057C42.7302 21.5499 41.4599 21.0866 41.2042 21.0866C41.1283 21.0866 41.0604 21.1265 40.9925 21.2064Z" fill="black"/>
<path d="M23.3284 21.2623C23.0767 21.3422 22.154 21.8855 20.7918 22.7563C19.7772 23.4074 19.5535 23.5872 19.5535 23.763C19.5535 23.8469 19.7852 24.2024 19.865 24.2303C19.9529 24.2663 20.1806 24.1425 21.355 23.4035C23.1806 22.257 23.5201 22.0333 23.6959 21.8615C23.8836 21.6858 23.9116 21.5659 23.8077 21.3702C23.7198 21.1944 23.612 21.1745 23.3284 21.2623Z" fill="black"/>
<path d="M18.2751 21.3103C17.9036 21.4061 17.548 21.526 17.3923 21.6099C17.1206 21.7457 17.0967 22.1451 17.3523 22.2969C17.5201 22.3928 17.7038 22.3808 18.1432 22.241C18.9901 21.9694 19.1938 21.8136 19.074 21.526C18.9621 21.2503 18.7305 21.1904 18.2751 21.3103Z" fill="black"/>
<path d="M36.1511 21.3462C36.0752 21.4181 36.0513 21.486 36.0513 21.6178C36.0513 21.8375 36.1032 21.8855 36.6704 22.1931C37.2696 22.5206 38.5119 23.2756 39.4227 23.8708C39.8382 24.1424 40.2057 24.3621 40.2416 24.3621C40.3415 24.3621 40.4773 24.2543 40.6091 24.0705C40.7889 23.8229 40.7689 23.755 40.4373 23.5113C39.6384 22.9201 38.0566 21.9774 37.0299 21.478C36.4787 21.2144 36.3069 21.1864 36.1511 21.3462Z" fill="black"/>
<path d="M36.862 23.6831C36.7462 23.731 36.6104 23.9507 36.6104 24.0905C36.6104 24.1544 36.6783 24.2783 36.7781 24.4101C37.1296 24.8615 39.0311 26.663 39.858 27.3301C40.2055 27.6138 40.3613 27.6178 40.5251 27.3461C40.6968 27.0665 40.6169 26.8947 40.0697 26.4194C39.8939 26.2636 39.2787 25.6804 38.6995 25.1211C37.0977 23.5752 37.1097 23.5832 36.862 23.6831Z" fill="black"/>
<path d="M22.765 23.8349C22.6811 23.8988 22.2338 24.3142 21.7704 24.7616C20.9675 25.5366 20.4242 26.0439 19.801 26.5912C19.5174 26.8428 19.5134 26.8468 19.5134 27.0465C19.5134 27.2263 19.5294 27.2622 19.6732 27.4061C19.865 27.5978 19.9528 27.5898 20.2325 27.3661C20.5321 27.1224 23.3123 24.3502 23.3722 24.2343C23.4561 24.0706 23.4401 24.0066 23.2843 23.8588C23.1086 23.6911 22.9728 23.6831 22.765 23.8349Z" fill="black"/>
<path d="M26.632 23.9307C26.4083 24.0586 26.3324 24.1664 26.2884 24.4101C26.2525 24.6058 26.2525 28.201 26.2884 28.3008C26.3044 28.3408 26.3444 28.4087 26.3763 28.4446C26.4322 28.5125 26.648 28.5165 29.8356 28.5165C31.7051 28.5165 33.3549 28.5046 33.5027 28.4926C33.6944 28.4726 33.7783 28.4486 33.7983 28.4007C33.8462 28.2928 33.8622 25.4567 33.8223 24.7816C33.7823 24.1464 33.7823 24.1425 33.6625 24.0386C33.5786 23.9627 33.4827 23.9267 33.307 23.9068C33.1192 23.8868 27.8064 23.7989 27.0234 23.8069C26.8956 23.8069 26.7798 23.8429 26.632 23.9307ZM32.8356 24.7776C32.9914 24.8815 33.0233 25.0093 33.0473 25.6644C33.0673 26.2636 33.0633 26.2716 32.9754 26.2995C32.9275 26.3155 32.8276 26.3155 32.7557 26.3035C32.5679 26.2676 32.52 26.1238 32.552 25.7003L32.5799 25.3648L32.4281 25.3249C32.3443 25.3049 32.1725 25.2689 32.0447 25.245C31.9208 25.221 31.781 25.185 31.7371 25.1611C31.6252 25.1012 31.6292 24.8695 31.7411 24.7576C31.821 24.6777 31.8569 24.6737 32.2803 24.6897C32.6119 24.7057 32.7597 24.7297 32.8356 24.7776ZM30.4069 25.8082C30.5507 25.9081 30.6985 26.1677 30.6985 26.3235C30.6985 26.4913 30.6186 26.711 30.5147 26.8348C30.307 27.0825 29.9515 27.0825 29.7118 26.8308C29.544 26.6511 29.5001 26.5512 29.5001 26.3515C29.5041 25.8681 30.0274 25.5525 30.4069 25.8082Z" fill="black"/>
<path d="M18.6148 24.1345C17.9997 24.4301 17.7161 24.6777 17.7161 24.9214C17.7161 25.0612 17.8958 25.3129 18.0197 25.3448C18.2114 25.3928 18.9424 25.0372 19.2819 24.7297C19.4617 24.5659 19.4617 24.482 19.2859 24.2463C19.2061 24.1425 18.9863 24.0026 18.9065 24.0026C18.8985 24.0026 18.7666 24.0626 18.6148 24.1345Z" fill="black"/>
<path d="M40.9327 24.0865C40.7449 24.2823 40.6371 24.478 40.665 24.5579C40.7369 24.7856 41.7715 25.3967 42.0871 25.4007C42.163 25.4007 42.2389 25.3528 42.3388 25.241C42.5944 24.9573 42.5265 24.7776 42.0312 24.446C41.7955 24.2862 41.3042 24.0506 41.1404 24.0186C41.0405 23.9986 40.9966 24.0146 40.9327 24.0865Z" fill="black"/>
<path d="M36.7383 27.0425C36.4347 27.3661 36.4706 27.4939 37.0099 28.0492C37.3574 28.4047 37.4014 28.4366 37.5412 28.4366C37.8128 28.4366 38.0086 28.2849 38.0086 28.0691C38.0086 27.7975 37.2775 26.9946 36.9779 26.9347C36.8821 26.9147 36.8421 26.9347 36.7383 27.0425Z" fill="black"/>
<path d="M23.0408 27.0585C22.6932 27.2343 22.0701 27.8974 22.0701 28.0971C22.0701 28.185 22.2618 28.3927 22.4216 28.4766C22.5055 28.5165 22.5374 28.5086 22.6772 28.4087C22.9129 28.2489 23.7478 27.418 23.7478 27.3461C23.7478 27.2143 23.4522 26.9587 23.2964 26.9587C23.2684 26.9587 23.1526 27.0026 23.0408 27.0585Z" fill="black"/>
<path d="M25.2099 27.9214C24.9582 28.0572 24.6786 28.3687 24.5268 28.6843C24.391 28.9639 24.387 28.9879 24.387 29.4593V29.9466L24.5428 30.2582C24.7265 30.6217 25.0621 31.0451 25.3457 31.2688C25.4535 31.3567 25.857 31.6124 26.2325 31.8361C26.7757 32.1556 27.5507 32.647 27.6585 32.7348C27.6665 32.7388 27.6386 32.8267 27.6026 32.9266C27.3869 33.4938 27.8742 34.1889 28.4854 34.1889C28.7411 34.1889 29.1006 34.0051 29.1006 33.8733C29.1006 33.7814 28.9089 33.6057 28.5413 33.358C28.3776 33.2502 28.1978 33.1103 28.1419 33.0504C28.054 32.9506 28.082 32.9625 28.4215 33.1383C28.6292 33.2462 29.0207 33.4539 29.2883 33.6017C29.556 33.7495 30.0553 34.0091 30.4028 34.1769C30.994 34.4685 31.046 34.4845 31.2936 34.4845C31.6531 34.4845 31.8249 34.4166 32.0127 34.2049C32.3043 33.8693 32.6158 33.1303 32.6158 32.7628C32.6158 32.5711 32.6039 32.5391 32.464 32.3993C32.3362 32.2715 31.0779 31.5325 30.0793 30.9932C29.9035 30.8973 29.5999 30.7216 29.4042 30.5977L29.0447 30.374L27.6466 30.3541C26.0407 30.3301 26.0407 30.3301 25.6892 29.9546C25.5094 29.7629 25.2658 29.3235 25.2658 29.1916C25.2658 29.1557 25.3137 28.9839 25.3696 28.8121C25.4256 28.6364 25.4815 28.3528 25.4935 28.169C25.5214 27.7895 25.4975 27.7696 25.2099 27.9214Z" fill="black"/>
<path d="M34.5054 27.9373C34.4775 28.0172 34.5893 28.4886 34.7171 28.7962C34.841 29.1037 34.837 29.2036 34.6892 29.5152C34.5294 29.8587 34.3336 30.0864 34.1139 30.1943C33.9462 30.2742 33.8583 30.2822 32.1686 30.3181C30.4109 30.3581 30.0754 30.382 30.0834 30.4539C30.0834 30.5098 30.399 30.7415 30.8064 30.9892C31.4855 31.3966 32.3204 31.876 32.5281 31.9799C32.7398 32.0797 32.7438 32.0797 32.9475 32.0118C33.2911 31.904 34.09 31.4965 34.4735 31.2409C35.1485 30.7895 35.6519 29.9786 35.6519 29.3354C35.6519 28.7882 35.3163 28.1371 34.9248 27.9333C34.777 27.8574 34.5374 27.8614 34.5054 27.9373Z" fill="black"/>
<path d="M31.6172 29.0398C30.3749 29.0518 28.6093 29.0678 27.6945 29.0718C26.0647 29.0758 26.0288 29.0758 26.0048 29.1557C25.9688 29.2675 26.0487 29.4872 26.1646 29.5951L26.2604 29.683L29.9674 29.667C32.0047 29.655 33.7064 29.635 33.7463 29.6151C33.9061 29.5472 34.0499 29.0318 33.9141 29.0159C33.8941 29.0159 32.8595 29.0239 31.6172 29.0398Z" fill="black"/>
<path d="M36.1111 31.0012C36.0672 31.0251 35.9833 31.0891 35.9234 31.145L35.8115 31.2488V35.591V39.9331L35.9513 40.0569C36.1391 40.2207 36.3029 40.2207 36.5226 40.0609L36.6903 39.9411V36.1742C36.6903 34.101 36.6784 32.1276 36.6624 31.7881C36.6384 31.1849 36.6344 31.1729 36.5266 31.0651C36.4107 30.9452 36.2509 30.9213 36.1111 31.0012Z" fill="black"/>
<path d="M23.3924 31.0771C23.3444 31.121 23.2845 31.2089 23.2566 31.2648C23.2246 31.3407 23.2086 32.599 23.1966 35.6509L23.1807 39.9331L23.3724 40.0769C23.5881 40.2407 23.6241 40.2487 23.8558 40.1408C23.9756 40.0889 24.0315 40.033 24.0555 39.9531C24.0715 39.8932 24.0874 37.8919 24.0874 35.5071V31.1769L23.9277 31.0851C23.7239 30.9692 23.5122 30.9652 23.3924 31.0771Z" fill="black"/>
<path d="M17.9916 33.0105C17.9357 33.0424 17.7919 33.1982 17.6761 33.358C17.4843 33.6216 16.8572 34.4046 16.27 35.1156C15.9464 35.5071 15.9144 35.7707 16.1701 35.9625C16.27 36.0384 16.3538 36.0504 16.9051 36.0663C17.4603 36.0823 17.5283 36.0943 17.5802 36.1662C17.6721 36.294 17.724 36.5377 17.7559 37.025C17.7839 37.5204 17.8159 37.6122 17.9796 37.7401C18.1434 37.8719 18.2992 37.8479 18.475 37.6722L18.6268 37.5244L18.6507 36.9252C18.6667 36.5936 18.6867 36.2781 18.6987 36.2221L18.7186 36.1183L19.2939 36.0943C19.953 36.0663 20.1527 36.0064 20.3285 35.7747C20.5402 35.4991 20.5242 35.4671 19.4936 34.2248C18.427 32.9426 18.3032 32.8427 17.9916 33.0105Z" fill="black"/>
<path d="M41.5839 32.9945C41.5399 33.0184 41.2803 33.326 41.0047 33.6776C40.729 34.0331 40.3136 34.5644 40.0779 34.86C39.8462 35.1556 39.6465 35.4432 39.6345 35.4991C39.6066 35.6389 39.6705 35.8426 39.7703 35.9305C39.8422 35.9944 39.9581 36.0144 40.4974 36.0464C41.1285 36.0863 41.1445 36.0903 41.1884 36.1862C41.2164 36.2421 41.2563 36.5497 41.2803 36.8732C41.3242 37.5323 41.3722 37.6722 41.5839 37.772C41.7037 37.8279 41.7357 37.8279 41.8675 37.78C42.1431 37.6761 42.1751 37.5843 42.223 36.8293C42.243 36.4578 42.275 36.1422 42.2909 36.1262C42.3229 36.0943 43.014 36.0304 43.3655 36.0264C43.5972 36.0264 43.6371 36.0144 43.729 35.9145C43.9048 35.7228 43.9607 35.6109 43.9607 35.4472C43.9607 35.3034 43.9207 35.2354 43.6131 34.844C43.4174 34.6043 43.1817 34.2967 43.0819 34.1689C42.7263 33.6935 42.271 33.1303 42.1751 33.0384C42.0992 32.9705 42.0353 32.9505 41.8715 32.9545C41.7557 32.9545 41.6278 32.9745 41.5839 32.9945Z" fill="black"/>
<path d="M26.4003 33.0344C26.3483 33.1143 26.2844 39.8572 26.3323 39.9371C26.4042 40.0489 26.6319 40.1808 26.7598 40.1808C26.8397 40.1808 26.9355 40.1368 27.0234 40.0649L27.1632 39.9491V37.061C27.1632 33.6097 27.1353 33.2861 26.8437 33.0944C26.7038 33.0025 26.4442 32.9705 26.4003 33.0344Z" fill="black"/>
<path d="M33.1911 33.1023C33.1112 33.1543 33.0632 33.2861 32.9794 33.7095C32.9314 33.9412 32.8635 34.2168 32.8276 34.3287C32.7676 34.5084 32.7557 34.82 32.7437 37.2487L32.7317 39.9651L32.8835 40.0729C33.0712 40.2047 33.1871 40.2087 33.3948 40.0889L33.5546 39.997L33.5905 36.6256L33.6265 33.2541L33.5106 33.1622C33.3948 33.0704 33.271 33.0464 33.1911 33.1023Z" fill="black"/>
<path d="M29.7038 35.0158C29.6479 35.0597 29.6 35.1596 29.576 35.2674C29.56 35.3673 29.544 36.4578 29.54 37.6921V39.9331L29.6679 40.041C29.8556 40.2007 29.9595 40.2287 30.1113 40.1648C30.3869 40.049 30.3669 40.2087 30.3989 37.5803L30.4268 35.1955L30.2471 35.0917C29.9994 34.9439 29.8237 34.9199 29.7038 35.0158Z" fill="black"/>
<path d="M28.6213 41.3672C27.5787 41.3991 25.5695 41.6708 24.3471 41.9424C22.8851 42.266 21.8025 42.6734 21.0116 43.1967C20.6241 43.4523 20.005 44.0795 19.8772 44.3471C19.7413 44.6268 19.7693 45.0542 19.9451 45.4257C20.4204 46.4403 22.1661 47.3071 24.7865 47.8264C26.5202 48.17 27.2791 48.2259 30.1193 48.2299C32.2604 48.2299 32.4402 48.2259 33.1352 48.138C35.9874 47.7825 38.2044 47.1434 39.191 46.3884C39.5506 46.1167 40.0379 45.6054 40.1897 45.3498C40.2896 45.182 40.3055 45.1141 40.3055 44.8545C40.3055 44.455 40.1777 44.1874 39.7703 43.7639C38.9833 42.941 37.5373 42.2859 35.4481 41.8026C34.7371 41.6388 34.2457 41.5629 33.3549 41.479C32.1486 41.3672 30.1313 41.3192 28.6213 41.3672ZM32.4961 42.3538C34.3935 42.5096 35.2204 42.6734 36.7983 43.1967C38.0086 43.6001 38.7596 43.9916 39.1431 44.419C39.3628 44.6667 39.3988 44.7945 39.2949 45.0222C39.1351 45.3817 38.7317 45.6733 37.8449 46.0728C36.8622 46.5162 35.2204 46.9316 33.6745 47.1274C30.4748 47.5308 26.9276 47.379 24.1674 46.7119C22.4097 46.2885 21.0476 45.6054 20.752 44.9983C20.6721 44.8305 20.6721 44.8145 20.732 44.6667C21.1235 43.732 23.8398 42.7972 27.383 42.3818C27.7665 42.3379 28.146 42.2899 28.2219 42.2819C28.5694 42.242 31.7651 42.2939 32.4961 42.3538Z" fill="black"/>
</svg>
