<?xml version="1.0" standalone="no"?>
<!DOCTYPE svg PUBLIC "-//W3C//DTD SVG 20010904//EN"
 "http://www.w3.org/TR/2001/REC-SVG-20010904/DTD/svg10.dtd">
<svg version="1.0" xmlns="http://www.w3.org/2000/svg"
 width="1024.000000pt" height="1024.000000pt" viewBox="0 0 1024.000000 1024.000000"
 preserveAspectRatio="xMidYMid meet">

<g transform="translate(0.000000,1024.000000) scale(0.100000,-0.100000)"
fill="#000000" stroke="none">
<path d="M3495 8104 c-100 -22 -179 -67 -260 -149 -81 -81 -118 -148 -141
-255 -40 -187 23 -366 173 -498 111 -98 201 -132 348 -132 158 0 273 45 371
146 69 71 136 189 153 272 51 246 -105 520 -345 602 -80 28 -210 34 -299 14z"/>
<path d="M6460 8109 c-276 -40 -470 -283 -447 -559 6 -73 45 -183 88 -245 111
-164 323 -263 505 -236 151 22 257 79 344 183 58 69 74 98 101 176 24 68 26
213 4 295 -51 195 -216 347 -414 383 -85 15 -102 15 -181 3z"/>
<path d="M6208 6871 c-26 -17 -72 -50 -103 -76 -31 -25 -104 -78 -163 -117
-120 -80 -244 -171 -440 -321 -73 -56 -153 -116 -178 -133 -91 -63 -135 -114
-100 -114 26 0 123 -117 145 -175 40 -106 24 -260 -39 -385 -17 -33 -28 -60
-25 -60 29 0 152 81 360 235 83 61 179 129 215 150 36 21 87 52 113 68 26 16
51 27 54 23 4 -3 4 -201 2 -439 -5 -531 0 -1637 7 -1730 6 -61 12 -76 55 -141
81 -119 112 -150 199 -195 204 -107 453 -89 620 43 50 40 126 138 139 181 5
16 12 326 16 688 l6 659 -35 -35 c-42 -43 -123 -83 -196 -99 -45 -9 -69 -8
-135 5 -163 34 -289 125 -355 260 -32 66 -33 71 -42 250 -4 100 -5 288 -2 417
4 170 2 264 -7 340 -27 205 -10 350 52 472 22 43 23 48 9 48 -22 0 -90 -74
-130 -141 -23 -38 -63 -99 -91 -135 -27 -36 -49 -70 -49 -77 0 -7 -5 -4 -11 5
-18 32 -12 159 11 229 26 79 89 197 140 265 54 72 37 85 -42 35z"/>
<path d="M3448 6856 c-129 -53 -210 -117 -279 -223 -71 -109 -112 -258 -108
-387 1 -28 1 -325 0 -661 -1 -335 3 -754 9 -930 6 -176 14 -462 18 -636 l7
-316 38 -57 c59 -88 155 -179 228 -215 84 -41 161 -54 289 -49 100 4 111 7
191 46 97 46 131 79 204 197 l50 80 3 1030 2 1031 -33 12 c-18 7 -110 62 -203
123 -93 61 -195 124 -226 141 -156 83 -274 299 -254 463 14 109 61 210 141
304 25 29 43 57 39 62 -9 15 -57 10 -116 -15z"/>
<path d="M3805 6757 c-86 -29 -153 -84 -193 -161 -22 -43 -27 -64 -27 -131 0
-67 4 -89 28 -136 37 -77 89 -121 247 -211 74 -42 169 -102 210 -132 333 -242
678 -463 766 -491 49 -15 67 -16 111 -7 109 23 186 83 230 179 22 47 25 65 21
127 -9 132 -73 213 -261 328 -55 34 -121 78 -146 98 -132 104 -464 349 -558
411 -157 104 -217 130 -311 135 -48 2 -92 -1 -117 -9z"/>
<path d="M6707 6720 c-26 -5 -54 -22 -88 -56 -100 -97 -113 -158 -99 -474 5
-118 10 -357 10 -530 0 -355 6 -416 49 -475 69 -96 218 -128 334 -71 55 27 89
61 138 141 l24 40 3 539 c3 577 -1 641 -44 736 -55 120 -111 160 -224 159 -36
-1 -82 -5 -103 -9z"/>
<path d="M3980 3350 c-184 -4 -468 -5 -630 -3 -280 5 -297 4 -326 -15 -40 -26
-67 -82 -55 -114 5 -12 25 -39 46 -58 l36 -35 127 2 c70 1 305 1 522 0 1355
-6 2525 -1 2706 12 156 11 212 11 315 1 68 -7 186 -13 262 -14 l138 -1 40 42
c48 52 52 96 14 142 -44 51 -71 55 -365 46 -146 -5 -317 -8 -380 -7 -397 6
-2172 7 -2450 2z"/>
</g>
</svg>
