<svg width="60" height="60" viewBox="0 0 60 60" fill="none" xmlns="http://www.w3.org/2000/svg">
<path d="M19.2113 14.0835C18.7482 14.1987 17.6897 14.7324 17.2868 15.0598C16.1019 16.0119 15.6028 16.7335 15.1757 18.0919L15.0013 18.6376V30.6444C15.0013 44.2703 14.9472 42.8938 15.5306 44.0763C15.8193 44.6645 15.8854 44.7494 16.3485 45.1496C16.95 45.6711 18.0446 46.2654 18.7422 46.4473C19.2053 46.5686 19.3136 46.5686 29.2252 46.5625C35.6063 46.5625 39.3773 46.5383 39.6239 46.4958C40.1411 46.417 41.0132 46.0714 41.4943 45.756C41.7109 45.6165 42.1018 45.283 42.3664 45.0162C42.7814 44.5978 42.9077 44.428 43.2205 43.8034C43.4189 43.4032 43.5994 42.9787 43.6174 42.8635C43.6354 42.7483 43.6595 38.1093 43.6655 32.5546L43.6836 22.458L43.5272 22.4762C43.437 22.4822 43.2626 22.464 43.1242 22.4337L42.8837 22.3791L42.8656 24.5743C42.8476 26.6664 42.8416 26.7756 42.7153 27.0909C42.5288 27.5518 42.2943 27.8671 41.9274 28.1582L41.6146 28.4068L41.5966 35.5624L41.5846 42.7119L41.4162 43.0575C41.1335 43.6397 40.7606 44.0035 40.1411 44.2946C39.7983 44.4583 39.4435 44.5796 39.1788 44.622C38.8902 44.6645 35.6484 44.6766 29.0447 44.6706L19.3316 44.6524L18.9948 44.5129C18.4716 44.2885 17.9243 43.8398 17.6236 43.3789C17.2447 42.7907 17.1364 42.4572 17.0702 41.6567C17.0342 41.2262 17.0161 36.7267 17.0281 30.0077L17.0462 19.0621L17.1905 18.6376C17.407 17.9827 17.6416 17.5582 18.0085 17.1641C18.4054 16.7274 18.7843 16.4728 19.3797 16.2363L19.8128 16.0665L27.042 16.0604H34.2712L34.3373 16.1877C34.4275 16.3515 34.638 16.4242 34.7884 16.3515C34.8546 16.3151 35.2335 15.9694 35.6364 15.5813C36.0334 15.1932 36.4483 14.8051 36.5506 14.7202C36.8693 14.4534 36.7791 14.1866 36.3341 14.0593C35.9913 13.9683 19.6083 13.9865 19.2113 14.0835Z" fill="black"/>
<path d="M39.1127 14.1199C39.0105 14.1563 38.6978 14.3806 38.4211 14.6232C37.6693 15.2842 34.0908 18.9044 33.8983 19.1894C33.5796 19.6746 33.6036 20.1415 33.9825 20.572C34.3735 21.0208 34.4877 21.0572 35.3899 21.045C36.2379 21.0268 36.2139 21.039 36.7431 20.5842C37.2724 20.1233 37.2483 19.9899 37.2844 23.4464C37.3205 26.7331 37.3024 26.6179 37.7355 26.9514L37.952 27.1151L39.4977 27.0727C41.1817 27.0302 41.1817 27.0302 41.4583 26.6482C41.5846 26.4845 41.5846 26.436 41.5606 23.5616C41.5425 20.6933 41.5425 20.6387 41.6628 20.4871L41.7831 20.3355L42.1379 20.5842C42.7454 21.0147 42.7995 21.0329 43.5513 21.0329C44.1407 21.0329 44.273 21.0147 44.5016 20.8934C45.0008 20.6448 45.2654 20.0445 45.103 19.5411C45.0128 19.2743 44.8263 19.0621 42.5409 16.6971C41.6087 15.7269 40.7306 14.8051 40.5863 14.6475C40.4419 14.4837 40.2254 14.2958 40.0931 14.2351C39.8164 14.0896 39.3714 14.0411 39.1127 14.1199Z" fill="black"/>
<path d="M19.1994 18.9347L18.9287 19.2137L18.9708 21.4998C19.0129 23.6829 19.0189 23.7981 19.1392 23.98C19.2054 24.0831 19.3136 24.2044 19.3798 24.2408C19.458 24.2954 20.1977 24.3196 21.99 24.3378C24.4438 24.3621 24.4919 24.356 24.6603 24.2347C24.7506 24.168 24.8528 24.0346 24.8889 23.9497C24.919 23.8648 24.9611 22.937 24.9731 21.894C25.0032 19.9959 25.0032 19.9959 25.1415 19.8383L25.2858 19.6806L25.0753 19.7898C24.9611 19.8504 24.3897 20.3901 23.8063 20.9965C22.3629 22.4883 22.008 22.7975 21.6893 22.8339L21.4307 22.8642L20.8653 22.2154C20.1496 21.3967 19.9632 21.1542 19.9632 21.045C19.9632 20.9965 20.0534 20.8692 20.1677 20.754C20.3782 20.5417 20.5526 20.4993 20.8292 20.6084C20.9916 20.6691 21.569 21.2573 21.6893 21.4756L21.7554 21.609L21.8156 21.4574C21.9419 21.1481 23.253 19.6503 23.7522 19.244C23.9507 19.0863 24.1491 18.8984 24.1912 18.8256L24.2754 18.6982L21.8757 18.68L19.476 18.6619L19.1994 18.9347Z" fill="black"/>
<path d="M27.5291 19.2016C27.2886 19.432 27.2705 19.4684 27.2705 19.7716C27.2705 20.1779 27.4028 20.4022 27.7396 20.5478C27.9682 20.6448 28.2268 20.663 30.1874 20.6812L32.3827 20.6994L32.3586 20.1961C32.3466 19.8444 32.3706 19.6018 32.4428 19.3896C32.4969 19.2198 32.533 19.0742 32.521 19.0621C32.509 19.056 31.4444 19.0257 30.1453 19.0015L27.7938 18.959L27.5291 19.2016Z" fill="black"/>
<path d="M32.9541 22.1911C32.8399 22.2215 31.6129 22.2639 30.2297 22.2882L27.7217 22.3246L27.5112 22.5611C27.1984 22.9067 27.2345 23.1917 27.6375 23.5919L27.86 23.8224L30.6326 23.8163C32.1602 23.8163 33.6338 23.7921 33.9164 23.7557C34.1991 23.7253 34.7043 23.6768 35.0471 23.6465C35.3839 23.6101 35.6846 23.5737 35.7147 23.5495C35.7809 23.5131 35.9011 22.9855 35.9011 22.7551V22.6035L35.408 22.6399C34.7765 22.6884 33.8924 22.5914 33.6879 22.4458C33.4052 22.2397 33.2248 22.1244 33.1947 22.1305C33.1767 22.1366 33.0684 22.1608 32.9541 22.1911Z" fill="black"/>
<path d="M27.6795 26.3086C27.439 26.4663 27.2405 26.7816 27.2405 26.9999C27.2405 27.0909 27.2946 27.2728 27.3608 27.4002C27.5953 27.8671 27.2645 27.8368 32.1722 27.8428C34.5839 27.8489 36.5627 27.8428 36.5627 27.8307C36.5627 27.8186 36.4664 27.7034 36.3461 27.5699C36.0514 27.2364 35.9492 26.9696 35.9672 26.5633L35.9853 26.2237L31.9256 26.1995C27.872 26.1813 27.872 26.1813 27.6795 26.3086Z" fill="black"/>
<path d="M19.2116 26.6846L18.9409 26.9575V28.8373C18.9409 29.8743 18.959 30.9658 18.983 31.2751C19.0191 31.8087 19.0311 31.8451 19.2416 32.0877L19.4702 32.3424L19.9092 32.312C20.5588 32.2696 21.8639 32.2757 23.2592 32.3302L24.4741 32.3727L24.7026 32.1665L24.9252 31.9603L24.9612 29.9471C25.0033 27.9459 25.0033 27.9338 25.1417 27.7822L25.286 27.6245L25.0875 27.7398C24.9071 27.8428 23.3314 29.4074 22.6337 30.1836C22.0684 30.8082 21.6173 31.0022 21.3106 30.7475C21.2384 30.6929 21.0339 30.4686 20.8595 30.2503C20.6851 30.032 20.4024 29.6984 20.222 29.5105C19.8551 29.1163 19.813 28.904 20.0415 28.6857C20.4325 28.3158 20.8896 28.4553 21.3466 29.0799C21.497 29.2861 21.6293 29.4559 21.6474 29.4559C21.6654 29.4559 21.906 29.1648 22.1886 28.8192C22.4713 28.4674 23.0727 27.8186 23.5298 27.3698C23.9809 26.9211 24.3297 26.5451 24.2997 26.5269C24.2696 26.5087 23.175 26.4724 21.8639 26.4481L19.4882 26.4117L19.2116 26.6846Z" fill="black"/>
<path d="M27.4871 30.1532C27.2164 30.4504 27.1623 30.5898 27.2405 30.8263C27.3187 31.0568 27.7096 31.4449 27.9141 31.4873C27.9923 31.5055 30.0432 31.5358 32.4729 31.5601C34.9027 31.5783 37.098 31.6025 37.3506 31.6025C37.7355 31.6147 37.8377 31.5965 37.946 31.4934C38.373 31.0992 38.367 30.3837 37.9279 30.1047C37.8197 30.0319 36.9656 30.0138 32.7316 29.9956L27.6615 29.9713L27.4871 30.1532Z" fill="black"/>
<path d="M28.6356 34.3617L27.7154 34.3799L27.4448 34.6467C27.2463 34.8468 27.1802 34.962 27.1802 35.1015C27.1802 35.3562 27.3185 35.6109 27.5651 35.7989L27.7756 35.9626L33.1404 35.9929L38.4991 36.0172L38.6495 35.8777C38.8539 35.6836 38.9682 35.4471 38.9682 35.2106C38.9682 34.9923 38.7397 34.5982 38.5472 34.4951C38.4149 34.4223 30.7527 34.3192 28.6356 34.3617Z" fill="black"/>
<path d="M19.4217 34.5436C19.3135 34.5921 19.1631 34.7376 19.0849 34.8589L18.9346 35.0833L18.9526 37.4119C18.9707 39.6313 18.9767 39.7465 19.0909 39.8981C19.1571 39.9891 19.2954 40.1165 19.3917 40.1832C19.5601 40.2984 19.6984 40.3044 21.9898 40.3348C24.2873 40.359 24.4136 40.359 24.594 40.2499C24.9308 40.0376 24.9549 39.9042 24.9549 37.9334C24.9549 36.4174 24.9669 36.1384 25.0451 36.0717C25.2135 35.9323 25.1353 35.9019 24.9128 36.0172C24.7865 36.0839 24.1009 36.7327 23.3852 37.4604C22.2966 38.5762 22.056 38.7945 21.8756 38.8309C21.7553 38.8551 21.5989 38.8551 21.5328 38.8309C21.3944 38.7884 20.1735 37.3634 20.0412 37.0905C19.9329 36.8783 20.0051 36.7388 20.3118 36.5265C20.5945 36.3325 20.7328 36.3325 20.9915 36.5387C21.1659 36.6781 21.5568 37.1208 21.7252 37.3694C21.7553 37.418 21.7914 37.3998 21.8335 37.327C21.9477 37.1329 22.9702 36.005 23.6678 35.3016L24.3414 34.6285L24.155 34.5921C23.9746 34.5557 23.0484 34.5254 20.6186 34.4708C19.8006 34.4526 19.5781 34.4648 19.4217 34.5436Z" fill="black"/>
<path d="M27.4871 38.1638C27.0841 38.5944 27.0961 38.8915 27.5231 39.2917L27.7998 39.5464L30.6025 39.5101C32.1421 39.4919 34.4997 39.4979 35.8409 39.5222C37.8437 39.5646 38.3068 39.5586 38.4391 39.4919C38.6376 39.3888 38.8481 39.0492 38.8481 38.8369C38.8481 38.6308 38.6195 38.1456 38.4872 38.0729C38.4331 38.0426 36.0935 38.0122 33.0202 38.0001L27.6555 37.9819L27.4871 38.1638Z" fill="black"/>
</svg>
