<svg width="60" height="60" viewBox="0 0 60 60" fill="none" xmlns="http://www.w3.org/2000/svg">
<path d="M29.7606 13.0694C29.6912 13.1041 29.5828 13.1778 29.5265 13.2298L29.4268 13.3252L29.4571 16.9888C29.4875 20.6178 29.4875 20.6525 29.5785 20.7522C29.7259 20.9126 29.9644 20.9516 30.1855 20.8563C30.5237 20.7045 30.4977 21.0384 30.4977 16.9628V13.3122L30.398 13.2038C30.3112 13.1127 30.0511 13 29.9297 13C29.908 13 29.8343 13.0304 29.7606 13.0694Z" fill="black"/>
<path d="M24.7143 13.9842C24.5322 14.0752 24.3848 14.3744 24.4238 14.5695C24.4368 14.6432 24.7186 15.3499 25.0525 16.139C25.382 16.9281 25.8719 18.0988 26.1407 18.7448C26.8344 20.414 27.0902 20.9733 27.203 21.047C27.4631 21.2161 27.8143 21.1251 27.9791 20.8519C28.0571 20.7175 28.0571 20.7088 27.9617 20.4444C27.9097 20.297 27.6018 19.5425 27.281 18.7665C26.9558 17.9904 26.5526 16.9975 26.3792 16.5553C25.95 15.467 25.5034 14.4004 25.3906 14.201C25.2346 13.9235 24.9961 13.8455 24.7143 13.9842Z" fill="black"/>
<path d="M34.6989 14.0059C34.5515 14.0752 34.4518 14.2964 33.8101 16.0003C33.4763 16.8891 33.0557 18.0077 32.8736 18.4846C32.4184 19.69 32.1235 20.5744 32.1235 20.7349C32.1235 21.1381 32.6308 21.3288 32.917 21.0297C33.0557 20.8866 33.0687 20.8519 33.9879 18.4413C34.3868 17.392 34.8854 16.113 35.0935 15.6014C35.5531 14.4698 35.5617 14.4481 35.501 14.2703C35.4317 14.0536 35.2756 13.9538 35.0111 13.9582C34.8897 13.9582 34.7466 13.9799 34.6989 14.0059Z" fill="black"/>
<path d="M31.9242 15.4887C31.6771 15.7315 31.6641 15.9179 31.8765 16.1477C32.2061 16.5119 32.8174 16.3211 32.8174 15.8529C32.8174 15.5321 32.5876 15.2979 32.2754 15.2979C32.141 15.2979 32.0803 15.3326 31.9242 15.4887Z" fill="black"/>
<path d="M27.5321 15.4367C27.3024 15.5927 27.2026 15.7532 27.2026 15.9743C27.2026 16.2431 27.3891 16.4295 27.6882 16.4555C27.8703 16.4772 27.918 16.4642 28.0394 16.3602C28.3082 16.1347 28.3689 15.9006 28.2215 15.6578C28.0481 15.3716 27.7619 15.2806 27.5321 15.4367Z" fill="black"/>
<path d="M20.3739 16.3081C20.2915 16.3602 20.1874 16.4686 20.1441 16.5466C20.027 16.746 20.0877 16.9281 20.3825 17.2923C21.0719 18.1551 23.8988 21.3549 24.7182 22.209L25.0781 22.5819H25.3079C25.5854 22.5819 25.6851 22.5342 25.7761 22.3564C25.8759 22.1613 25.8628 21.9532 25.7371 21.7624C25.6764 21.6757 25.3382 21.2898 24.987 20.9083C24.0462 19.8981 23.0663 18.7925 22.1298 17.6825C21.0069 16.3515 20.8638 16.2084 20.6687 16.2084C20.582 16.2084 20.4563 16.2518 20.3739 16.3081Z" fill="black"/>
<path d="M39.0347 16.3472C38.9436 16.4252 38.5794 16.8414 38.2196 17.2707C37.3351 18.3329 36.6284 19.1437 35.7005 20.1756C34.1484 21.8968 34.0747 22.0269 34.4432 22.3954C34.686 22.6382 34.7727 22.6079 35.2756 22.0919C35.7482 21.6107 35.9693 21.3679 37.3698 19.7637C37.8814 19.1784 38.6011 18.3589 38.974 17.9427C39.8498 16.9542 39.9322 16.8458 39.9365 16.6853C39.9452 16.4209 39.698 16.2084 39.3772 16.2084C39.2298 16.2084 39.1604 16.2388 39.0347 16.3472Z" fill="black"/>
<path d="M23.5562 16.6853C23.4392 16.733 23.2007 17.0105 23.166 17.1363C23.1313 17.2837 23.2484 17.5221 23.4175 17.6565C23.7947 17.9427 24.276 17.6652 24.276 17.1623C24.276 16.9585 24.1546 16.8067 23.9074 16.7027C23.7427 16.6333 23.6863 16.6333 23.5562 16.6853Z" fill="black"/>
<path d="M36.0562 16.72C35.8741 16.8414 35.8134 16.9498 35.8091 17.1536C35.8048 17.6956 36.3381 17.9167 36.7543 17.5395C36.8323 17.4658 36.8497 17.4051 36.8497 17.2013C36.8497 16.9672 36.841 16.9455 36.6762 16.7981C36.4768 16.616 36.2557 16.59 36.0562 16.72Z" fill="black"/>
<path d="M42.5074 19.2304C42.438 19.2694 42.0478 19.5382 41.6403 19.8287C40.435 20.6915 38.9608 21.6107 37.1312 22.6469C36.121 23.2192 35.9475 23.3536 35.9128 23.5791C35.8608 23.9042 36.0776 24.3161 36.2944 24.3161C36.3507 24.3161 36.5935 24.1947 36.8277 24.0473C37.0661 23.9042 37.6038 23.5877 38.02 23.3493C39.6632 22.4128 42.6375 20.4617 43.1448 19.9891C43.5783 19.5859 43.0364 18.9442 42.5074 19.2304Z" fill="black"/>
<path d="M16.8793 19.3518C16.8013 19.4385 16.7102 19.5816 16.6842 19.677C16.6409 19.8244 16.6452 19.8591 16.7232 19.9891C16.8403 20.1799 17.0181 20.31 18.3795 21.2031C19.6368 22.0312 20.9028 22.829 21.9131 23.4273C22.2729 23.6354 22.7238 23.9129 22.9233 24.043C23.565 24.4549 23.7904 24.5329 23.9552 24.3985C24.1112 24.2728 24.276 23.9563 24.276 23.7829C24.276 23.5184 24.1893 23.4533 22.9536 22.7553C21.8654 22.1396 20.3826 21.2161 18.9301 20.2536C18.1237 19.716 17.3996 19.2607 17.3259 19.2391C17.1004 19.174 17.0311 19.1914 16.8793 19.3518Z" fill="black"/>
<path d="M29.0497 22.3868C28.6985 22.4648 27.7187 22.9374 27.2764 23.2409C26.9079 23.4967 26.2055 24.1817 25.8977 24.5936C25.7849 24.7367 25.6158 25.0272 25.5161 25.2353C25.36 25.5735 25.3254 25.6169 25.2083 25.6342C25.1389 25.6472 24.8571 25.6862 24.5883 25.7252C23.8556 25.8293 22.9104 26.0851 21.588 26.5404C20.0445 27.0693 19.728 27.1994 19.676 27.3381C19.6543 27.3945 19.6369 27.6286 19.6369 27.8541V28.2616H18.9519H18.2625L18.0934 28.409L17.9243 28.5564V34.1625C17.9243 40.3929 17.9157 40.1501 18.1975 40.4275C18.5097 40.731 18.6224 40.7614 19.3074 40.731C20.1962 40.6877 21.3365 40.588 21.8048 40.5143C23.0448 40.3192 27.0553 40.1934 27.4542 40.3322C27.697 40.4189 27.9094 40.5793 27.9831 40.731C28.0178 40.8048 28.1002 41.1343 28.1739 41.4681C28.2866 42.0144 28.2996 42.1228 28.278 42.6214C28.2216 43.8744 28.5121 44.0609 29.5483 43.4365C29.7478 43.3151 29.9298 43.2197 29.9559 43.2197C29.9862 43.2197 30.203 43.3628 30.4458 43.5406C31.1568 44.0565 31.3563 44.1215 31.5991 43.9264C31.7508 43.8007 31.7812 43.5666 31.7508 42.6518L31.7205 41.7976L31.8809 41.4161C32.2971 40.4319 32.4749 40.1934 32.8998 40.0677C33.1166 40.0027 33.2293 40.0027 33.9967 40.0503C34.4693 40.0764 35.2974 40.1457 35.8394 40.2064C36.3857 40.2628 37.2398 40.3538 37.7384 40.4015C38.2414 40.4492 39.1822 40.5489 39.8325 40.6183C40.4872 40.692 41.1029 40.7484 41.2026 40.7484C41.4281 40.7484 41.8573 40.4796 42.0481 40.2194L42.1825 40.0373V34.3316V28.6258L42.0307 28.4481L41.879 28.2703L41.1853 28.2399C40.3918 28.2053 40.4742 28.2616 40.4265 27.698C40.3962 27.3381 40.3615 27.2514 40.2184 27.156C40.1317 27.0997 39.1042 26.7268 37.7167 26.2455C37.2962 26.0981 35.7874 25.7513 35.2064 25.6602C35.0286 25.6342 34.8595 25.5952 34.8292 25.5692C34.8032 25.5475 34.7381 25.4174 34.6904 25.2787C34.556 24.9188 34.1268 24.2901 33.7626 23.9216C33.0602 23.2106 31.9113 22.5819 31.0485 22.4301C30.4935 22.3304 29.3966 22.3044 29.0497 22.3868ZM31.1482 23.5097C31.7899 23.6875 32.4099 24.082 32.9822 24.6847C33.355 25.0749 33.5978 25.4131 33.5978 25.5475C33.5978 25.6472 33.4808 25.6906 33.0992 25.7166C32.3578 25.7729 30.9531 26.2846 30.1293 26.7962C30.0773 26.8308 29.9905 26.7962 29.7391 26.6314C28.9283 26.1068 28.0221 25.8206 26.7388 25.6819C26.4396 25.6472 26.4266 25.6125 26.6217 25.2787C26.9252 24.7454 27.7273 24.0603 28.408 23.7525C28.6552 23.6398 29.1321 23.4967 29.4789 23.4317C29.7261 23.384 30.8924 23.4403 31.1482 23.5097ZM26.7128 26.8135C27.762 26.9479 28.4991 27.2167 29.1364 27.6936L29.4226 27.9061L29.4573 32.4412C29.4746 34.9386 29.4833 36.9894 29.4703 36.998C29.4616 37.0067 29.3098 36.9243 29.1321 36.8159C28.7375 36.5775 27.8054 36.1266 27.3328 35.9445C27.0943 35.8577 26.8645 35.8057 26.6 35.784C26.0147 35.7363 24.094 35.745 23.9249 35.797C23.8426 35.8231 23.6951 35.8534 23.5911 35.8664C23.3873 35.8968 22.9364 36.0702 21.7181 36.5905C21.2715 36.7769 20.8769 36.933 20.8379 36.933C20.7686 36.933 20.7642 36.5905 20.7642 32.4716V28.0102L21.1891 27.8367C22.6459 27.2384 23.7385 26.9392 25.0782 26.7745C25.4164 26.7311 26.2272 26.7528 26.7128 26.8135ZM35.809 26.8915C36.5158 27.039 37.6994 27.4032 38.5405 27.7283C38.909 27.8714 39.2472 28.0015 39.2949 28.0188C39.3643 28.0405 39.373 28.0752 39.347 28.2486C39.3339 28.357 39.3209 30.3774 39.3209 32.7317V37.0197L39.0521 36.9156C38.9004 36.8593 38.6446 36.7466 38.4755 36.6642C38.3107 36.5775 37.9769 36.4257 37.7384 36.326C37.4999 36.2263 37.0534 36.0268 36.7412 35.8838C35.8871 35.4892 35.692 35.4502 34.6601 35.4415L33.7929 35.4372L33.1296 35.6626C32.5139 35.8707 31.9589 36.1352 30.9054 36.7075L30.5759 36.8896L30.5499 34.8649C30.5325 33.7549 30.5195 31.7345 30.5195 30.3818V27.9234L30.745 27.7197C31.2262 27.2861 31.8982 27.039 33.3377 26.7701C33.3984 26.7615 33.858 26.7571 34.3566 26.7615C35.1457 26.7745 35.3364 26.7918 35.809 26.8915ZM41.0552 34.3489C41.0552 37.1758 41.0422 39.4954 41.0205 39.5084C40.9425 39.5561 39.3643 39.3913 39.1605 39.3133C39.0435 39.2699 39.0304 39.1529 39.1388 39.0748C39.2386 39.0011 39.1865 38.9534 38.844 38.819C38.5839 38.715 36.3293 38.0386 35.8957 37.9302C35.7874 37.9042 35.215 37.8695 34.6167 37.8565L33.5328 37.8348L32.592 38.0993C32.0717 38.2424 31.6208 38.3638 31.5861 38.3638C31.5557 38.3638 31.443 38.2727 31.3389 38.16L31.1525 37.9605L31.3389 37.7958C31.7335 37.4446 32.9865 36.933 33.6845 36.8419C34.3392 36.7552 35.7093 36.9373 36.6502 37.2365C36.8756 37.3102 37.3179 37.4793 37.6387 37.6094C38.7486 38.0776 39.9756 38.4461 40.2098 38.3898C40.2748 38.3724 40.3442 38.3117 40.3745 38.2424C40.4092 38.1557 40.4309 36.9677 40.4482 33.7246C40.4612 31.3053 40.4872 29.2979 40.5046 29.2675C40.5263 29.2372 40.639 29.2155 40.7994 29.2155H41.0552V34.3489ZM19.6413 33.5165C19.6456 37.7871 19.6586 38.3854 19.7627 38.4461C19.8494 38.5025 20.1962 38.3941 21.0807 38.0429C22.1126 37.6267 23.7949 37.0414 24.2718 36.9243C24.597 36.8463 24.74 36.8376 25.36 36.8593C25.98 36.8766 26.1405 36.8983 26.574 37.0154C27.6059 37.2972 27.9745 37.4403 28.8069 37.9085C29.1191 38.0819 29.5006 38.2727 29.661 38.3247C29.9429 38.4245 29.9559 38.4245 30.1596 38.3508C30.5802 38.199 30.836 38.2727 31.0398 38.6022C31.1222 38.741 31.1308 38.806 31.1178 39.2222C31.1048 39.7425 31.0051 40.0243 30.7363 40.3278L30.5975 40.4882L30.6452 40.9955C30.7233 41.8713 30.745 42.3959 30.7103 42.3959C30.6929 42.3959 30.6019 42.3439 30.5108 42.2832C30.1987 42.0664 29.8648 42.0751 29.5396 42.3049C29.4356 42.3786 29.3489 42.4176 29.3489 42.3959C29.3489 42.0448 29.4963 40.7441 29.5483 40.6313C29.6177 40.4926 29.6133 40.4839 29.4703 40.2845C29.3055 40.0547 29.0887 39.6948 29.0887 39.6515C29.0887 39.6341 29.1971 39.6211 29.3272 39.6211C29.5526 39.6211 29.5657 39.6254 29.5657 39.7295C29.5657 39.8206 29.5873 39.8379 29.6957 39.8379C29.8041 39.8379 29.8258 39.8206 29.8258 39.7295C29.8258 39.6601 29.8518 39.6211 29.8908 39.6211C29.9298 39.6211 29.9559 39.5821 29.9559 39.5127C29.9559 39.4433 29.9298 39.4043 29.8908 39.4043C29.8388 39.4043 29.8258 39.3436 29.8258 39.1008V38.7973H29.6437C29.4573 38.8017 29.4573 38.8017 29.2752 39.1225C29.1711 39.3003 29.0887 39.4824 29.0887 39.5214C29.0844 39.5647 29.002 39.4347 28.9023 39.2309L28.7202 38.8624L28.0178 38.5068C26.8125 37.8998 26.3009 37.7784 25.0522 37.8131C24.3672 37.8305 24.2198 37.8435 23.9943 37.9302C23.8512 37.9822 23.4437 38.0906 23.0838 38.173C22.286 38.3551 21.7658 38.5242 21.2888 38.767C20.7122 39.0531 20.7425 39.0748 21.679 39.0445C22.1386 39.0271 22.6936 38.9794 22.9884 38.9317C23.8252 38.7887 24.5146 38.7453 25.0392 38.7973C25.7676 38.871 26.8342 39.1095 26.8342 39.1962C26.8342 39.2266 26.548 39.2266 26.0451 39.2049C24.4279 39.1268 22.2037 39.1875 20.981 39.335C19.9838 39.4564 19.1123 39.5474 19.095 39.5257C19.082 39.5171 19.0603 37.2191 19.0473 34.427L19.0169 29.3455H19.3248H19.6369L19.6413 33.5165ZM36.893 38.9794L37.1748 39.0401L37.0013 39.0705C36.3337 39.1875 35.1153 39.2136 34.4867 39.1225C34.2482 39.0878 34.0401 39.0575 34.0227 39.0575C33.949 39.0575 33.9924 38.9664 34.0878 38.9274C34.2352 38.8624 36.5461 38.9101 36.893 38.9794ZM29.5657 39.2309C29.5657 39.387 29.557 39.4043 29.4529 39.4043H29.3445L29.4399 39.2309C29.4963 39.1355 29.544 39.0575 29.5526 39.0575C29.5613 39.0575 29.5657 39.1355 29.5657 39.2309Z" fill="black"/>
<path d="M24.5492 28.1055C23.6517 28.2573 22.0995 28.6605 21.8394 28.8166C21.7006 28.899 21.5662 29.2025 21.6096 29.3412C21.6226 29.3889 21.692 29.4886 21.7613 29.558C21.9218 29.7357 22.0605 29.7314 22.7022 29.5363C24.1546 29.0897 24.5449 29.0247 25.7719 29.0247C26.73 29.0247 27.1202 29.0724 27.7403 29.2632C27.9657 29.3325 28.1825 29.3802 28.2258 29.3672C28.4513 29.2935 28.5987 28.8339 28.46 28.6258C28.3386 28.435 27.8617 28.2833 26.9858 28.1532C26.3658 28.0578 24.9958 28.0318 24.5492 28.1055Z" fill="black"/>
<path d="M23.9726 30.5162C23.8903 30.5422 23.5564 30.5812 23.2356 30.6029C22.9147 30.6289 22.5809 30.6679 22.4985 30.6939C22.1733 30.7936 21.7614 31.0061 21.7398 31.0841C21.7138 31.1665 21.9002 31.5611 22.0042 31.6478C22.0476 31.6825 22.1993 31.6738 22.5505 31.6218C22.8194 31.5784 23.2052 31.5307 23.409 31.5134C23.6128 31.496 24.081 31.4483 24.4496 31.4093C24.8181 31.3703 25.3774 31.3399 25.6852 31.3443C26.2879 31.3529 27.3328 31.4657 27.8097 31.5784C28.1826 31.6608 28.265 31.6261 28.265 31.3746C28.265 31.2142 28.2433 31.1708 28.0438 30.9887C27.8574 30.8197 27.7707 30.7763 27.4715 30.6983C27.2764 30.6462 26.9903 30.5855 26.8342 30.5595C26.4483 30.4945 24.1677 30.4641 23.9726 30.5162Z" fill="black"/>
<path d="M24.428 33.1349C24.2372 33.1653 23.9294 33.2346 23.7473 33.2823C23.3614 33.3907 21.9653 33.9197 21.8222 34.0151C21.5794 34.1711 21.5274 34.583 21.7225 34.7911C21.8613 34.9429 22.026 34.9256 22.659 34.6958C24.0638 34.1885 24.2936 34.1148 24.6534 34.0454C24.9353 33.9934 25.1564 33.9804 25.4902 33.9977C26.275 34.0454 26.8126 34.1755 27.5974 34.5093C28.0526 34.7044 28.2217 34.7218 28.3474 34.583C28.5295 34.3879 28.5165 34.0541 28.3171 33.8676C28.148 33.7116 27.3893 33.3474 26.9644 33.2173C26.6305 33.1176 26.5091 33.1089 25.6853 33.0959C25.0783 33.0829 24.6578 33.0959 24.428 33.1349Z" fill="black"/>
<path d="M32.8823 28.1966C31.8374 28.3743 31.599 28.4654 31.534 28.7169C31.4949 28.8729 31.547 29.0984 31.651 29.2068C31.7681 29.3325 31.9328 29.3282 32.5051 29.1851C32.9517 29.068 33.0081 29.0637 34.118 29.0637C35.4057 29.0637 35.3667 29.0594 36.8712 29.4192C37.9854 29.688 38.2543 29.7184 38.3496 29.584C38.5274 29.3412 38.4884 28.8946 38.2803 28.7949C38.2196 28.7689 37.6646 28.6128 37.0446 28.4567C36.0561 28.2009 35.8436 28.1619 35.332 28.1272C34.2958 28.0665 33.55 28.0838 32.8823 28.1966Z" fill="black"/>
<path d="M33.2076 30.6506C32.7437 30.7069 32.2321 30.8153 31.9589 30.9194C31.6728 31.0278 31.5731 31.1969 31.6511 31.4223C31.7335 31.6608 31.8939 31.6955 32.3231 31.5611C32.9258 31.3703 33.4981 31.3183 34.8768 31.3226C36.2426 31.3313 36.3943 31.3443 37.3178 31.5351C37.9335 31.6608 38.1373 31.6565 38.2847 31.509C38.3757 31.418 38.3931 31.2099 38.3237 31.0798C38.276 30.9888 38.0939 30.9237 37.7774 30.889C37.6517 30.8717 37.4089 30.824 37.2355 30.7763C37.0577 30.733 36.6501 30.6766 36.3336 30.6506C35.6529 30.5942 33.6802 30.5986 33.2076 30.6506Z" fill="black"/>
<path d="M33.3812 33.3517C33.3682 33.3604 33.1774 33.3907 32.9563 33.4167C32.7352 33.4384 32.5011 33.4904 32.436 33.5251C32.371 33.5598 32.1716 33.6595 31.9851 33.7376C31.5993 33.9153 31.5429 33.9934 31.5689 34.3142C31.6079 34.7651 31.7944 34.8172 32.4404 34.5657C32.6615 34.479 33.0257 34.3446 33.2511 34.2579L33.663 34.1104L34.4435 34.1061C35.1675 34.1061 35.2672 34.1148 35.8309 34.2449C36.1647 34.3186 36.8151 34.5093 37.2703 34.6654C37.7299 34.8172 38.1461 34.9386 38.1982 34.9299C38.3412 34.9082 38.454 34.7261 38.4843 34.4746C38.5277 34.1018 38.4366 34.0194 37.6519 33.7029C37.201 33.5208 36.9538 33.4731 36.1994 33.4124C35.5707 33.3647 33.4159 33.317 33.3812 33.3517Z" fill="black"/>
<path d="M30.1075 38.9057C30.0468 38.9621 29.9991 39.0488 29.9991 39.1008C29.9991 39.2265 30.281 39.2265 30.3157 39.1008C30.3417 38.9968 30.4674 38.9837 30.5064 39.0835C30.5411 39.1745 30.4587 39.3133 30.2073 39.5994L29.9905 39.8379H30.4067C30.8229 39.8379 30.8229 39.8379 30.8229 39.7295C30.8229 39.6341 30.8056 39.6211 30.6712 39.6211C30.5888 39.6211 30.5194 39.6081 30.5194 39.5951C30.5194 39.5777 30.5801 39.4997 30.6495 39.4173C30.8143 39.2352 30.8229 39.0531 30.6712 38.9057C30.5238 38.754 30.255 38.754 30.1075 38.9057Z" fill="black"/>
<path d="M44.2853 23.501C43.9992 23.5964 42.6551 23.9563 41.2937 24.2988C38.9307 24.8884 38.818 24.9231 38.7053 25.0489C38.4928 25.2873 38.5796 25.6819 38.8874 25.8726C39.0478 25.968 39.1259 25.955 40.0147 25.7036C40.3572 25.6038 41.3544 25.348 42.2259 25.1356C44.0815 24.6803 44.8576 24.4722 45.1394 24.3508C45.3562 24.2598 45.4776 24.082 45.4776 23.8522C45.4776 23.5877 45.1958 23.3146 44.927 23.3233C44.862 23.3233 44.5715 23.4056 44.2853 23.501Z" fill="black"/>
<path d="M14.9547 23.4577C14.8766 23.514 14.7726 23.6094 14.7249 23.6745C14.5471 23.9129 14.7596 24.3075 15.1671 24.4852C15.2842 24.5329 15.8348 24.6933 16.3941 24.8364C17.6818 25.1703 19.6199 25.7036 20.1748 25.877C20.6821 26.0331 20.8859 26.0417 21.016 25.9203C21.3541 25.6038 21.3325 25.1096 20.9726 24.9361C20.8555 24.8754 20.1618 24.689 18.098 24.1644C17.3827 23.978 16.4462 23.7265 16.0169 23.5964C15.5877 23.4663 15.2061 23.3623 15.1671 23.3623C15.1281 23.3623 15.0327 23.4056 14.9547 23.4577Z" fill="black"/>
<path d="M44.0252 28.2052C43.635 28.2226 43.5136 28.3006 43.3749 28.6085C43.2838 28.8079 43.3228 28.938 43.5309 29.1678L43.6567 29.3065L44.6019 29.2935C45.6468 29.2805 45.6988 29.2675 45.8679 28.9857C46.0196 28.7385 45.9459 28.4741 45.6858 28.3136C45.5644 28.2399 45.4473 28.2226 44.9574 28.2052C44.6365 28.1966 44.216 28.1966 44.0252 28.2052Z" fill="black"/>
<path d="M14.4471 28.3006C14.2433 28.3353 14.1523 28.4003 14.0612 28.5694C13.9658 28.7559 13.9832 28.9857 14.1046 29.1071C14.2606 29.2631 14.4558 29.2935 15.4833 29.3152L16.4242 29.3369L16.5586 29.1634C16.68 29.016 16.6973 28.9683 16.6756 28.8122C16.6453 28.6041 16.5325 28.435 16.3591 28.3527C16.216 28.2789 14.7766 28.2399 14.4471 28.3006Z" fill="black"/>
<path d="M15.7564 33.7072C15.6133 33.7723 15.2838 33.9067 15.0193 34.0151C14.2736 34.3142 14.0915 34.4096 14.0394 34.5223C13.9701 34.6741 14.0221 34.8952 14.1782 35.0816C14.3603 35.3028 14.4903 35.2941 15.145 35.0209C15.4312 34.8952 15.8257 34.7478 16.0122 34.6914C16.372 34.5787 16.6452 34.3749 16.6452 34.2232C16.6452 34.0931 16.5064 33.8503 16.3677 33.7462C16.1596 33.5902 16.0468 33.5815 15.7564 33.7072Z" fill="black"/>
<path d="M43.6002 33.6422C43.4918 33.7072 43.353 34.0151 43.353 34.1842C43.353 34.414 43.4831 34.5223 44.0597 34.7608C44.8575 35.086 45.3778 35.2507 45.5122 35.2204C45.8721 35.138 46.1409 34.6047 45.9198 34.4053C45.8114 34.3056 45.3865 34.1191 44.6537 33.8546C43.9904 33.6119 43.7302 33.5598 43.6002 33.6422Z" fill="black"/>
<path d="M43.5829 38.4114C43.4094 38.5242 43.2664 38.7453 43.2664 38.91C43.2664 39.0054 43.3314 39.0965 43.5612 39.3176C43.8907 39.6341 44.5454 40.111 44.9269 40.3191C45.1524 40.4405 45.1914 40.4492 45.3085 40.4015C45.4949 40.3235 45.7377 40.033 45.7377 39.8899C45.7377 39.7555 45.5513 39.5561 45.2174 39.3263C45.109 39.2569 44.8185 39.0271 44.5714 38.8233C43.9297 38.2857 43.8387 38.2467 43.5829 38.4114Z" fill="black"/>
<path d="M15.93 38.4548C15.839 38.5068 15.6222 38.6499 15.4531 38.7713C15.2883 38.897 14.9935 39.1008 14.8027 39.2266C14.2868 39.5691 14.1741 39.6905 14.1741 39.8899C14.1741 40.0243 14.2044 40.085 14.3475 40.2281C14.6076 40.4882 14.729 40.4709 15.1843 40.124C15.3881 39.968 15.7523 39.7122 15.9994 39.5517C16.5804 39.1789 16.7321 39.0358 16.7321 38.871C16.7321 38.7236 16.589 38.4678 16.472 38.4071C16.3419 38.3377 16.1121 38.3594 15.93 38.4548Z" fill="black"/>
<path d="M39.8757 42.2615C39.7457 42.3656 39.6243 42.6041 39.6243 42.7645C39.6243 42.9292 39.7197 43.094 40.1576 43.675C40.6778 44.3643 40.8729 44.5941 41.0464 44.7025C41.1851 44.7892 41.1938 44.7892 41.3846 44.7155C41.61 44.6288 41.7921 44.3947 41.7921 44.1909C41.7921 44.0392 41.7227 43.9394 41.3239 43.5015C41.1678 43.3325 40.9076 43.0203 40.7429 42.8078C40.2876 42.2182 40.0925 42.0924 39.8757 42.2615Z" fill="black"/>
<path d="M19.8319 42.2659C19.7365 42.3049 19.4113 42.6387 18.7393 43.3931C18.1062 44.0999 18.1323 44.0522 18.2623 44.2733C18.4444 44.5811 18.5745 44.6938 18.7436 44.6938C18.943 44.6938 19.0774 44.5768 19.6281 43.9134C20.17 43.2587 20.4172 42.8989 20.4172 42.7558C20.4172 42.5954 20.3001 42.4003 20.144 42.3092C19.9923 42.2138 19.9619 42.2095 19.8319 42.2659Z" fill="black"/>
<path d="M23.6519 42.487C23.5045 42.604 23.4178 42.7731 23.1446 43.5059C22.8455 44.3123 22.5116 45.0797 22.1691 45.7301C22.0173 46.0249 21.8916 46.3154 21.8916 46.3804C21.8916 46.4498 21.935 46.5365 21.9913 46.5885C22.1084 46.6969 22.4249 46.8617 22.5159 46.8617C22.646 46.8617 22.8975 46.5799 23.0579 46.259C23.4828 45.4136 24.4497 43.0203 24.4497 42.8208C24.4497 42.4913 23.925 42.2745 23.6519 42.487Z" fill="black"/>
<path d="M35.8611 42.5087C35.8091 42.5433 35.7354 42.6344 35.6963 42.7081C35.5749 42.9466 35.6487 43.2067 36.338 44.9323C36.8019 46.0813 37.0621 46.6492 37.2095 46.8053C37.3179 46.9224 37.6084 46.9397 37.8035 46.84C37.9552 46.762 38.107 46.5755 38.107 46.4585C38.107 46.4108 37.9813 46.0986 37.8295 45.7604C37.5087 45.045 37.2442 44.3817 36.9624 43.5666C36.7239 42.8815 36.5678 42.5694 36.4161 42.4956C36.2643 42.4176 35.9782 42.4263 35.8611 42.5087Z" fill="black"/>
<path d="M26.6304 43.6489C26.3659 43.7703 26.3226 43.8917 26.2489 44.7025C26.1578 45.6824 26.1058 46.1116 26.0061 46.6796C25.9063 47.2389 25.9107 47.2562 26.2055 47.3863C26.4006 47.4774 26.6261 47.4904 26.7518 47.4253C26.8732 47.3603 26.9903 47.0958 27.0683 46.7316C27.168 46.2417 27.3111 44.8413 27.3111 44.3557C27.3111 43.8701 27.2504 43.74 26.9816 43.6273C26.8082 43.5536 26.8515 43.5536 26.6304 43.6489Z" fill="black"/>
<path d="M33.0993 43.6273C33.03 43.6576 32.9216 43.7356 32.8652 43.8007C32.7611 43.9134 32.7611 43.9134 32.7872 44.5941C32.8175 45.2965 32.9129 46.285 32.9866 46.6059C33.0646 46.9571 33.3421 47.1045 33.6673 46.9701C33.7584 46.931 33.8754 46.8617 33.9231 46.8183C34.0098 46.7359 34.0098 46.7186 33.9578 45.9642C33.9274 45.5393 33.8754 44.8933 33.8364 44.5247C33.767 43.8007 33.741 43.7356 33.4809 43.6273C33.3118 43.5535 33.2641 43.5535 33.0993 43.6273Z" fill="black"/>
<path d="M29.6739 46.1376L29.5004 46.2374L29.4614 48.8474C29.4267 51.3708 29.4267 51.4618 29.5048 51.5486C29.6825 51.7437 29.947 51.813 30.1421 51.7133C30.1941 51.6873 30.3025 51.6049 30.3806 51.5312L30.5193 51.3968V50.0094C30.5193 49.242 30.5063 48.08 30.489 47.4167L30.463 46.22L30.3025 46.129C30.0944 46.0119 29.8906 46.0162 29.6739 46.1376Z" fill="black"/>
</svg>
