<svg width="60" height="60" viewBox="0 0 60 60" fill="none" xmlns="http://www.w3.org/2000/svg">
<path d="M27.4848 10.0463C27.0728 10.0702 26.6899 10.1062 26.6435 10.1361C26.3534 10.3158 26.0923 10.5853 25.9472 10.8548C25.7732 11.1603 25.7732 11.1663 25.7732 12.1485C25.7732 13.2804 25.8254 13.4661 26.2199 13.8314C26.539 14.1309 26.9162 14.2687 27.2817 14.2267L27.5718 14.1908V14.4843V14.7837H27.3687C26.8001 14.7837 25.396 15.2329 24.2356 15.7899C22.0251 16.838 19.8029 18.7785 18.48 20.8029C16.6582 23.5998 15.8401 26.5645 16.0258 29.7328C16.1128 31.272 16.281 32.0805 16.7916 33.5C17.1804 34.566 17.2268 34.6738 17.7258 35.5662C18.3756 36.7461 18.8397 37.339 20.1742 38.6866C21.2418 39.7647 21.2766 39.8006 21.9496 40.2857C23.1449 41.1422 24.4213 41.819 25.6281 42.2262C27.2643 42.7772 28.4943 42.9629 30.2291 42.915C31.6912 42.8731 32.9561 42.6455 34.3022 42.1783C36.1356 41.5435 37.2728 40.9026 38.7813 39.6569C39.6458 38.9382 40.9281 37.5187 41.5431 36.5844C41.6591 36.4047 41.8506 36.1172 41.9724 35.9555C42.5062 35.2009 43.2663 33.4461 43.5274 32.392C44.0438 30.2538 44.0206 27.5048 43.4636 25.3367C43.1213 24.0011 42.6687 22.9111 41.8912 21.5695C41.2936 20.5334 40.638 19.605 40.0868 19.0241L39.7155 18.6288L39.9417 18.3413C40.0636 18.1856 40.1854 18.0179 40.2144 17.97C40.255 17.8921 40.2957 17.8921 40.5277 17.9879C40.6728 18.0418 40.8411 18.0718 40.9049 18.0538C40.9687 18.0299 41.1312 17.8442 41.2646 17.6406C41.4039 17.4369 41.7404 17.0237 42.0189 16.7302C42.2974 16.4308 42.5701 16.1073 42.6223 15.9995C42.7499 15.742 42.7383 15.3707 42.6049 15.0892C42.4714 14.8257 40.5568 12.951 40.0694 12.6156C39.2281 12.0287 38.4912 12.0946 38.0039 12.8073C37.7254 13.2265 37.4237 13.526 37.2902 13.526C37.1336 13.526 36.8551 13.7236 36.7622 13.8973C36.6462 14.101 36.6636 14.2806 36.8144 14.4603L36.9479 14.622L36.4315 15.1371C36.1472 15.4186 35.8803 15.6761 35.8339 15.7001C35.7759 15.73 35.5728 15.6761 35.2711 15.5444C34.5516 15.2269 33.7046 14.9634 33.0431 14.8556C32.4571 14.7538 32.4455 14.7478 32.4455 14.5921C32.4455 14.5082 32.4281 14.3944 32.4107 14.3405C32.3817 14.2567 32.4339 14.2447 32.7704 14.2447C33.2114 14.2447 33.5131 14.1309 33.8322 13.8494C34.1861 13.544 34.2441 13.3224 34.2441 12.2084C34.2441 11.3459 34.2267 11.1842 34.1223 10.9506C33.954 10.5673 33.6349 10.2499 33.2752 10.1122C32.9793 9.99836 32.8342 9.99237 30.6005 10.0044C29.3008 10.0103 27.9025 10.0283 27.4848 10.0463ZM27.2527 12.0407C27.2527 12.5857 27.2353 13.0529 27.2121 13.0768C27.1889 13.1008 27.1018 13.0948 27.009 13.0648L26.8465 13.0049L26.8291 12.1125C26.8117 11.2561 26.8175 11.2142 26.9394 11.1124C27.009 11.0525 27.1076 11.0165 27.1599 11.0225C27.2411 11.0405 27.2527 11.1782 27.2527 12.0407ZM28.4305 12.0766C28.4479 13.1966 28.4363 13.2265 28.123 13.1427C27.9779 13.1068 27.9779 13.0948 27.9779 12.4599C27.9779 12.1066 27.9954 11.6334 28.0186 11.4118L28.0534 11.0045L28.2332 11.0225L28.4131 11.0405L28.4305 12.0766ZM29.6489 11.7292C29.6605 12.1066 29.6489 12.5857 29.6315 12.7953L29.5909 13.1726L29.411 13.1547L29.2254 13.1367L29.208 12.0706L29.1964 11.0045L29.411 11.0225L29.6315 11.0405L29.6489 11.7292ZM30.8674 12.1066L30.879 13.1726L30.6643 13.1547C30.4496 13.1367 30.4438 13.1307 30.4032 12.8372C30.3858 12.6695 30.3626 12.1904 30.3626 11.7712L30.3568 11.0045L30.6063 11.0225L30.85 11.0405L30.8674 12.1066ZM32.051 11.9808C32.0336 13.1307 32.0278 13.1666 31.8131 13.1666C31.7145 13.1666 31.6332 13.1307 31.61 13.0708C31.5926 13.0169 31.5752 12.5498 31.5752 12.0227V11.0704H31.8247H32.0684L32.051 11.9808ZM33.0663 11.2022C33.1708 11.322 33.194 11.4537 33.2288 12.1365C33.2694 12.9151 33.2636 12.9391 33.136 13.0828C32.8226 13.4302 32.7356 13.2026 32.7356 11.9928C32.7356 11.1423 32.7414 11.0704 32.84 11.0704C32.8981 11.0704 33.0025 11.1303 33.0663 11.2022ZM39.2513 13.3823C39.524 13.5619 39.669 13.6937 40.6206 14.5981C41.4329 15.3767 41.5547 15.5024 41.5547 15.5863C41.5547 15.6282 41.4503 15.766 41.3168 15.8917C41.1892 16.0235 41.0441 16.2092 40.9977 16.299C40.9455 16.3948 40.8875 16.4607 40.8643 16.4487C40.8353 16.4367 40.5451 16.1672 40.2144 15.8498C39.8779 15.5324 39.2977 15.0113 38.9148 14.6939C38.5318 14.3765 38.2127 14.089 38.2011 14.059C38.1779 13.9991 38.8742 13.2265 38.9554 13.2265C38.9844 13.2265 39.112 13.2984 39.2513 13.3823ZM30.1015 14.2447C31.1343 14.2447 31.1691 14.2507 31.1691 14.3645C31.1691 14.4304 31.1343 14.5022 31.0994 14.5142C31.0588 14.5262 30.5366 14.5501 29.939 14.5561L28.8599 14.5741L28.8308 14.4064C28.8076 14.2207 28.8366 14.1668 28.9527 14.2148C28.9933 14.2327 29.5155 14.2447 30.1015 14.2447ZM38.3288 15.8258C38.6827 16.1373 39.1062 16.5326 39.2745 16.7122L39.5762 17.0297L39.2803 17.431C39.1236 17.6585 38.967 17.8382 38.9438 17.8382C38.9206 17.8382 38.7407 17.7065 38.5492 17.5507C38.2301 17.2812 37.9458 17.0896 37.1626 16.5865C36.6926 16.281 36.6926 16.305 37.18 15.754C37.4237 15.4845 37.6325 15.2629 37.6499 15.2629C37.6673 15.2629 37.9748 15.5144 38.3288 15.8258ZM31.8363 15.736C33.5827 16.0355 35.5554 16.826 36.9711 17.7963C38.7349 19.0061 40.023 20.4435 41.1486 22.4739C42.3728 24.6779 42.9472 27.1874 42.7847 29.607C42.6571 31.4816 42.1523 33.4341 41.5199 34.4882C41.4503 34.608 41.3168 34.8655 41.2182 35.0572C40.9513 35.6082 39.9882 36.8599 39.0598 37.8601C38.4912 38.471 37.0581 39.591 36.2342 40.0581C34.7547 40.8966 32.8284 41.5195 31.024 41.7411C30.3278 41.8249 28.7438 41.783 28.036 41.6572C26.2315 41.3338 24.7346 40.7589 23.3653 39.8605C22.1179 39.04 21.0155 38.0338 19.9015 36.6922C19.1705 35.7998 18.8571 35.3087 18.2305 34.027C17.5981 32.7333 17.395 32.0206 17.2152 30.4275C17.1049 29.4393 17.1049 27.6904 17.2152 26.9178C17.3892 25.7499 17.7548 24.5162 18.2653 23.4381C19.095 21.6653 19.7042 20.8089 21.1722 19.3355C22.0135 18.491 22.4892 18.1077 23.522 17.4549C25.0885 16.4667 27.1308 15.76 28.8482 15.6162C29.6779 15.5503 31.053 15.6042 31.8363 15.736Z" fill="black"/>
<path d="M29.0687 17.1854C25.6629 17.4549 22.5298 19.4014 20.5977 22.4499C19.2981 24.4982 18.6772 26.5764 18.6772 28.8883C18.6772 29.7567 18.7005 30.0202 18.8339 30.685C19.1298 32.1524 19.6172 33.3922 20.3656 34.5361C22.4196 37.6804 24.7114 39.4173 27.6298 40.0342C28.355 40.1899 28.5175 40.2019 29.8346 40.2019C31.3837 40.2079 31.7492 40.1599 32.9909 39.8126C33.6349 39.6329 34.6096 39.2436 35.213 38.9322C35.3987 38.8303 35.8745 38.5309 36.2748 38.2614C37.9052 37.1474 39.6168 34.9553 40.4755 32.8891C40.7424 32.2482 41.0731 30.8527 41.1485 30.0622C41.4386 27.0017 40.6263 24.1329 38.7465 21.5815C37.1683 19.4373 34.7257 17.8861 32.0683 17.3291C31.668 17.2453 30.1421 17.1075 29.8055 17.1315C29.7417 17.1315 29.411 17.1614 29.0687 17.1854ZM31.7318 18.491C33.8031 18.9282 35.6134 19.9165 37.0465 21.3898C38.642 23.0249 39.5065 24.6899 39.9417 26.9418C40.0519 27.5168 40.0751 27.8222 40.0751 28.7685C40.0751 29.9424 40.0403 30.2418 39.7792 31.3319C39.4137 32.8591 38.7523 34.1588 37.6441 35.5602C36.9537 36.4227 35.7294 37.4049 34.5864 37.9919C33.9018 38.3512 32.5673 38.8064 31.6912 38.9861C31.1342 39.1058 30.8441 39.1238 29.9216 39.1238C28.9468 39.1238 28.7322 39.0999 28.0881 38.9621C25.895 38.477 24.3806 37.6085 22.8083 35.9436C21.9554 35.0392 21.2127 33.9911 20.737 33.0208C20.0581 31.6194 19.6926 29.4453 19.8493 27.7803C20.0465 25.726 20.8704 23.6657 22.0888 22.1864C22.5936 21.5755 23.7076 20.5573 24.3516 20.1261C24.9899 19.6949 25.9414 19.1798 26.5448 18.9522C27.0554 18.7486 28.2332 18.4491 28.7496 18.3772C29.4168 18.2934 31.0762 18.3533 31.7318 18.491Z" fill="black"/>
<path d="M29.0335 19.8686C28.4591 20.0303 28.1864 20.168 27.7628 20.4974C27.055 21.0544 26.5908 21.7551 26.3819 22.5996C26.0396 23.9712 26.5618 25.6721 27.5946 26.5765C28.2618 27.1634 28.9812 27.4209 29.9502 27.4329C30.8089 27.4449 31.6908 27.1035 32.271 26.5465C32.6017 26.2291 33.0891 25.5164 33.2922 25.0612C33.6983 24.1448 33.6925 22.8572 33.2864 21.9228C32.9034 21.0544 32.0331 20.2399 31.1628 19.9344C30.6174 19.7428 29.6021 19.7128 29.0335 19.8686ZM31.0352 21.1023C31.5573 21.3659 31.8765 21.6653 32.1608 22.1504C32.4799 22.6955 32.5959 23.4082 32.4741 24.049C32.2826 25.0193 31.83 25.6541 31.0526 26.0374C30.6348 26.247 30.5942 26.253 29.9792 26.253C29.3468 26.253 29.3294 26.247 28.8768 26.0195C27.6874 25.4145 27.1536 24.2407 27.4031 22.7673C27.5191 22.0905 27.9137 21.5994 28.7492 21.1023C29.2075 20.8328 29.4628 20.7669 30.0082 20.8029C30.4492 20.8268 30.5594 20.8568 31.0352 21.1023Z" fill="black"/>
<path d="M29.6372 21.3659C29.4747 21.5515 29.4225 21.8929 29.4631 22.4978C29.4979 23.0009 29.4921 23.0668 29.3819 23.1866C28.999 23.6238 29.086 24.2167 29.585 24.4563C29.9911 24.6599 30.5597 24.4144 30.7454 23.9652C30.8498 23.7016 30.8034 23.486 30.5829 23.1746C30.4205 22.941 30.4147 22.9051 30.4147 22.2463V21.5635L30.2348 21.4078C30.0259 21.2221 29.7764 21.2042 29.6372 21.3659Z" fill="black"/>
<path d="M24.9204 21.5216C24.7405 21.7072 24.7173 21.7611 24.7463 21.9528C24.7927 22.2463 25.048 22.5098 25.2743 22.5098C25.489 22.5098 25.7965 22.3301 25.8893 22.1504C25.9879 21.9588 25.9067 21.6953 25.6804 21.4916C25.4019 21.2401 25.1815 21.252 24.9204 21.5216Z" fill="black"/>
<path d="M34.2382 21.4856C33.9945 21.7432 34.0061 22.0187 34.273 22.2642C34.5573 22.5158 34.7604 22.5098 34.9924 22.2403C35.1897 22.0067 35.2129 21.8809 35.1027 21.6414C34.9518 21.294 34.5051 21.2161 34.2382 21.4856Z" fill="black"/>
<path d="M36.8433 24.6359C36.5938 24.7857 36.3676 24.9653 36.327 25.0312C36.1993 25.2828 36.53 25.7439 36.8375 25.7439C37.0464 25.7439 37.6324 25.4145 37.8065 25.2049C38.0502 24.8995 37.9863 24.6 37.6382 24.4503C37.3597 24.3305 37.3423 24.3365 36.8433 24.6359Z" fill="black"/>
<path d="M22.1294 24.618C21.8219 24.9654 21.9612 25.3247 22.5298 25.6182C23.1506 25.9356 23.5683 25.8158 23.5683 25.3127C23.5683 25.0612 23.3943 24.8755 22.9243 24.63C22.5704 24.4443 22.2919 24.4443 22.1294 24.618Z" fill="black"/>
<path d="M29.3648 28.3732C29.0225 28.5948 28.8658 28.8044 28.7556 29.2057C28.6395 29.601 28.6802 29.9124 28.8832 30.2778C29.1733 30.7868 29.6723 31.0204 30.1829 30.8947C31.1228 30.6611 31.5522 29.7088 31.0822 28.8823C30.7109 28.2295 29.9334 27.9959 29.3648 28.3732ZM30.1829 29.2177C30.4092 29.4513 30.2699 29.8765 29.9624 29.8765C29.6317 29.8765 29.4924 29.4992 29.7303 29.2356C29.8812 29.0679 30.032 29.062 30.1829 29.2177Z" fill="black"/>
<path d="M21.3347 28.6008C21.2709 28.6188 21.149 28.7026 21.062 28.7865C20.8531 28.9841 20.8473 29.2297 21.0446 29.4273C21.1722 29.565 21.2245 29.577 21.7525 29.577C22.3907 29.577 22.5473 29.5111 22.6112 29.2297C22.6634 28.9721 22.5531 28.7445 22.3211 28.6487C22.1296 28.5649 21.5842 28.5409 21.3347 28.6008Z" fill="black"/>
<path d="M37.4699 28.7445C37.2958 28.9542 37.2842 29.038 37.4061 29.2716C37.5163 29.4992 37.5801 29.5172 38.2067 29.5172C38.7811 29.5172 38.8102 29.5052 38.961 29.2776C39.1061 29.062 39.0886 28.8284 38.9088 28.6847C38.7753 28.5768 38.6709 28.5589 38.1893 28.5589C37.6265 28.5589 37.6207 28.5589 37.4699 28.7445Z" fill="black"/>
<path d="M36.5127 32.0865C36.1529 32.4339 36.3444 32.8352 37.0348 33.1945C37.4352 33.3982 37.5222 33.3922 37.7601 33.1466C38.0038 32.8951 38.0096 32.7034 37.8007 32.4818C37.644 32.3201 36.9014 31.9128 36.7621 31.9128C36.7215 31.9128 36.6113 31.9907 36.5127 32.0865Z" fill="black"/>
<path d="M22.6054 32.2422C21.9904 32.6255 21.8801 32.8711 22.1876 33.2125C22.3559 33.3981 22.53 33.3862 22.9361 33.1646C23.3364 32.943 23.4409 32.8352 23.4873 32.5836C23.5163 32.4279 23.4931 32.368 23.348 32.2123C23.2494 32.1165 23.1218 32.0326 23.0637 32.0326C22.9999 32.0326 22.7968 32.1284 22.6054 32.2422Z" fill="black"/>
<path d="M33.8612 35.123C33.6117 35.3926 33.6117 35.5423 33.867 35.8837C34.1107 36.2131 34.2267 36.2849 34.4936 36.2849C34.6503 36.2849 34.7373 36.237 34.8766 36.0753C35.1144 35.7938 35.1028 35.6201 34.8417 35.3207C34.4356 34.8535 34.1571 34.7996 33.8612 35.123Z" fill="black"/>
<path d="M25.3091 35.153C24.8508 35.4345 24.7812 35.7519 25.1003 36.0813C25.3846 36.3748 25.5993 36.3628 25.9242 36.0214C26.3013 35.6381 26.2549 35.3446 25.7907 35.0931C25.6167 35.0032 25.5412 35.0092 25.3091 35.153Z" fill="black"/>
<path d="M29.6606 36.3388C29.4866 36.5125 29.4866 36.5245 29.4866 37.1953C29.4866 37.8002 29.4982 37.896 29.6026 38.0098C29.8695 38.3033 30.2466 38.2314 30.3917 37.8661C30.4613 37.6924 30.4729 37.5187 30.4381 37.0575C30.3975 36.4167 30.3279 36.2849 29.9913 36.2011C29.8579 36.1711 29.7941 36.1951 29.6606 36.3388Z" fill="black"/>
<path d="M20.0928 21.1443C19.9884 21.3958 19.9884 21.4018 20.1044 21.5336C20.3423 21.8031 20.528 21.7671 20.702 21.4198C20.7774 21.27 20.7774 21.2281 20.6962 21.0724C20.6208 20.9227 20.5686 20.8927 20.4003 20.8927C20.2204 20.8927 20.1856 20.9167 20.0928 21.1443Z" fill="black"/>
<path d="M18.213 24.612C18.0795 24.8216 17.8707 25.4984 17.8939 25.6481C17.9055 25.7499 17.9577 25.7799 18.1666 25.7919C18.4973 25.8158 18.5843 25.726 18.7526 25.175C18.9092 24.6539 18.8802 24.5701 18.5089 24.5102C18.3348 24.4802 18.2884 24.4922 18.213 24.612Z" fill="black"/>
<path d="M33.3736 43.7714C32.8166 43.7954 32.1262 43.8493 31.8361 43.8792C30.7743 44.011 29.2252 44.023 28.0068 43.9212C27.3569 43.8673 25.9006 43.8134 24.6996 43.7954C22.3788 43.7595 22.3904 43.7595 22.1583 44.0829C22.0539 44.2266 22.0539 44.2625 22.1177 44.4302C22.2685 44.8016 22.4194 44.8315 24.2644 44.8675C25.1754 44.8854 26.9218 44.9273 28.1518 44.9633C29.7648 45.0112 30.8033 45.0112 31.8941 44.9693C32.7238 44.9333 34.2265 44.8794 35.2303 44.8555C37.2088 44.8016 37.3248 44.7836 37.5279 44.4602C37.6497 44.2685 37.5859 43.9751 37.3886 43.8433C37.2552 43.7535 37.0521 43.7415 35.8105 43.7355C35.0272 43.7295 33.9306 43.7475 33.3736 43.7714Z" fill="black"/>
<path d="M38.4563 43.9571C38.2532 44.2027 38.2532 44.4841 38.4563 44.6938C38.5433 44.7836 38.6767 44.8495 38.7638 44.8495C38.9784 44.8495 39.2801 44.6399 39.3266 44.4602C39.3846 44.2206 39.3034 44.017 39.1003 43.8912C38.8276 43.7175 38.6361 43.7355 38.4563 43.9571Z" fill="black"/>
<path d="M40.4465 43.8613C40.1506 44.023 40.1216 44.4482 40.3769 44.7417C40.5162 44.9034 40.8643 44.8794 41.0499 44.7058C41.3516 44.4123 41.3052 44.041 40.9455 43.8613C40.7134 43.7535 40.6438 43.7535 40.4465 43.8613Z" fill="black"/>
<path d="M18.9966 43.9331C18.898 43.9751 18.7529 44.2745 18.7529 44.4482C18.7529 44.6698 18.9792 44.8495 19.2577 44.8495C19.455 44.8495 19.5246 44.8136 19.6464 44.6638C19.7277 44.562 19.7973 44.4302 19.7973 44.3704C19.7973 44.3105 19.7277 44.1787 19.6464 44.0769C19.5304 43.9272 19.455 43.8912 19.2867 43.8972C19.1649 43.8972 19.0372 43.9152 18.9966 43.9331Z" fill="black"/>
<path d="M20.7547 43.9631C20.5922 44.0529 20.4355 44.2625 20.4355 44.3883C20.4355 44.4482 20.511 44.58 20.6038 44.6758C20.8243 44.8974 21.0622 44.9034 21.271 44.6938C21.6424 44.3045 21.2188 43.6995 20.7547 43.9631Z" fill="black"/>
</svg>
