<?xml version="1.0" standalone="no"?>
<!DOCTYPE svg PUBLIC "-//W3C//DTD SVG 20010904//EN"
 "http://www.w3.org/TR/2001/REC-SVG-20010904/DTD/svg10.dtd">
<svg version="1.0" xmlns="http://www.w3.org/2000/svg"
 width="1024.000000pt" height="1024.000000pt" viewBox="0 0 1024.000000 1024.000000"
 preserveAspectRatio="xMidYMid meet">

<g transform="translate(0.000000,1024.000000) scale(0.100000,-0.100000)"
fill="#000000" stroke="none">
<path d="M4755 9310 c-168 -11 -394 -57 -565 -115 -159 -54 -384 -162 -490
-233 -211 -144 -365 -373 -435 -650 -39 -153 -45 -234 -45 -530 l1 -273 -58
-38 c-32 -21 -72 -54 -90 -72 -50 -53 -92 -157 -101 -250 -20 -204 31 -345
177 -489 105 -103 198 -157 290 -166 l61 -7 -5 -395 -4 -395 -37 -56 c-21 -31
-51 -92 -68 -135 l-31 -80 -125 -71 c-69 -40 -192 -109 -275 -155 -210 -116
-578 -371 -713 -494 -32 -29 -93 -83 -137 -120 -122 -104 -183 -164 -190 -186
-8 -26 39 -113 83 -151 l33 -29 28 20 c16 11 62 50 102 88 283 259 632 503
950 663 109 54 203 99 208 99 5 0 12 -33 16 -72 22 -243 75 -556 121 -718 101
-354 298 -750 374 -750 25 0 84 45 170 131 147 145 320 282 379 299 42 12 61
-8 96 -99 15 -40 50 -102 76 -137 27 -35 46 -70 44 -77 -2 -6 -13 -84 -25
-172 -11 -88 -31 -232 -45 -320 -14 -88 -34 -216 -44 -285 -20 -127 -66 -413
-101 -620 -32 -187 -102 -719 -129 -975 -7 -60 -17 -143 -23 -183 -6 -40 -9
-75 -6 -77 7 -7 1478 -8 1485 -1 4 3 -1 50 -11 104 -9 53 -35 225 -56 382 -22
157 -51 353 -65 435 -14 83 -36 224 -50 315 -14 91 -41 266 -61 390 -19 124
-55 365 -79 535 -25 171 -53 350 -63 399 l-19 89 32 42 c18 23 53 82 79 132
58 112 73 127 111 113 51 -20 192 -117 275 -191 148 -132 244 -211 277 -227
32 -15 34 -15 58 8 25 23 146 254 187 355 164 406 236 683 244 935 5 168 13
252 24 269 6 11 27 3 96 -37 49 -28 148 -83 219 -123 292 -162 615 -397 850
-620 90 -85 122 -109 145 -109 25 0 99 79 109 117 15 53 0 78 -117 191 -241
233 -367 335 -627 502 -219 142 -300 190 -509 302 -150 80 -196 112 -196 132
0 18 -57 134 -90 181 l-30 44 0 389 0 390 33 6 c45 8 180 75 241 119 62 45
119 114 180 221 41 73 50 98 60 174 18 126 5 225 -39 317 -42 89 -123 169
-187 186 l-43 12 0 346 0 346 -28 100 c-35 126 -128 317 -204 420 -182 245
-484 429 -878 535 -175 47 -531 69 -820 50z m490 -191 c148 -16 265 -38 358
-68 48 -15 90 -31 94 -34 3 -4 -26 -7 -65 -7 -39 0 -120 -7 -179 -15 -59 -8
-155 -19 -213 -25 -58 -6 -134 -18 -170 -26 -36 -8 -106 -23 -156 -34 -200
-43 -530 -81 -765 -87 -219 -6 -279 -2 -279 16 0 5 35 27 78 49 242 126 552
213 857 242 100 9 302 5 440 -11z m669 -456 c13 -27 49 -82 80 -123 72 -98
133 -222 153 -313 11 -49 16 -127 17 -248 l1 -176 53 -58 c77 -84 85 -104 72
-173 -6 -31 -15 -174 -20 -317 -25 -701 -42 -934 -81 -1151 -28 -157 -43 -205
-151 -492 -68 -180 -213 -380 -365 -502 -241 -194 -433 -270 -685 -270 -250 0
-451 62 -643 198 -122 86 -274 262 -340 392 -27 55 -124 283 -163 385 -36 95
-122 392 -131 456 -16 109 -40 585 -49 969 -6 226 -12 342 -21 357 -17 32 12
84 86 154 l59 57 0 158 c0 130 4 174 22 242 12 46 27 94 34 107 7 12 27 49 45
81 17 33 57 88 88 123 31 35 54 70 51 77 -9 23 11 25 91 10 142 -27 358 -39
564 -32 222 7 336 20 692 77 255 41 369 55 464 58 l53 1 24 -47z m-2143 -45
l39 -11 -33 -41 c-148 -182 -237 -314 -314 -466 l-54 -105 6 70 c10 127 46
286 82 364 25 57 50 92 98 139 70 68 95 75 176 50z m-332 -1296 c11 -20 19
-567 9 -578 -12 -12 -99 27 -137 61 -43 39 -96 142 -112 216 -14 67 -4 155 22
194 29 41 95 90 149 108 57 20 58 20 69 -1z m3150 -22 c96 -49 140 -115 141
-210 0 -104 -41 -212 -102 -270 -27 -26 -94 -65 -126 -75 l-23 -7 3 279 c2
153 7 284 11 291 12 18 52 15 96 -8z m-2939 -1835 c0 -43 69 -196 130 -288
121 -184 281 -329 505 -462 110 -65 172 -91 345 -146 74 -23 137 -44 139 -46
8 -5 -29 -29 -154 -99 -166 -93 -345 -219 -555 -389 -98 -80 -181 -145 -184
-145 -12 0 -89 166 -123 264 -38 109 -107 341 -122 409 -5 23 -22 132 -38 242
-45 323 -37 565 24 663 14 23 33 22 33 -3z m2687 -105 c46 -209 9 -609 -86
-930 -60 -204 -190 -550 -206 -550 -3 0 -88 69 -188 153 -204 171 -355 274
-532 365 -137 71 -181 102 -173 124 4 8 59 29 139 52 198 56 301 99 426 177
125 78 281 211 346 295 141 185 200 288 222 388 5 25 8 27 21 15 8 -8 22 -48
31 -89z m-1298 -1104 c15 -8 44 -33 64 -55 32 -36 37 -48 37 -90 0 -41 -6 -57
-39 -100 -58 -78 -94 -101 -158 -101 -62 0 -95 15 -139 62 -100 105 -83 201
46 265 73 36 142 43 189 19z"/>
<path d="M4080 8294 c-36 -31 -60 -73 -60 -106 0 -15 32 -55 102 -125 l101
-101 -39 -17 c-58 -24 -102 -72 -119 -129 -21 -69 -19 -103 9 -161 57 -122
169 -164 296 -112 69 28 114 84 131 164 7 32 13 59 15 61 1 2 17 -4 36 -14 45
-24 131 -22 188 3 110 49 143 107 138 247 -3 82 -5 89 -25 97 -19 7 -33 -1
-83 -45 -85 -76 -110 -85 -165 -58 -51 24 -160 101 -260 182 -113 91 -187 140
-211 140 -12 0 -36 -12 -54 -26z"/>
<path d="M5709 8259 c-52 -34 -119 -83 -149 -109 -86 -73 -238 -170 -268 -170
-5 0 -38 26 -73 58 -35 33 -75 65 -88 72 -22 11 -27 10 -44 -11 -16 -20 -17
-33 -12 -98 12 -143 36 -193 111 -237 66 -39 142 -41 230 -7 10 4 14 -3 14
-29 0 -72 112 -188 197 -204 88 -17 201 36 237 111 25 50 32 127 16 183 -14
53 -70 117 -116 134 -19 6 -34 17 -34 24 0 7 26 34 57 60 139 119 135 114 128
153 -13 71 -55 131 -90 131 -13 0 -65 -28 -116 -61z"/>
<path d="M4915 7601 c-101 -26 -211 -105 -245 -176 -26 -53 -22 -90 13 -143
19 -29 26 -33 56 -28 19 3 58 21 85 40 119 80 175 87 252 31 71 -50 97 -64
140 -70 37 -6 40 -5 67 36 19 31 27 56 27 88 0 43 -4 49 -69 112 -87 84 -145
113 -231 116 -36 1 -78 -2 -95 -6z"/>
<path d="M4875 7134 c-199 -41 -265 -73 -370 -178 -196 -198 -279 -476 -270
-906 4 -161 15 -214 66 -311 67 -128 182 -213 349 -258 151 -40 422 -46 596
-12 141 27 269 104 357 212 99 124 123 227 114 499 -7 207 -24 323 -68 455
-83 248 -274 439 -491 490 -58 13 -233 19 -283 9z m240 -228 c108 -28 178 -81
254 -191 29 -42 51 -79 48 -82 -3 -3 -34 5 -69 18 -59 22 -80 23 -343 27 -244
3 -293 1 -377 -16 -54 -10 -98 -15 -98 -10 0 22 55 100 101 143 109 102 328
153 484 111z m-191 -751 l59 -24 41 22 c33 18 58 22 131 22 79 0 97 -3 147
-28 94 -48 187 -165 188 -238 0 -34 -51 -101 -105 -137 -50 -33 -108 -46 -279
-62 -124 -12 -366 0 -451 22 -80 20 -185 118 -185 172 0 35 43 122 78 159 102
108 250 144 376 92z"/>
<path d="M5030 5265 c41 -8 98 -17 125 -20 l50 -5 -45 16 c-25 8 -81 17 -125
19 l-80 4 75 -14z"/>
<path d="M4893 5263 c9 -2 25 -2 35 0 9 3 1 5 -18 5 -19 0 -27 -2 -17 -5z"/>
<path d="M4470 5106 c0 -3 9 -10 20 -16 11 -6 20 -8 20 -6 0 3 -9 10 -20 16
-11 6 -20 8 -20 6z"/>
<path d="M7513 8761 c-51 -32 -423 -372 -423 -388 0 -2 6 -19 14 -37 16 -39
64 -76 98 -76 13 0 62 26 109 58 153 105 396 290 403 307 38 100 -103 195
-201 136z"/>
<path d="M2295 8751 c-62 -38 -90 -93 -73 -142 15 -44 456 -363 518 -375 35
-7 92 24 106 58 23 55 2 82 -248 303 -206 183 -236 198 -303 156z"/>
<path d="M1849 8303 c-49 -47 -65 -102 -43 -145 18 -35 132 -91 474 -235 262
-110 322 -133 349 -133 30 0 88 56 101 96 10 28 9 39 -3 58 -13 19 -449 256
-471 256 -4 0 -57 24 -119 54 -120 57 -195 86 -228 86 -11 0 -38 -17 -60 -37z"/>
<path d="M7940 8323 c-34 -13 -396 -196 -530 -267 -216 -116 -229 -129 -196
-195 31 -59 89 -78 169 -54 142 40 626 231 680 267 17 12 39 35 50 53 16 27
17 38 7 75 -22 83 -116 145 -180 121z"/>
<path d="M1794 7671 c-37 -23 -70 -73 -79 -121 -5 -27 -1 -43 17 -70 39 -58
67 -66 263 -74 97 -4 231 -14 298 -21 216 -26 279 -18 305 40 24 53 7 106 -43
130 -73 34 -290 84 -447 104 -281 34 -279 34 -314 12z"/>
<path d="M7915 7673 c-183 -23 -501 -98 -556 -130 -52 -31 -62 -86 -24 -131
44 -53 70 -57 239 -43 359 29 511 47 543 64 81 43 82 154 4 220 -29 24 -40 27
-104 26 -40 -1 -85 -4 -102 -6z"/>
<path d="M7471 7170 c-49 -12 -66 -34 -66 -85 0 -58 29 -88 114 -116 36 -12
122 -44 190 -70 156 -61 187 -63 243 -11 35 33 41 45 46 90 7 78 -20 100 -174
140 -185 49 -297 65 -353 52z"/>
<path d="M2185 7121 c-184 -32 -218 -42 -252 -73 -65 -61 -10 -198 79 -198 69
0 456 131 488 165 26 28 30 90 7 112 -27 27 -137 25 -322 -6z"/>
<path d="M7219 6683 c-41 -46 -47 -133 -13 -181 33 -47 319 -247 376 -262 55
-15 105 10 137 69 35 64 34 121 -4 161 -34 35 -138 94 -302 169 -133 62 -171
71 -194 44z"/>
<path d="M2455 6594 c-250 -100 -297 -148 -264 -267 14 -52 63 -105 104 -113
39 -7 72 8 171 82 40 29 113 78 163 109 108 67 130 97 112 156 -15 49 -66 89
-112 89 -19 -1 -97 -26 -174 -56z"/>
</g>
</svg>
