<svg width="60" height="60" viewBox="0 0 60 60" fill="none" xmlns="http://www.w3.org/2000/svg">
<path d="M28.3239 9.02843C25.3886 9.28143 23.1149 9.90843 20.5132 11.1899C18.9566 11.9544 18.056 12.5319 16.6161 13.7034C14.8483 15.1389 13.2806 16.9594 11.9909 19.0824C10.829 20.9854 9.92839 23.2129 9.51145 25.2149C9.12786 27.0298 9 28.2508 9 30.0988C9 32.0568 9.11674 33.2338 9.47809 34.7408C10.4232 38.7228 12.3522 42.1658 15.2319 45.0148C16.8774 46.6483 18.712 47.9243 20.9246 48.9802C22.3866 49.6732 23.6764 50.1077 25.5165 50.5202C27.0842 50.8777 27.8569 50.9602 29.7971 50.9932C32.0653 51.0317 33.0492 50.9162 35.1617 50.3772C36.9296 49.9207 38.2805 49.4202 39.6369 48.7162C41.477 47.7593 42.5722 47.0223 43.9731 45.8068C46.8306 43.3208 49.2933 39.3663 50.2884 35.6648C50.8388 33.5968 51 32.3428 51 29.9998C51 27.8383 50.9222 27.0958 50.4774 25.1324C49.5602 21.0514 47.3365 17.2509 44.1733 14.3634C41.8884 12.2789 38.803 10.5849 35.8567 9.79843C33.5662 9.18243 32.0486 8.98443 29.7693 9.00093C29.0966 9.00643 28.4462 9.01743 28.3239 9.02843ZM31.4371 10.6949C33.8164 10.9314 34.8282 11.1349 36.7517 11.7839C38.5696 12.3999 41.0768 13.8244 42.4165 15.0069C44.012 16.4149 44.9349 17.4379 45.9967 18.9889C47.809 21.6234 48.9042 24.5439 49.2878 27.7723C49.4101 28.8228 49.4101 31.1218 49.2878 32.1723C48.9987 34.6418 48.2815 36.9463 47.1308 39.1298C46.3636 40.5873 45.513 41.8248 44.429 43.0843C43.0225 44.7123 40.7488 46.3953 38.4973 47.4898C36.7684 48.3257 34.3946 49.0352 32.3821 49.3157C31.1035 49.4917 28.991 49.4917 27.7124 49.3157C22.4867 48.5842 17.8948 46.0653 14.9206 42.2923C13.3862 40.3453 12.1021 37.9198 11.4349 35.7198C11.1681 34.8453 10.8012 33.0468 10.7011 32.0898C10.5955 31.1163 10.5788 28.9603 10.6678 28.0473C10.8679 26.0839 11.3682 24.1149 12.0909 22.4319C12.4356 21.6454 13.1416 20.2594 13.5419 19.6049C15.3653 16.6129 18.5396 13.8134 21.7807 12.3394C22.4645 12.0259 24.0544 11.4484 24.6826 11.2779C25.8389 10.9754 27.4567 10.7169 28.4629 10.6784C29.4691 10.6399 30.9756 10.6454 31.4371 10.6949Z" fill="black"/>
<path d="M32.2154 11.4099C32.0765 11.5529 32.0487 11.6299 32.032 11.9324C31.9875 12.5814 32.0876 12.7299 32.5712 12.7299C33.066 12.7299 33.1049 12.6804 33.1049 12.0424C33.1049 11.5254 33.0994 11.5034 32.9493 11.3769C32.7213 11.1844 32.4211 11.1954 32.2154 11.4099Z" fill="black"/>
<path d="M34.7893 12.5429C34.3834 12.8894 34.3 12.9939 34.3 13.1479C34.3 13.3349 34.717 13.7749 34.9004 13.7749C35.1506 13.7749 35.7454 13.0269 35.7454 12.7189C35.7454 12.4934 35.5231 12.2899 35.2785 12.2899C35.1228 12.2899 35.0172 12.3449 34.7893 12.5429Z" fill="black"/>
<path d="M29.6137 12.4989C29.4303 12.6859 29.4247 12.8564 29.5804 13.1149C29.7694 13.4229 30.0752 13.7694 30.1863 13.8024C30.3476 13.8519 30.6144 13.6869 30.7756 13.4339C30.9202 13.2084 30.9202 13.2029 30.8257 13.0214C30.7701 12.9224 30.6033 12.7244 30.4588 12.5924C30.1252 12.2844 29.8528 12.2514 29.6137 12.4989Z" fill="black"/>
<path d="M32.2043 13.3349C31.615 13.4559 30.9423 13.9399 30.6977 14.4129C30.1918 15.4029 30.6032 16.7229 31.5816 17.2399C31.8818 17.3939 32.0097 17.4324 32.3877 17.4489C33.2272 17.4929 33.8053 17.2124 34.2556 16.5469C34.7282 15.8484 34.8004 15.1444 34.4724 14.4514C34.1 13.6814 33.0437 13.1589 32.2043 13.3349Z" fill="black"/>
<path d="M28.7575 14.8584C28.3851 14.9299 28.2239 15.4359 28.4796 15.7329C28.6019 15.8704 28.6519 15.8869 29.0967 15.9089C29.5358 15.9309 29.5914 15.9254 29.7082 15.8099C29.9639 15.5789 29.9194 15.0509 29.6303 14.9024C29.4802 14.8254 29.0466 14.8034 28.7575 14.8584Z" fill="black"/>
<path d="M35.5954 14.8749C35.462 14.9299 35.3008 15.1939 35.3008 15.3534C35.3008 15.4084 35.3508 15.5569 35.412 15.6834L35.5176 15.9199H35.84C36.4682 15.9144 36.7517 15.7824 36.8351 15.4469C36.9352 15.0564 36.6406 14.8199 36.0791 14.8254C35.8789 14.8254 35.6621 14.8474 35.5954 14.8749Z" fill="black"/>
<path d="M19.8072 15.0069C19.229 15.1939 18.7231 15.6394 18.4674 16.1839C18.2728 16.6019 18.2673 17.3279 18.4452 17.7899C18.6119 18.2079 18.9955 18.6259 19.4013 18.8294C20.5688 19.4014 21.7029 19.0274 22.2977 17.8669C22.47 17.5204 22.4867 17.4544 22.4867 16.9979C22.4867 16.5634 22.4645 16.4589 22.3366 16.1949C22.1309 15.7824 21.6806 15.3479 21.2359 15.1389C20.8078 14.9354 20.2019 14.8804 19.8072 15.0069Z" fill="black"/>
<path d="M34.6227 17.2234C34.2891 17.5754 34.2669 17.6524 34.4448 17.9054C34.6449 18.1914 34.984 18.4939 35.1619 18.5379C35.3454 18.5819 35.5566 18.4444 35.6734 18.2024C35.7567 18.0264 35.7567 17.9934 35.6789 17.8284C35.6289 17.7349 35.4732 17.5094 35.3342 17.3334C35.0229 16.9539 34.9062 16.9374 34.6227 17.2234Z" fill="black"/>
<path d="M29.8025 17.4544C29.519 17.7734 29.4634 17.8669 29.4634 18.0374C29.4634 18.3234 29.7302 18.5874 29.9693 18.5379C30.2695 18.4829 30.9088 17.8944 30.9088 17.6854C30.9088 17.6304 30.8532 17.5149 30.7865 17.4269C30.4084 16.9484 30.2472 16.9539 29.8025 17.4544Z" fill="black"/>
<path d="M32.3933 18.1199C32.1098 18.2024 32.0764 18.2684 32.0764 18.7084C32.0764 19.3409 32.2376 19.6049 32.6212 19.6049C32.977 19.6049 33.166 19.2309 33.1216 18.5929C33.1104 18.3784 33.0771 18.3014 32.9659 18.2244C32.788 18.1034 32.5879 18.0649 32.3933 18.1199Z" fill="black"/>
<path d="M18.929 19.6819C18.5788 19.7699 18.1396 19.9899 17.6949 20.2979C17.1334 20.6939 16.7387 21.3869 16.6219 22.1789C16.5385 22.7454 16.6108 26.8099 16.7109 27.2224C16.8943 27.9704 17.4169 28.6579 17.9951 28.9164C18.4565 29.1199 18.929 29.1804 20.43 29.2244C21.7086 29.2574 21.7753 29.2629 22.0033 29.3949C22.2924 29.5544 22.2646 29.5049 22.8761 30.9623C23.4098 32.2383 24.5772 34.6253 24.844 34.9883C25.0942 35.3293 25.4556 35.5163 25.8503 35.5163C26.2561 35.5108 26.5952 35.3623 26.8565 35.0763C27.1178 34.7903 27.2012 34.5263 27.1734 34.1083C27.1511 33.8168 27.0344 33.5198 26.3951 32.0898C25.9837 31.1658 25.4722 30.0054 25.261 29.5049C24.9219 28.7129 24.8385 28.5644 24.5661 28.2674C24.0435 27.7174 23.4487 27.4369 21.9588 27.0299C21.6086 26.9364 21.2973 26.8374 21.2695 26.8099C21.2472 26.7879 21.2083 25.9299 21.1972 24.9014C21.1805 23.8784 21.1416 22.9874 21.1194 22.9159C21.0916 22.8499 21.036 22.7949 20.9915 22.7949C20.8692 22.7949 20.1243 22.4814 20.0131 22.3824C19.9575 22.3329 19.9019 22.2394 19.8852 22.1789C19.8574 22.0744 19.8685 22.0689 20.0742 22.1019C20.1965 22.1239 20.6301 22.2724 21.0304 22.4319C21.4362 22.5969 22.1033 22.8499 22.5147 22.9874C23.4153 23.3009 23.7322 23.3229 25.5779 23.2459C26.9955 23.1909 27.0789 23.1634 27.329 22.6519C27.4513 22.3989 27.4736 22.3054 27.4458 22.0634C27.3957 21.6894 27.1789 21.3814 26.8231 21.2054C26.5563 21.0679 26.5118 21.0624 25.1554 21.0349L23.7656 21.0074L22.7593 20.6389C22.209 20.4354 21.5419 20.1879 21.2806 20.0779C20.2132 19.6379 19.5517 19.5279 18.929 19.6819Z" fill="black"/>
<path d="M31.1423 20.1879C31.0756 20.2319 30.9644 20.3749 30.9033 20.4959C30.781 20.7324 30.1194 22.3274 29.6135 23.6089L29.3244 24.3404L26.8839 24.3294L24.4434 24.3129L24.3156 24.4669C24.1266 24.6814 24.1377 24.9399 24.3434 25.1764L24.5101 25.3579L23.7096 25.3359C22.9647 25.3139 22.9035 25.3194 22.7479 25.4294C22.6589 25.4899 22.5422 25.6439 22.4921 25.7704C22.4032 25.9904 22.4032 26.0069 22.5144 26.2104C22.5755 26.3314 22.6256 26.5349 22.6256 26.6669C22.6256 26.9254 22.6867 26.9749 23.0203 26.9749C23.0981 26.9749 23.276 27.0354 23.4205 27.1014L23.6763 27.2334L23.6929 26.8264L23.7096 26.4194L27.1675 26.4084L30.6309 26.3974V31.0008V35.5988L30.8032 35.7418C31.0422 35.9398 31.3925 35.9398 31.5982 35.7418L31.7427 35.5933V30.9623C31.7427 26.4029 31.7427 26.3314 31.8539 26.2324C31.9873 26.1114 31.9984 25.8749 31.8817 25.6549C31.726 25.3579 31.6204 25.3249 30.8199 25.3249C29.9193 25.3249 29.8692 25.3139 30.0082 25.1104C30.0694 25.0334 30.2306 24.7089 30.3751 24.3899C30.5197 24.0709 30.7365 23.6034 30.8532 23.3449C31.348 22.2779 32.0207 20.6829 32.0207 20.5839C32.0207 20.5234 31.9373 20.3914 31.8317 20.2869C31.6204 20.0779 31.3591 20.0394 31.1423 20.1879Z" fill="black"/>
<path d="M36.3515 23.3174C36.1013 23.4549 36.068 23.6199 36.0902 24.8024L36.1069 25.8858L36.2903 26.0453C36.4905 26.2213 36.6239 26.2433 36.8463 26.1278C37.2076 25.9408 37.2187 25.9133 37.2354 24.7144L37.2577 23.6199L37.0631 23.4274C36.8463 23.2129 36.6128 23.1799 36.3515 23.3174Z" fill="black"/>
<path d="M14.7984 23.3449C14.5037 23.4659 14.5093 23.2899 14.5093 29.8349V35.8903L14.6483 36.0223C14.8595 36.2313 15.2097 36.1928 15.5767 35.9233C15.5822 35.9178 15.6045 34.7243 15.6211 33.2723L15.6489 30.6324L18.1228 30.6544C19.4848 30.6599 20.6078 30.6819 20.6244 30.6984C20.6411 30.7149 20.6578 31.6059 20.6578 32.6839C20.6745 36.2313 20.6634 35.9233 20.819 36.0773C21.0191 36.2808 21.3583 36.2698 21.5751 36.0553L21.7363 35.8958L21.7474 33.1788C21.753 31.6884 21.7585 30.3739 21.7585 30.2584C21.753 30.1374 21.7085 29.9834 21.6418 29.9009C21.4305 29.6149 21.3249 29.6094 18.3229 29.5984L15.5489 29.5874L15.5822 26.6394C15.6156 23.3669 15.6322 23.5209 15.2542 23.3669C15.043 23.2789 14.9763 23.2789 14.7984 23.3449Z" fill="black"/>
<path d="M43.1561 23.4219L43.0005 23.5539L43.006 24.6924C43.0116 25.9024 43.0394 26.0344 43.2896 26.1444C43.5064 26.2434 43.6843 26.2159 43.8733 26.0454C44.0345 25.9024 44.0567 25.8474 44.0901 25.4569C44.1123 25.2149 44.1346 24.7034 44.1346 24.3184L44.1401 23.6089L43.9789 23.4494C43.7621 23.2349 43.3896 23.2239 43.1561 23.4219Z" fill="black"/>
<path d="M34.7616 24.6868C34.1278 24.9178 33.7998 25.2698 33.5663 25.9683L33.4385 26.3423L33.444 30.4673C33.444 35.0378 33.4329 34.8838 33.8109 35.5548C34.0778 36.0278 34.3002 36.2698 34.7004 36.5228C35.3898 36.9628 35.2174 36.9463 39.6815 36.9683C42.1498 36.9848 43.8342 36.9683 44.1456 36.9353C45.502 36.7868 46.4415 35.8518 46.5916 34.5098C46.6361 34.1578 46.6472 32.7443 46.625 30.1648C46.5916 25.9683 46.5972 26.0288 46.2469 25.4788C45.9523 25.0223 45.2685 24.6098 44.8071 24.6098H44.6403V25.2973C44.6403 25.7538 44.6125 26.0508 44.5681 26.1663C44.3679 26.6338 43.6675 26.9638 43.245 26.7878C43.017 26.6943 42.6112 26.2928 42.5334 26.0838C42.5056 26.0068 42.4611 25.6273 42.4389 25.2478L42.4 24.5548H40.104H37.8025V25.2588C37.8025 25.9408 37.7969 25.9738 37.6413 26.2158C37.5523 26.3533 37.3855 26.5348 37.2688 26.6228C37.0798 26.7658 37.0186 26.7823 36.6128 26.7823C36.1959 26.7823 36.1458 26.7713 35.9457 26.6173C35.5955 26.3533 35.5232 26.1333 35.5232 25.2808V24.5548L35.3175 24.5603C35.2008 24.5603 34.9506 24.6153 34.7616 24.6868ZM44.6959 28.0638L45.5576 28.1023L45.5743 31.4023C45.5854 33.8773 45.5687 34.7408 45.5187 34.8673C45.3908 35.1918 45.0795 35.5933 44.8738 35.7033C44.3457 35.9948 44.3624 35.9948 40.1707 35.9948C37.7191 35.9948 36.1403 35.9728 35.9123 35.9343C35.7122 35.9068 35.4454 35.8188 35.3175 35.7418C35.0562 35.5933 34.5948 35.0378 34.4892 34.7353C34.4336 34.5813 34.4169 33.7948 34.4113 31.2813V28.0253L35.2897 28.0088C36.8741 27.9813 43.8176 28.0198 44.6959 28.0638Z" fill="black"/>
<path d="M35.8289 28.8999C35.562 29.0759 35.4675 29.2299 35.4675 29.5214C35.4675 30.0218 35.7733 30.3353 36.3014 30.3738C36.5738 30.3958 36.635 30.3793 36.7851 30.2528C37.2687 29.8458 37.2409 29.1199 36.7295 28.8834C36.4626 28.7569 36.0401 28.7624 35.8289 28.8999Z" fill="black"/>
<path d="M41.1491 28.8449C40.9045 28.8999 40.5932 29.2024 40.5265 29.4499C40.4209 29.8459 40.6933 30.3189 41.0991 30.4289C41.3715 30.5059 41.7106 30.4124 41.9163 30.2144C42.1276 30.0054 42.2276 29.5764 42.1165 29.3234C42.0275 29.1144 41.7273 28.8449 41.5828 28.8449C41.5272 28.8449 41.4493 28.8339 41.4049 28.8229C41.366 28.8119 41.2492 28.8229 41.1491 28.8449Z" fill="black"/>
<path d="M38.3862 28.9493C37.8859 29.2463 37.847 29.8348 38.3084 30.2418C38.503 30.4178 38.5586 30.4398 38.8365 30.4398C39.1145 30.4398 39.1701 30.4178 39.3258 30.2583C39.4258 30.1648 39.5537 29.9613 39.6093 29.8128C39.7038 29.5708 39.7038 29.5268 39.6315 29.3233C39.487 28.8998 38.8032 28.6963 38.3862 28.9493Z" fill="black"/>
<path d="M43.4728 28.9604C43.1837 29.1254 43.0281 29.3784 43.0281 29.6918C43.0281 29.9173 43.0559 29.9778 43.2393 30.1758C43.4339 30.3793 43.4895 30.4068 43.7563 30.4233C43.9787 30.4398 44.1066 30.4178 44.2455 30.3408C44.6458 30.1263 44.807 29.4389 44.5235 29.1419C44.2289 28.8284 43.823 28.7569 43.4728 28.9604Z" fill="black"/>
<path d="M35.9401 31.2923C35.4008 31.4848 35.2396 32.1503 35.6288 32.5683C36.0735 33.0523 36.6405 33.0138 37.013 32.4748C37.2354 32.1448 37.1186 31.5068 36.7962 31.3418C36.5571 31.2208 36.1902 31.1988 35.9401 31.2923Z" fill="black"/>
<path d="M38.4305 31.2923C38.1636 31.4078 38.0247 31.6663 38.0247 32.0568C38.0247 32.3648 38.0358 32.3923 38.2637 32.6123C38.6862 33.0303 39.1476 32.9808 39.4979 32.4858C39.7091 32.1833 39.7313 31.7983 39.5479 31.5563C39.3144 31.2373 38.8196 31.1218 38.4305 31.2923Z" fill="black"/>
<path d="M41.0937 31.2483C40.8991 31.2868 40.5934 31.6223 40.5489 31.8423C40.4877 32.1723 40.5711 32.4253 40.8324 32.6783C41.0325 32.8818 41.0992 32.9148 41.3049 32.9148C41.8108 32.9148 42.1944 32.5353 42.1944 32.0293C42.1944 31.4243 41.7664 31.1218 41.0937 31.2483Z" fill="black"/>
<path d="M43.4617 31.3528C43.2727 31.4518 43.0281 31.8533 43.0281 32.0678C43.0281 32.3648 43.2504 32.7058 43.534 32.8488C43.7675 32.9643 43.8175 32.9698 44.0343 32.9148C44.4568 32.8048 44.6958 32.4968 44.6958 32.0623C44.6958 31.7708 44.5902 31.5398 44.3845 31.3803C44.2066 31.2428 43.6952 31.2263 43.4617 31.3528Z" fill="black"/>
<path d="M35.8565 33.6408C35.5952 33.8113 35.3951 34.2183 35.4396 34.4713C35.5174 34.8783 35.901 35.2248 36.2734 35.2248C36.6459 35.2248 37.0406 34.8948 37.1129 34.5263C37.2408 33.8498 36.4124 33.2668 35.8565 33.6408Z" fill="black"/>
<path d="M38.4251 33.6298C38.1916 33.7728 37.947 34.2733 37.9971 34.4988C38.2083 35.4558 39.4369 35.4503 39.6982 34.4933C39.7538 34.2953 39.7482 34.2348 39.6593 34.0753C39.398 33.6023 38.8087 33.3878 38.4251 33.6298Z" fill="black"/>
<path d="M41.0379 33.5748C40.8322 33.6573 40.582 34.1083 40.582 34.3998C40.582 34.8178 40.9656 35.2248 41.3548 35.2248C41.844 35.2248 42.3443 34.6143 42.2276 34.1633C42.1164 33.7178 41.4771 33.4043 41.0379 33.5748Z" fill="black"/>
<path d="M43.3615 33.7948C42.9779 34.2073 42.9724 34.6968 43.3393 35.0433C43.6506 35.3348 44.0453 35.3513 44.3955 35.0873C45.0682 34.5813 44.6902 33.5748 43.834 33.5748C43.595 33.5748 43.545 33.5968 43.3615 33.7948Z" fill="black"/>
<path d="M22.7257 32.5518C22.6701 32.6783 22.6534 33.0798 22.659 34.1468L22.6645 35.5713L22.8424 35.7308C23.087 35.9453 23.3928 35.9453 23.6374 35.7253L23.8209 35.5658L23.8042 34.8838C23.7931 34.5153 23.7375 33.8773 23.6763 33.4758C23.6207 33.0743 23.5707 32.7333 23.5707 32.7278C23.5707 32.6783 23.2594 32.5133 23.0426 32.4528L22.798 32.3758L22.7257 32.5518Z" fill="black"/>
<path d="M26.5894 40.3288L26.4115 40.3453L26.3948 41.4178L26.3782 42.4958L26.1892 42.6608C26.0224 42.8093 25.9723 42.8258 25.75 42.7983C25.5832 42.7818 25.4553 42.7268 25.3553 42.6278L25.2107 42.4848L25.1941 41.4123L25.1774 40.3398H24.8661H24.5603L24.577 41.4508C24.5992 42.5563 24.5992 42.5673 24.7549 42.8313C24.9717 43.1943 25.2608 43.3703 25.6999 43.4033C26.1058 43.4363 26.406 43.3208 26.6506 43.0293C26.973 42.6498 26.9841 42.5948 27.0064 41.4343L27.0286 40.3563L26.8952 40.3343C26.8285 40.3233 26.6895 40.3178 26.5894 40.3288Z" fill="black"/>
<path d="M30.5366 40.3233C30.4087 40.3453 30.4087 40.3618 30.4087 41.1263C30.4143 42.1878 30.4754 42.6003 30.67 42.9138C30.8812 43.2493 31.1647 43.3923 31.6317 43.3923C32.0765 43.3923 32.4156 43.2163 32.6657 42.8643L32.827 42.6333L32.8436 41.5058C32.8548 40.8843 32.8381 40.3563 32.8158 40.3343C32.788 40.3068 32.6491 40.3013 32.5045 40.3178L32.2432 40.3563V41.3133C32.2432 42.3858 32.1988 42.5838 31.9152 42.7268C31.6595 42.8588 31.4371 42.8368 31.2315 42.6553L31.048 42.4958L31.0313 41.4343C31.0202 40.6863 30.9924 40.3563 30.9479 40.3288C30.8757 40.2848 30.7478 40.2848 30.5366 40.3233Z" fill="black"/>
<path d="M22.6423 40.4278C22.4922 40.8238 21.9363 42.2098 21.764 42.6113C21.5305 43.1723 21.5305 43.3098 21.764 43.3758C22.0141 43.4418 22.0809 43.3978 22.2643 43.0513L22.4311 42.7433L22.9648 42.7268L23.4929 42.7103L23.6708 43.0678C23.8431 43.4143 23.8487 43.4198 24.0711 43.4198C24.2267 43.4198 24.3101 43.3923 24.3323 43.3318C24.3657 43.2493 24.2156 42.7818 23.9488 42.1273C23.8709 41.9458 23.7042 41.5113 23.5763 41.1593C23.4429 40.8073 23.3206 40.4938 23.2983 40.4608C23.2817 40.4278 23.1316 40.3838 22.9703 40.3618C22.7202 40.3288 22.6757 40.3398 22.6423 40.4278ZM23.1705 41.7258C23.2594 41.9568 23.3206 42.1658 23.3039 42.1823C23.2872 42.1988 23.126 42.2098 22.9481 42.2098C22.7091 42.2098 22.6257 42.1933 22.6368 42.1383C22.8036 41.5718 22.9314 41.2253 22.9648 41.2638C22.987 41.2858 23.0815 41.4948 23.1705 41.7258Z" fill="black"/>
<path d="M28.4631 40.3893C28.0629 40.5103 27.6459 40.8733 27.4903 41.2308C27.3902 41.4728 27.3791 42.0833 27.468 42.4023C27.5125 42.5508 27.6404 42.7268 27.8739 42.9578C28.3742 43.4583 28.6911 43.5188 29.4582 43.2823C29.9752 43.1173 29.953 43.1613 29.9752 42.3638C29.9864 41.9568 29.9752 41.8193 29.9196 41.7973C29.8752 41.7808 29.5972 41.7698 29.297 41.7698C28.6911 41.7698 28.641 41.7973 28.73 42.1273C28.7744 42.2813 28.7967 42.2923 29.0524 42.2923C29.3193 42.2923 29.3248 42.2978 29.3415 42.4738C29.3582 42.6333 29.3415 42.6608 29.1525 42.7378C28.9079 42.8423 28.5854 42.8148 28.3742 42.6773C27.8961 42.3693 27.9294 41.3518 28.4242 41.0548C28.6466 40.9173 29.0635 40.9118 29.2859 41.0383C29.4416 41.1263 29.4527 41.1263 29.6195 41.0053C29.7195 40.9393 29.7973 40.8403 29.7973 40.7853C29.7973 40.4828 28.969 40.2408 28.4631 40.3893Z" fill="black"/>
<path d="M33.944 40.3948C33.7216 40.4608 33.427 40.7578 33.3492 40.9833C33.2713 41.2143 33.3547 41.4783 33.566 41.6708C33.6494 41.7478 33.9329 41.9128 34.1997 42.0393C34.7223 42.2813 34.8224 42.4078 34.6889 42.6498C34.6334 42.7543 34.5889 42.7653 34.2831 42.7433C34.0941 42.7323 33.8551 42.6883 33.755 42.6443C33.5771 42.5728 33.5604 42.5728 33.4326 42.7268C33.3547 42.8093 33.2991 42.9193 33.3103 42.9633C33.3381 43.1118 33.8495 43.3318 34.2275 43.3538C34.4999 43.3703 34.6222 43.3538 34.8335 43.2548C35.1504 43.1008 35.4116 42.7268 35.4116 42.4298C35.4116 42.0338 35.1782 41.8248 34.3109 41.4453C33.9551 41.2913 33.9107 41.2033 34.0774 41.0218C34.222 40.8733 34.4388 40.8513 34.6 40.9723C34.7557 41.0878 34.9169 41.0713 35.1059 40.9228C35.2449 40.8128 35.2615 40.7688 35.2115 40.6863C35.067 40.4388 34.3387 40.2683 33.944 40.3948Z" fill="black"/>
<path d="M35.5452 40.4168C35.5285 40.4608 35.523 40.5873 35.5341 40.7028L35.5508 40.9173L35.9566 40.9338C36.3235 40.9503 36.3569 40.9613 36.3624 41.0713C36.368 41.1373 36.3735 41.6378 36.3791 42.1878C36.3847 42.9413 36.4013 43.2053 36.4625 43.2713C36.5514 43.3813 36.9628 43.4033 36.9739 43.2933C36.9795 43.2603 36.9795 42.8038 36.9684 42.2923C36.9628 41.7753 36.9739 41.2638 36.9962 41.1538L37.0351 40.9503L37.4632 40.9338L37.8857 40.9173L37.9023 40.6973C37.9301 40.3563 37.8801 40.3398 36.6515 40.3398C35.7843 40.3398 35.5675 40.3563 35.5452 40.4168Z" fill="black"/>
</svg>
