<svg width="60" height="60" viewBox="0 0 60 60" fill="none" xmlns="http://www.w3.org/2000/svg">
<path d="M20.0517 13.0514C19.8647 13.1029 19.6308 13.3694 19.5794 13.5705C19.5607 13.6547 19.5513 14.2253 19.5653 14.8332C19.5887 15.8574 19.5981 15.9509 19.6869 16.0679C19.8366 16.2736 20.005 16.3765 20.2248 16.3999C20.4679 16.428 20.6877 16.3017 20.8608 16.0445C20.9637 15.8901 20.9683 15.8527 20.9683 14.7584C20.9683 13.4817 20.9543 13.4115 20.6129 13.1777C20.3931 13.0234 20.2481 12.9906 20.0517 13.0514Z" fill="black"/>
<path d="M24.9436 13.0514C24.8782 13.0795 24.7659 13.1543 24.6958 13.2245C24.4386 13.4676 24.4292 13.5144 24.4292 14.6882C24.4292 15.6937 24.4386 15.7919 24.5274 15.9743C24.6911 16.3157 25.112 16.4981 25.3973 16.3531C25.5703 16.2596 25.8322 15.9696 25.8322 15.8621C25.8322 15.82 25.8369 15.2869 25.8462 14.6836L25.8556 13.5846L25.7387 13.4115C25.6077 13.2151 25.2991 13 25.1541 13.0047C25.1026 13.0047 25.0091 13.028 24.9436 13.0514Z" fill="black"/>
<path d="M29.8352 13.0467C29.6528 13.1029 29.4003 13.3554 29.3395 13.5378C29.2693 13.7529 29.3068 15.8013 29.3863 15.9509C29.4892 16.152 29.6809 16.3204 29.868 16.3718C30.0784 16.428 30.1953 16.3999 30.4058 16.2409C30.7004 16.0211 30.7051 16.0071 30.7238 14.7911C30.7425 13.7342 30.7378 13.6781 30.6443 13.477C30.5741 13.3414 30.4712 13.2245 30.3309 13.1356C30.1065 12.9906 30.055 12.9813 29.8352 13.0467Z" fill="black"/>
<path d="M34.6475 13.0889C34.4417 13.1824 34.2078 13.4256 34.1985 13.5518C34.1798 13.8699 34.2078 15.8387 34.2312 15.9182C34.278 16.0819 34.5399 16.3204 34.727 16.3672C34.9281 16.4233 35.1712 16.3438 35.363 16.1661C35.5968 15.951 35.6062 15.8855 35.6062 14.6929V13.5752L35.4705 13.3882C35.349 13.2245 35.0076 13 34.8766 13C34.8532 13 34.7503 13.0421 34.6475 13.0889Z" fill="black"/>
<path d="M39.3709 13.1917C39.0716 13.4536 39.0669 13.4863 39.0669 14.7163C39.0669 15.7826 39.0716 15.8387 39.1745 16.0164C39.2446 16.1474 39.3475 16.2362 39.5018 16.3157C39.7029 16.4139 39.745 16.4233 39.9134 16.3718C40.0163 16.3391 40.1799 16.2362 40.2781 16.1333L40.4559 15.9509L40.4886 14.8332C40.5213 13.6313 40.512 13.5425 40.2922 13.3133C39.9975 13 39.6421 12.9532 39.3709 13.1917Z" fill="black"/>
<path d="M17.6292 14.5199C17.1382 14.721 16.8389 15.039 16.6097 15.6096L16.5021 15.8761L16.4881 22.7882L16.4788 29.6956L16.6004 30.0604C16.8342 30.7572 17.2785 31.3325 17.7602 31.5663C18.3915 31.8656 18.0688 31.8516 24.7892 31.8375C30.1486 31.8235 30.8922 31.8142 30.9296 31.7534C30.981 31.6739 30.9904 31.3652 30.9483 31.2015L30.9203 31.0986L25.2054 31.1267C19.1912 31.1594 18.8639 31.1501 18.4617 30.9537C18.1203 30.79 17.8163 30.4813 17.6105 30.0838C17.5123 29.8827 17.4094 29.6535 17.386 29.5787C17.3626 29.4992 17.3439 26.9504 17.3439 23.9106V18.3781L25.0604 18.3688C29.3068 18.3688 33.787 18.3641 35.0217 18.3594C36.2563 18.3594 38.5338 18.3641 40.0865 18.3688L42.9065 18.3781L42.8925 23.9761L42.8784 29.5787L42.7054 29.8733C42.4155 30.3644 42.2471 30.5655 41.9571 30.7946C41.7046 30.9911 41.6859 31.0191 41.7046 31.1594C41.7186 31.2436 41.742 31.4073 41.756 31.5289C41.7748 31.6879 41.8075 31.7534 41.8589 31.7534C42.0086 31.7534 42.5651 31.412 42.8971 31.122C43.2993 30.7713 43.3087 30.7572 43.5425 30.2989L43.7202 29.9528V22.9379V15.9229L43.6127 15.6563C43.4537 15.2635 43.1216 14.8426 42.8364 14.6789C42.4342 14.4451 42.2003 14.3983 41.6391 14.4311L41.1481 14.4638V15.1933C41.1434 16.0398 41.0966 16.2035 40.7272 16.5963C40.3484 17.0032 39.8433 17.1201 39.3195 16.9237C38.9921 16.8021 38.7536 16.587 38.5712 16.2643L38.4356 16.0164L38.4497 15.2027L38.4637 14.389L38.0334 14.417C37.7949 14.4357 37.3039 14.4498 36.9391 14.4498H36.2703L36.2516 15.2074C36.2376 15.8528 36.2189 16.0024 36.1347 16.1848C35.8588 16.8021 35.1854 17.1388 34.5821 16.9564C34.0817 16.8115 33.7449 16.4794 33.5953 16.0024C33.5251 15.7733 33.5158 15.6283 33.5345 15.0577L33.5626 14.389L32.4916 14.4217C31.9023 14.4404 31.416 14.4638 31.4066 14.4731C31.3973 14.4825 31.3786 14.8192 31.3692 15.2308C31.3458 15.8715 31.3318 16.0024 31.2383 16.2082C30.8407 17.0827 29.723 17.2745 29.0496 16.587C28.9561 16.4888 28.8298 16.3111 28.769 16.1895C28.6708 15.9884 28.6614 15.9089 28.6614 15.198V14.4264H28.3949C28.2452 14.4311 27.7588 14.4357 27.3099 14.4404L26.4961 14.4498V15.198C26.5008 15.9463 26.5008 15.9463 26.3512 16.2456C26.2717 16.4093 26.1314 16.6104 26.0472 16.6852C25.8554 16.8536 25.4252 17.0219 25.1914 17.0219C24.705 17.0219 24.1999 16.6992 23.938 16.2175L23.7977 15.9697L23.8117 15.2074C23.8211 14.6088 23.8117 14.4498 23.765 14.4498C23.6153 14.4451 22.8063 14.4451 22.231 14.4451L21.5997 14.4498L21.6137 15.1746C21.6184 15.5768 21.6044 15.9837 21.5763 16.0819C21.5015 16.3672 21.1928 16.7179 20.8842 16.8676C20.3651 17.1201 19.6776 17.0032 19.3128 16.5963C18.9714 16.2222 18.9387 16.1053 18.934 15.2448C18.934 14.7865 18.9153 14.4591 18.8872 14.4404C18.8639 14.4217 18.63 14.403 18.3728 14.403C17.9846 14.403 17.8584 14.4264 17.6292 14.5199Z" fill="black"/>
<path d="M20.697 18.9908C20.6222 19.0188 20.5942 19.0703 20.5942 19.1732C20.5942 19.2573 20.6175 19.3088 20.6503 19.2994C20.7204 19.2854 20.7532 19.4257 20.7111 19.5847C20.6877 19.6782 20.6737 19.6923 20.6409 19.6408C20.6175 19.6034 20.5848 19.5894 20.5661 19.6081C20.5474 19.6221 20.5568 19.6642 20.5801 19.697C20.6082 19.7297 20.6456 19.8419 20.6596 19.9448C20.7064 20.2207 20.7438 20.2628 20.9169 20.2254C21.0197 20.202 21.0712 20.1599 21.0899 20.0758C21.1367 19.9074 21.0759 19.1311 21.0151 19.0563C20.9449 18.9721 20.8186 18.944 20.697 18.9908Z" fill="black"/>
<path d="M19.6823 19.0282L19.4485 19.0562L19.4344 19.6408C19.4251 20.1506 19.4344 20.2301 19.5046 20.2815C19.6589 20.3984 19.7057 20.3563 19.7057 20.1085V19.8747H19.9068C20.0471 19.8747 20.1359 19.8466 20.1874 19.7905C20.337 19.6268 20.2622 19.5473 19.9676 19.5473C19.8132 19.5473 19.7057 19.4771 19.7057 19.3742C19.7057 19.3322 19.7899 19.3135 20.005 19.3135C20.323 19.3135 20.3791 19.276 20.3277 19.0843C20.2996 18.9767 20.1874 18.9674 19.6823 19.0282Z" fill="black"/>
<path d="M22.2216 19.2947L22.2076 19.6034L21.9831 19.3181C21.782 19.0562 21.7446 19.0282 21.6089 19.0422L21.4593 19.0562L21.4453 19.4537C21.4406 19.6735 21.4499 19.9354 21.4733 20.0383C21.5014 20.1973 21.5294 20.2301 21.637 20.2394C21.7633 20.2534 21.7633 20.2534 21.7633 19.9588V19.6642L21.9176 19.8513C22.1701 20.1646 22.2871 20.2534 22.4133 20.2394L22.5349 20.2254V19.6174V19.0095L22.3853 18.9954L22.2356 18.9814L22.2216 19.2947Z" fill="black"/>
<path d="M23.2507 19.0656C23.1244 19.2153 22.769 20.174 22.8157 20.2488C22.8765 20.347 23.073 20.3002 23.1197 20.1786C23.1571 20.0758 23.1945 20.0617 23.3769 20.0617C23.5359 20.0617 23.5967 20.0804 23.6201 20.1412C23.6622 20.2535 23.723 20.2862 23.8259 20.2628C23.8773 20.2488 23.9147 20.1973 23.9147 20.1459C23.9147 20.0243 23.6482 19.2293 23.5593 19.089C23.4798 18.9674 23.3489 18.9534 23.2507 19.0656ZM23.4705 19.6969C23.5032 19.8185 23.4938 19.8279 23.3582 19.8279H23.2133L23.2928 19.6642C23.3769 19.4865 23.4237 19.4959 23.4705 19.6969Z" fill="black"/>
<path d="M24.3264 19.0188C24.2515 19.0375 24.2422 19.1077 24.2422 19.6174C24.2422 20.0991 24.2562 20.1973 24.317 20.2207C24.3591 20.2347 24.5696 20.2488 24.7847 20.2488H25.1775V20.1085C25.1775 19.9729 25.1728 19.9729 24.8876 19.9588L24.5929 19.9448L24.5789 19.5707C24.5649 18.9861 24.5508 18.958 24.3264 19.0188Z" fill="black"/>
<path d="M26.0097 19.0375C26.0003 19.075 26.0003 19.3556 26.0144 19.6642L26.0424 20.2254L26.3885 20.2394C26.8047 20.2581 26.9216 20.1927 27.0573 19.8887C27.1976 19.566 27.0947 19.248 26.8047 19.0983C26.6083 18.9954 26.0424 18.9534 26.0097 19.0375ZM26.6878 19.4163C26.7299 19.4491 26.7813 19.5426 26.7954 19.6221C26.8328 19.8092 26.6925 19.9682 26.4867 19.9682H26.3464V19.6642C26.3464 19.3602 26.3464 19.3602 26.4774 19.3602C26.5522 19.3602 26.6457 19.3883 26.6878 19.4163Z" fill="black"/>
<path d="M27.5857 19.2339C27.4548 19.5332 27.2817 20.0851 27.2817 20.2067C27.2817 20.2534 27.3098 20.2955 27.3472 20.2955C27.4782 20.2955 27.5623 20.2394 27.5623 20.1459C27.5623 20.0664 27.5904 20.057 27.7868 20.0711C27.9645 20.0804 28.016 20.1038 28.0534 20.188C28.1002 20.3002 28.1937 20.3236 28.3106 20.2488C28.3714 20.2114 28.3574 20.1318 28.1984 19.6689C27.9411 18.9066 27.7821 18.7943 27.5857 19.2339ZM27.8897 19.7437C27.8897 19.7671 27.8476 19.7811 27.7962 19.7811C27.698 19.7811 27.6839 19.7437 27.7307 19.6221C27.7588 19.5519 27.7681 19.5519 27.8242 19.6268C27.857 19.6735 27.8897 19.725 27.8897 19.7437Z" fill="black"/>
<path d="M28.3108 19.0469C28.3108 19.0796 28.395 19.248 28.4932 19.421C28.6194 19.6315 28.6896 19.8185 28.7083 19.9916C28.741 20.2488 28.7457 20.2535 28.886 20.2394C29.0263 20.2254 29.031 20.2161 29.0497 19.9682C29.0591 19.8045 29.0918 19.6782 29.1479 19.6174C29.2929 19.4584 29.4472 19.1358 29.4192 19.0609C29.4005 19.0142 29.335 18.9861 29.2508 18.9861C29.1432 18.9861 29.1105 19.0095 29.0824 19.1124C29.0076 19.4117 28.872 19.4351 28.7223 19.1732C28.6335 19.0142 28.5914 18.9861 28.4651 18.9861C28.3716 18.9861 28.3108 19.0095 28.3108 19.0469Z" fill="black"/>
<path d="M30.3826 19.3602C30.1114 19.4725 30.2797 20.1553 30.5837 20.1553C30.7287 20.1553 30.9579 19.9495 30.9906 19.7905C31.0327 19.58 30.9812 19.4678 30.8129 19.3883C30.6398 19.3041 30.537 19.2994 30.3826 19.3602Z" fill="black"/>
<path d="M18.7611 20.679C18.6582 20.7819 18.6535 21.0111 18.7471 21.0906C18.7985 21.1327 19.1165 21.1467 19.963 21.142L21.1088 21.1327V22.0586V22.9846H19.9256C18.6348 22.9846 18.5834 22.994 18.5834 23.2418C18.5834 23.4897 18.6348 23.499 19.9116 23.499H21.0854L21.0994 24.397L21.1088 25.2996H20.0238C18.6816 25.2996 18.4384 25.3557 18.5834 25.6269C18.6769 25.7953 18.7892 25.814 19.8882 25.814C20.4774 25.814 20.9919 25.828 21.034 25.842C21.0994 25.8654 21.1088 25.9964 21.1088 26.8288V27.7829L19.8928 27.7735C18.6302 27.7642 18.5366 27.7782 18.5366 27.9606C18.5366 28.0073 18.5834 28.0868 18.6442 28.143C18.7517 28.2412 18.7845 28.2458 19.9303 28.2458H21.1088V28.7088C21.1088 29.3262 21.1462 29.415 21.3894 29.415H21.5764L21.5858 29.0502C21.5951 28.8538 21.5951 28.5919 21.5905 28.4656L21.5858 28.2458H22.6334H23.6809V28.7837C23.6809 29.2654 23.6903 29.3215 23.7698 29.3682C23.9101 29.4384 24.1346 29.4244 24.1673 29.3402C24.1813 29.2981 24.1954 29.0362 24.1954 28.7556V28.2458H25.2476H26.2999V28.7322C26.2999 29.1157 26.3139 29.2373 26.3747 29.2934C26.4729 29.3916 26.7488 29.3916 26.7862 29.2934C26.8003 29.2513 26.8143 28.9988 26.8143 28.7322V28.2458H27.8852H28.9515L28.9796 28.6714C28.9936 28.9053 29.031 29.1251 29.0638 29.1625C29.0965 29.2046 29.1807 29.2279 29.2649 29.2186L29.4098 29.2046L29.4239 28.7322L29.4379 28.2552L30.0178 28.2225L30.6024 28.1897V27.9606V27.7314H30.0412H29.48V27.4508C29.48 27.2965 29.4753 26.8709 29.4753 26.5015V25.8374H30.13C30.4855 25.8374 30.7894 25.828 30.8035 25.814C30.8175 25.8 30.8362 25.6971 30.8409 25.5802L30.8596 25.3697L30.1581 25.3463L29.4566 25.3229L29.4426 24.4203L29.4332 23.5224L30.5182 23.5178C31.1168 23.5178 31.7014 23.499 31.8183 23.485L32.0288 23.4523V23.2418V23.0314L31.8183 22.9986C31.7014 22.9846 31.1168 22.9659 30.5182 22.9659L29.4332 22.9612L29.4426 22.0353L29.4566 21.114H30.275C30.724 21.114 31.3085 21.1093 31.5751 21.0999L32.0521 21.0906V20.9362C32.0521 20.8334 32.0147 20.7445 31.9539 20.6884C31.8557 20.6042 31.6827 20.5995 25.3458 20.5995C19.2147 20.5995 18.8359 20.6042 18.7611 20.679ZM23.6482 22.0353C23.6716 22.7227 23.6669 22.9425 23.6201 22.9706C23.55 23.0127 23.1197 23.0174 22.2452 22.9753L21.5764 22.9472V22.0399V21.1373H22.596H23.6201L23.6482 22.0353ZM26.2531 22.0773V23.0174L26.1502 22.9893C26.0894 22.9753 25.6264 22.9612 25.1213 22.9612H24.1954V22.0493V21.1373H25.2242H26.2531V22.0773ZM28.9188 22.0493V22.9612L27.8572 22.9519L26.7909 22.9379L26.7862 22.0353L26.7816 21.1373H27.8478H28.9188V22.0493ZM23.3395 23.5224H23.6809V24.4063V25.2855L23.5313 25.3183C23.4471 25.337 22.9701 25.3323 22.479 25.3183L21.5764 25.2855V24.3736V23.4616L22.2873 23.4897C22.6755 23.5084 23.1478 23.5224 23.3395 23.5224ZM28.886 23.5552C28.9375 23.5832 28.9281 25.2902 28.872 25.3229C28.8486 25.337 28.3763 25.337 27.8244 25.3183L26.8236 25.2855L26.8049 25.0891C26.7909 24.9815 26.7909 24.584 26.8049 24.2099L26.8283 23.5271L27.0434 23.5084C27.296 23.485 28.8299 23.5271 28.886 23.5552ZM26.2999 24.411V25.2996H25.2476H24.1954L24.1907 25.0751C24.186 24.8833 24.1907 23.5645 24.1954 23.5318C24.1954 23.5271 24.6677 23.5224 25.2476 23.5224H26.2999V24.411ZM28.8767 25.814C28.9609 25.814 28.9655 25.8654 28.9655 26.6885C28.9655 27.1749 28.9515 27.6145 28.9375 27.6706C28.9094 27.7735 28.8814 27.7782 28.4979 27.7782C28.2734 27.7782 27.8057 27.7642 27.455 27.7454L26.8143 27.7174V26.7867C26.8143 26.277 26.819 25.8561 26.8283 25.8514C26.8517 25.8327 28.5353 25.7859 28.6569 25.8C28.7317 25.8046 28.8299 25.814 28.8767 25.814ZM23.6903 26.3612C23.6996 26.6651 23.6996 27.1001 23.6856 27.3339L23.6576 27.7548L22.6474 27.7688L21.6372 27.7782L21.6092 27.3947C21.5905 27.1796 21.5764 26.74 21.5764 26.4079V25.814H22.624H23.6669L23.6903 26.3612ZM26.3092 26.768C26.3045 27.2825 26.2858 27.7127 26.2718 27.7267C26.2578 27.7408 25.7854 27.7548 25.2242 27.7548H24.2094L24.1767 27.3807C24.1392 26.899 24.1392 26.146 24.1767 25.959L24.2094 25.814L25.2663 25.8233L26.3232 25.8374L26.3092 26.768Z" fill="black"/>
<path d="M22.3338 21.5255C22.1608 21.7079 22.1982 21.7921 22.4414 21.7921C22.5583 21.7921 22.6519 21.8155 22.6519 21.8389C22.6519 21.8669 22.5677 21.9605 22.4648 22.054C22.3338 22.1756 22.2777 22.2598 22.2777 22.3533C22.2777 22.5591 22.4367 22.7087 22.6331 22.6853C22.6893 22.6807 22.8436 22.4702 22.8576 22.3814C22.8623 22.3533 22.9184 22.2551 22.9886 22.1662C23.199 21.8856 23.2037 21.7687 23.0026 21.5816C22.7875 21.3759 22.4975 21.3525 22.3338 21.5255Z" fill="black"/>
<path d="M24.9807 21.4039C24.8919 21.4179 24.8404 21.4647 24.8077 21.5676C24.7375 21.7687 24.817 21.8575 25.0415 21.8248L25.2099 21.8014L25.0368 22.068C24.9386 22.213 24.8451 22.3767 24.8264 22.4374C24.789 22.5684 24.8732 22.6806 25.0135 22.6806C25.1304 22.6806 25.4016 22.3018 25.6167 21.8388L25.7383 21.5816L25.6401 21.4974C25.584 21.4554 25.4858 21.4179 25.4156 21.4179C25.3502 21.4179 25.252 21.4086 25.2005 21.3992C25.1491 21.3899 25.0509 21.3946 24.9807 21.4039Z" fill="black"/>
<path d="M27.497 21.5209C27.3941 21.6658 27.4034 21.8248 27.5204 21.8903C27.6045 21.9324 27.6466 21.923 27.7542 21.8435L27.8898 21.7453L27.7822 21.8997C27.7261 21.9838 27.6279 22.1616 27.5671 22.2972C27.4736 22.4936 27.4642 22.5497 27.5157 22.6105C27.6186 22.7368 27.7635 22.6947 27.8805 22.5029C27.9413 22.4094 28.0722 22.2177 28.1704 22.0774C28.4978 21.6331 28.3949 21.418 27.8571 21.418C27.6092 21.418 27.5578 21.432 27.497 21.5209Z" fill="black"/>
<path d="M21.899 23.8451C21.7353 24.0088 21.726 24.1164 21.8709 24.1398C21.9598 24.1538 21.9738 24.1818 21.9832 24.411C22.0066 24.902 22.0299 24.9722 22.1843 24.9722C22.3059 24.9722 22.3293 24.9488 22.376 24.7711C22.4275 24.5794 22.4088 23.8545 22.348 23.7563C22.2872 23.6581 22.0393 23.7095 21.899 23.8451Z" fill="black"/>
<path d="M22.7362 23.803C22.6006 23.9059 22.5585 24.0649 22.6006 24.28C22.6287 24.411 22.6614 24.439 22.8391 24.4905L23.0496 24.5513L22.8298 24.5326C22.5772 24.5139 22.5632 24.5419 22.7035 24.7664C22.8859 25.0657 23.0309 25.0844 23.274 24.8506C23.4938 24.6355 23.4985 24.4998 23.2927 24.2941C23.1431 24.1444 23.1384 24.1397 23.2226 24.0368C23.3255 23.9106 23.3255 23.8778 23.2319 23.7843C23.1337 23.6814 22.8765 23.6908 22.7362 23.803Z" fill="black"/>
<path d="M27.2492 23.7797C27.1276 23.8311 26.9546 24.0509 26.9546 24.1538C26.9546 24.1678 27.0294 24.1772 27.1183 24.1772H27.282V24.5513C27.282 24.9161 27.2866 24.9301 27.4082 24.9769C27.6046 25.0517 27.6327 24.9769 27.6327 24.3596C27.6327 23.9153 27.614 23.789 27.5626 23.7563C27.469 23.6955 27.4269 23.7001 27.2492 23.7797Z" fill="black"/>
<path d="M27.9364 23.8311C27.7774 23.9667 27.7634 24.1117 27.9037 24.1959C27.9739 24.238 28.0066 24.2286 28.0767 24.1398C28.1282 24.079 28.189 24.0415 28.217 24.0603C28.3199 24.1257 28.2545 24.266 28.03 24.4531C27.9037 24.5607 27.7961 24.6869 27.7961 24.7337C27.7961 24.8927 27.9084 24.9769 28.1562 25.0003C28.362 25.019 28.4135 25.0049 28.5397 24.8974C28.7268 24.743 28.7221 24.6916 28.521 24.6916C28.4322 24.6916 28.3573 24.6729 28.3573 24.6542C28.3573 24.6355 28.4322 24.5466 28.521 24.4578C28.6473 24.3362 28.6847 24.2613 28.6847 24.1351C28.68 23.7469 28.2451 23.5739 27.9364 23.8311Z" fill="black"/>
<path d="M24.6255 23.7843C24.5694 23.8217 24.4899 23.9153 24.4524 23.9901C24.387 24.1164 24.387 24.1257 24.4899 24.1397C24.5834 24.1538 24.5974 24.1865 24.6255 24.5279C24.6676 24.9862 24.6816 25.019 24.8219 25.019C24.9669 25.019 24.9903 24.9301 24.9903 24.3315C24.9903 23.962 24.9762 23.8404 24.9154 23.7843C24.8266 23.6908 24.7564 23.6908 24.6255 23.7843Z" fill="black"/>
<path d="M25.2895 23.8685C25.1071 24.0509 25.0884 24.1865 25.224 24.3081L25.3223 24.3876L25.2147 24.411C25.0417 24.4531 25.051 24.6215 25.2381 24.8085C25.4626 25.033 25.5982 25.0564 25.8507 24.9067C26.0892 24.7664 26.1313 24.6542 26.0238 24.4437C25.9676 24.3362 25.9536 24.2473 25.977 24.1585C26.0892 23.7469 25.6122 23.5458 25.2895 23.8685ZM25.5514 24.1491C25.5514 24.1819 25.5187 24.238 25.4813 24.2707C25.4251 24.3175 25.4111 24.3128 25.4111 24.238C25.4111 24.1865 25.4251 24.1304 25.4438 24.1164C25.4953 24.0603 25.5514 24.079 25.5514 24.1491ZM25.6449 24.4812C25.7478 24.6028 25.6262 24.6823 25.5046 24.5747C25.4532 24.5279 25.4111 24.4718 25.4111 24.4484C25.4111 24.3829 25.5841 24.4063 25.6449 24.4812Z" fill="black"/>
<path d="M27.2117 26.0899C27.0574 26.1601 26.9077 26.3331 26.9077 26.4453C26.9077 26.5015 27.2257 26.4594 27.3193 26.3939C27.4268 26.3191 27.5157 26.3378 27.5157 26.4407C27.5157 26.4781 27.3988 26.6043 27.2538 26.7259C27.1135 26.8475 26.9732 27.0019 26.9498 27.0673C26.875 27.2637 26.9638 27.3105 27.4268 27.3105H27.843V27.1422V26.9691L27.6513 26.9972L27.4642 27.0206L27.6747 26.7961C27.8337 26.623 27.8898 26.5295 27.8898 26.422C27.8898 26.2162 27.8197 26.1133 27.6513 26.0525C27.4549 25.987 27.4315 25.987 27.2117 26.0899Z" fill="black"/>
<path d="M28.0581 26.118C27.8757 26.2863 27.9178 26.5295 28.1376 26.5716C28.2171 26.5856 28.2078 26.609 28.0815 26.782C27.9038 27.0252 27.9038 27.0907 28.0581 27.2123C28.3808 27.4648 28.9139 27.1702 28.7783 26.8195C28.7549 26.754 28.7128 26.7025 28.6848 26.7025C28.6567 26.7025 28.6661 26.6371 28.7082 26.5342C28.8578 26.1788 28.7502 26.001 28.3948 26.001C28.2358 26.001 28.1516 26.0291 28.0581 26.118Z" fill="black"/>
<path d="M21.9599 26.0338C21.8196 26.1039 21.6699 26.3004 21.6699 26.4219C21.6699 26.5015 21.885 26.4734 22.0113 26.3752C22.1142 26.291 22.1329 26.291 22.189 26.3565C22.2358 26.4173 22.2077 26.4687 21.9833 26.6932C21.7962 26.8803 21.7167 26.9972 21.7167 27.086C21.7167 27.2731 21.8102 27.3152 22.1937 27.3012L22.5351 27.2871L22.5491 27.1281L22.5632 26.9691L22.3761 26.9972C22.1516 27.0252 22.1563 26.9551 22.4042 26.768C22.5865 26.6324 22.652 26.6605 22.652 26.8896C22.652 27.0065 22.7596 27.2076 22.8578 27.2731C22.9934 27.3666 23.2132 27.3058 23.4003 27.1328C23.5967 26.9411 23.6341 26.8008 23.5172 26.7025C23.4704 26.6651 23.447 26.5622 23.447 26.3986C23.447 26.132 23.3816 26.0385 23.1524 25.9823C22.9747 25.9403 22.7081 26.1039 22.6707 26.2723C22.6286 26.4734 22.6146 26.5015 22.6099 26.3845C22.6053 26.2209 22.5257 26.1039 22.3714 26.0244C22.2031 25.9356 22.1516 25.9356 21.9599 26.0338ZM23.1197 26.3939C23.1197 26.4313 23.0869 26.4687 23.0495 26.4874C22.9794 26.5108 22.9513 26.4219 23.0121 26.3612C23.0636 26.305 23.1197 26.3237 23.1197 26.3939ZM23.1571 26.8008C23.1477 26.8709 23.1057 26.9177 23.0449 26.927C22.8999 26.9457 22.8671 26.8148 22.9841 26.6979C23.101 26.581 23.1805 26.6324 23.1571 26.8008Z" fill="black"/>
<path d="M24.5367 26.0946C24.3824 26.1881 24.2888 26.3191 24.2888 26.4407C24.2888 26.5389 24.4198 26.5342 24.6302 26.4266C24.7892 26.3471 24.8126 26.3425 24.836 26.4079C24.8594 26.4594 24.7752 26.5669 24.5741 26.7446C24.3309 26.9644 24.2888 27.0299 24.2888 27.1562V27.3105H24.7565H25.2241V27.1422C25.2241 26.9738 25.2241 26.9738 25.0371 26.9925C24.9342 27.0019 24.85 26.9972 24.85 26.9832C24.85 26.9691 24.9435 26.8616 25.0605 26.7493C25.1774 26.6371 25.2709 26.5155 25.2709 26.4827C25.2709 26.4266 25.3691 26.4687 25.5468 26.595C25.5562 26.5997 25.5094 26.6605 25.444 26.7213C25.2896 26.8662 25.2756 27.0814 25.4159 27.2217C25.5468 27.3526 25.8789 27.3245 26.0472 27.1655C26.1688 27.0533 26.2062 26.768 26.1127 26.6745C26.08 26.6418 26.0753 26.5576 26.108 26.4266C26.1454 26.2536 26.1361 26.2115 26.0613 26.1367C25.9397 26.0151 25.7713 25.9823 25.5796 26.0478C25.4019 26.1039 25.3411 26.1647 25.3037 26.305C25.2849 26.3845 25.2756 26.3752 25.2288 26.2536C25.1306 26.0011 24.8079 25.9262 24.5367 26.0946ZM25.8181 26.4313C25.8041 26.4687 25.79 26.4547 25.79 26.4032C25.7853 26.3518 25.7994 26.3237 25.8134 26.3425C25.8274 26.3565 25.8321 26.3986 25.8181 26.4313ZM25.7292 26.7119C25.7012 26.7961 25.5983 26.8101 25.5983 26.7306C25.5983 26.6885 25.631 26.6558 25.6731 26.6558C25.7152 26.6558 25.7386 26.6792 25.7292 26.7119Z" fill="black"/>
<path d="M30.5041 21.5629C30.3358 21.7453 30.3311 21.9137 30.4901 22.0353L30.6117 22.1335L30.4808 22.2363C30.3638 22.3299 30.3545 22.3533 30.4013 22.4608C30.434 22.5263 30.5275 22.6152 30.607 22.6619C31.0139 22.8724 31.5424 22.3112 31.1916 22.0399C31.084 21.9557 31.084 21.9511 31.1682 21.8482C31.3272 21.6471 31.1542 21.4179 30.8455 21.4179C30.6772 21.4179 30.6164 21.4413 30.5041 21.5629ZM30.8362 21.8154C30.8035 21.8529 30.752 21.8856 30.7239 21.8856C30.6959 21.8856 30.7146 21.8529 30.7614 21.8154C30.8783 21.7266 30.911 21.7266 30.8362 21.8154ZM30.8689 22.241C30.9063 22.3439 30.7988 22.4421 30.7427 22.3533C30.7193 22.3158 30.6959 22.2551 30.6959 22.2223C30.6959 22.1428 30.8362 22.1522 30.8689 22.241Z" fill="black"/>
<path d="M19.888 21.5208C19.7804 21.6097 19.7477 21.7313 19.8178 21.8014C19.8506 21.8388 19.8927 22.0306 19.9114 22.2364C19.9301 22.4421 19.9628 22.6292 19.9815 22.6479C20.0049 22.6713 20.0704 22.6806 20.1312 22.6713C20.2434 22.6573 20.2434 22.6526 20.2434 22.0727V21.4881L20.1031 21.4741C20.0283 21.4647 19.9301 21.4881 19.888 21.5208Z" fill="black"/>
<path d="M29.7885 21.5676C29.695 21.6985 29.695 21.7734 29.7838 21.8108C29.8353 21.8295 29.854 21.9137 29.854 22.1522C29.854 22.5731 29.8867 22.6806 30.013 22.6806C30.0691 22.6806 30.1393 22.6573 30.172 22.6245C30.2422 22.5544 30.2468 21.6845 30.1814 21.5536C30.1112 21.4273 29.8821 21.4366 29.7885 21.5676Z" fill="black"/>
<path d="M38.7769 22.8443C37.9445 23.0314 37.5236 23.2325 36.9343 23.7329L36.5789 24.0369L36.2375 23.7142C35.999 23.4897 35.7792 23.3307 35.5079 23.1998C35.1011 22.9987 34.4323 22.8256 34.0769 22.821C33.8898 22.821 33.8758 22.8303 33.8337 22.994C33.6139 23.8171 33.6186 24.0603 33.8524 24.4999C34.1003 24.9535 34.5165 25.4118 34.7784 25.5054L34.9748 25.5755L34.6474 25.5475C34.4697 25.5334 34.2826 25.5007 34.2406 25.482C34.1985 25.4586 34.1377 25.4446 34.1143 25.4492C34.0348 25.4726 33.684 25.0096 33.497 24.6308C33.3006 24.2286 33.1415 23.9901 33.0807 23.9901C32.9498 23.9901 32.5383 24.6355 31.8789 25.8608C31.79 26.0291 31.7993 26.1554 31.9022 26.1227C32.4962 25.9356 32.8235 25.8655 33.3146 25.8187C33.6373 25.786 34.0161 25.7439 34.1564 25.7205C34.8953 25.5989 35.1899 25.5755 35.4658 25.627C35.6903 25.669 35.7698 25.6644 35.8727 25.6082C36.013 25.5381 36.2141 25.2294 36.2141 25.0891C36.2141 25.019 36.2562 25.0096 36.5321 25.0283L36.8455 25.047L37.1027 25.3183C37.3692 25.6036 37.5984 25.7532 37.6265 25.669C37.6358 25.6457 37.7995 25.5989 37.9912 25.5708C38.7161 25.4679 39.1464 25.0751 39.3989 24.2941C39.5719 23.7516 39.5252 22.7929 39.3241 22.7461C39.3007 22.7415 39.0528 22.7836 38.7769 22.8443ZM38.5805 23.7329C38.6366 23.8171 38.6506 23.9153 38.6366 24.0883C38.6085 24.3783 38.4262 24.5747 38.038 24.7384C37.7761 24.8506 37.0559 24.9301 37.0559 24.8506C37.0559 24.7571 37.3412 24.3268 37.5329 24.1351C37.7153 23.948 38.2999 23.616 38.4449 23.616C38.4776 23.616 38.5384 23.6674 38.5805 23.7329ZM35.0683 23.7516C35.4705 23.934 36.0317 24.4859 36.1019 24.7618L36.1346 24.8927L35.8026 24.8647C35.2835 24.8226 34.9608 24.701 34.7082 24.4531C34.4604 24.2193 34.4323 24.093 34.5586 23.8218C34.6474 23.6347 34.7737 23.616 35.0683 23.7516Z" fill="black"/>
<path d="M14.9448 23.499C14.8326 23.644 14.7765 23.7983 14.7063 24.1491C14.6783 24.3034 14.6362 24.4391 14.6128 24.4531C14.5473 24.4998 14.3883 24.8412 14.3088 25.1125C14.0937 25.8608 13.9955 26.8335 14.0002 28.2225C14.0002 29.6255 14.0469 30.2287 14.2153 31.0846C14.3509 31.8048 14.7531 33.1891 14.8747 33.3714C14.9448 33.4837 14.9729 33.493 15.2021 33.4743C15.6042 33.4416 15.623 33.3948 15.478 32.8477C15.4125 32.5904 15.2862 32.1088 15.1974 31.7767C14.8981 30.6403 14.8232 29.9201 14.8232 28.2225C14.8232 26.8943 14.8373 26.6605 14.9261 26.1414C15.1974 24.5934 15.2629 24.2286 15.333 24.0182C15.4265 23.7048 15.4219 23.63 15.2862 23.499C15.1413 23.3541 15.0618 23.3541 14.9448 23.499Z" fill="black"/>
<path d="M20.267 23.6955C20.1641 23.7329 19.8928 23.9995 19.8928 24.0649C19.8928 24.1351 20.0004 24.1772 20.1781 24.1772H20.3137L20.15 24.3923C19.9583 24.6402 19.9489 24.7337 20.0939 24.8693C20.3044 25.0704 20.3932 24.9956 20.6083 24.4484C20.6785 24.2801 20.7346 24.0603 20.7346 23.9667C20.7346 23.8171 20.7159 23.789 20.5709 23.7282C20.3979 23.6581 20.3745 23.6581 20.267 23.6955Z" fill="black"/>
<path d="M19.397 23.7609C19.3409 23.789 19.2708 23.8638 19.2427 23.9246C19.2006 24.0181 19.21 24.0556 19.2848 24.1304C19.3596 24.2052 19.3783 24.2894 19.3783 24.5139C19.3783 24.9394 19.4111 25.019 19.5701 25.019C19.7431 25.019 19.7618 24.9488 19.7431 24.2707C19.7291 23.7329 19.7291 23.7329 19.6122 23.7235C19.5467 23.7188 19.4485 23.7375 19.397 23.7609Z" fill="black"/>
<path d="M29.8119 23.8311C29.723 23.9059 29.6669 23.9948 29.6669 24.065C29.6669 24.1585 29.6903 24.1772 29.8072 24.1772C29.9054 24.1772 29.9475 24.1538 29.9475 24.1024C29.9475 23.9948 30.1112 24.0416 30.1205 24.1538C30.1299 24.2193 30.0504 24.3128 29.8773 24.4484C29.6669 24.6121 29.6201 24.6776 29.6201 24.7898C29.6201 24.9675 29.7651 25.0283 30.1533 25.0096C30.4245 24.9956 30.4385 24.9909 30.4526 24.8647C30.4666 24.7431 30.4572 24.7384 30.2795 24.7384C30.0504 24.7384 30.0363 24.6869 30.2421 24.5466C30.4572 24.397 30.5087 24.3222 30.5087 24.1398C30.5087 24.0275 30.4713 23.9434 30.3731 23.8452C30.2 23.6721 30.0036 23.6674 29.8119 23.8311Z" fill="black"/>
<path d="M30.7193 23.803C30.6538 23.8779 30.6351 23.9901 30.6258 24.3736C30.6164 24.6402 30.6351 24.8787 30.6585 24.9114C30.6819 24.9441 30.7941 24.9816 30.9063 24.9956C31.36 25.0657 31.6733 24.6402 31.3834 24.3455C31.2805 24.2426 31.2758 24.2333 31.36 24.1818C31.4816 24.107 31.4629 24.0041 31.3085 23.8451C31.1355 23.6768 30.8549 23.6534 30.7193 23.803ZM31.0326 24.107C31.0326 24.1304 31.0092 24.1585 30.9812 24.1678C30.9531 24.1772 30.9297 24.1491 30.9297 24.107C30.9297 24.0649 30.9531 24.0369 30.9812 24.0462C31.0092 24.0556 31.0326 24.0836 31.0326 24.107ZM31.0934 24.5981C31.0934 24.7056 30.8643 24.6916 30.8456 24.584C30.8315 24.5139 30.8549 24.4999 30.9625 24.5139C31.042 24.5232 31.0934 24.556 31.0934 24.5981Z" fill="black"/>
<path d="M39.8292 24.1865C39.7778 24.2473 39.6843 24.4297 39.6282 24.5981C39.572 24.7664 39.4645 25.0143 39.3896 25.1546C39.2353 25.4492 39.226 25.496 39.3288 25.6456C39.413 25.7766 39.4691 25.7953 40.2127 25.9075C40.5214 25.959 40.8534 26.0291 40.9563 26.0712C41.0545 26.1133 41.1481 26.132 41.1621 26.118C41.2089 26.0759 40.2268 24.1865 40.1239 24.1211C40.0303 24.0556 39.9275 24.0836 39.8292 24.1865Z" fill="black"/>
<path d="M45.1093 24.86C44.9737 24.9535 44.9784 25.0751 45.1233 25.7859C45.3291 26.8008 45.4133 27.8858 45.3946 29.1578C45.3712 30.2708 45.2449 31.267 44.9784 32.3379C44.4031 34.6622 43.6174 36.3178 42.3314 37.9359C41.555 38.9086 40.2643 40.1199 39.3523 40.7185C38.1364 41.5229 36.2658 42.3693 35.2977 42.5564C35.0264 42.6078 34.7599 42.6733 34.7038 42.7014C34.6476 42.7294 34.7412 42.6078 34.9142 42.4348C35.0872 42.2571 35.2462 42.056 35.2743 41.9905C35.3304 41.8362 35.2509 41.6678 35.0779 41.5837C34.9142 41.5042 34.7786 41.5743 34.3296 41.9625C34.1426 42.1215 33.7825 42.4301 33.5252 42.6453C33.268 42.8604 33.0202 43.0849 32.9781 43.1363C32.8612 43.2766 32.8752 43.4309 33.0108 43.5572C33.1277 43.6648 34.7084 44.4037 34.989 44.4832C35.1761 44.5346 35.3304 44.4551 35.466 44.226C35.6484 43.9267 35.5643 43.7396 35.1995 43.6274C34.8347 43.5198 34.9329 43.4543 35.77 43.2439C36.5931 43.0334 36.9906 42.8884 37.8979 42.4535C38.7163 42.056 39.2682 41.7333 40.0492 41.1861C40.4701 40.8915 40.8161 40.5782 41.6158 39.7738C42.5418 38.8431 42.8411 38.4971 43.5099 37.5758C44.1225 36.734 44.5762 35.9343 44.969 34.9802C45.1935 34.4424 45.6611 33.1797 45.6611 33.1142C45.6611 33.0862 45.7219 32.8477 45.8014 32.5858C46.1241 31.4494 46.2925 29.9809 46.2551 28.62C46.199 26.6932 45.9371 25.2434 45.5863 24.8927C45.46 24.7664 45.259 24.7524 45.1093 24.86Z" fill="black"/>
<path d="M19.2008 26.0946C19.0605 26.1928 19.0044 26.2676 19.0044 26.3518C19.0044 26.4547 19.0231 26.4687 19.1634 26.4687C19.2476 26.4687 19.3458 26.436 19.3785 26.3985C19.4534 26.3097 19.5141 26.3097 19.5469 26.3939C19.5609 26.436 19.4767 26.5529 19.3271 26.6979C19.1073 26.913 19.0886 26.9457 19.1166 27.086C19.1587 27.2918 19.1728 27.3011 19.4954 27.3339C19.8275 27.3713 19.9725 27.3011 19.921 27.1328C19.893 27.0486 19.8509 27.0299 19.6685 27.0299L19.4487 27.0252L19.5656 26.9364C19.6311 26.8896 19.7386 26.8007 19.8135 26.7493L19.9397 26.6464V26.8194C19.9397 27.0626 20.1876 27.3105 20.4261 27.3105C20.7862 27.3105 20.9966 27.0346 20.9499 26.6277C20.9359 26.4921 20.9031 26.3237 20.8751 26.2583C20.8189 26.1133 20.5524 25.987 20.384 26.0291C20.2577 26.0618 20.0333 26.2957 20.0333 26.3985C20.0333 26.5342 19.9631 26.4968 19.9538 26.3611C19.9397 26.1694 19.7106 25.9543 19.5235 25.9543C19.4534 25.9543 19.3037 26.0151 19.2008 26.0946ZM20.5711 26.609C20.6132 26.7914 20.5617 26.9364 20.4542 26.9364C20.3185 26.9364 20.2577 26.6371 20.37 26.5248C20.4635 26.4313 20.5383 26.4593 20.5711 26.609Z" fill="black"/>
<path d="M37.7669 26.2489C37.795 26.3331 37.8184 27.0206 37.8277 27.8577L37.8371 29.3168L37.7295 29.4197C37.664 29.4805 37.6032 29.5039 37.5612 29.4805C37.3367 29.3402 36.9392 29.0035 36.7661 28.8024L36.5557 28.5592L36.3499 28.8071C36.1348 29.0689 35.6531 29.415 35.5081 29.415C35.4613 29.415 35.3912 29.3683 35.3538 29.3121C35.293 29.228 35.2883 29.0081 35.3117 27.7174C35.3351 26.5576 35.3304 26.2255 35.2836 26.2536C35.2556 26.2723 34.8861 26.3097 34.4699 26.3284C32.0521 26.4641 31.9258 26.4734 31.9819 26.5623C31.9959 26.5856 32.01 27.8483 32.01 29.3729C32.0147 32.3145 32.01 32.2724 32.2345 32.4735C32.3327 32.5624 32.4636 32.5671 36.5229 32.5764L40.7132 32.5858L40.8488 32.4595L40.9798 32.3379L40.9985 29.4852C41.0078 27.9138 41.0266 26.5997 41.0359 26.5623C41.0499 26.5061 40.9938 26.4921 40.7506 26.4828C39.661 26.4407 37.9727 26.2536 37.8184 26.1601C37.7202 26.0993 37.7202 26.0993 37.7669 26.2489Z" fill="black"/>
<path d="M25.1539 33.3668C24.9482 33.3995 24.6442 33.4697 24.4805 33.5258C24.1297 33.6474 23.4844 33.9654 23.2833 34.115C22.7642 34.4985 21.8101 34.9802 21.5576 34.9802C21.4547 34.9802 21.4266 35.7425 21.4453 38.3474L21.4594 40.6623L21.74 40.6717C23.0401 40.7231 25.5187 41.0552 26.8843 41.3638C27.0386 41.4013 27.5951 41.4854 28.1189 41.5556C29.3582 41.7193 29.4331 41.7099 31.1541 41.1207C31.8649 40.8775 33.2679 40.4051 34.264 40.0731C36.3685 39.3809 36.6538 39.2453 38.0615 38.3147C39.1371 37.6038 39.5954 37.2577 40.021 36.8556C40.4045 36.4814 40.5682 36.1868 40.6009 35.794C40.671 34.8914 39.7451 34.4798 38.5291 34.8727C38.4029 34.9147 37.7061 35.2468 36.9858 35.6116C35.5221 36.3552 34.9094 36.6077 34.1705 36.7854C33.6608 36.907 33.165 37.0613 32.5196 37.2998C32.2203 37.4074 32.08 37.4308 31.5376 37.4495C31.1915 37.4588 30.6116 37.4448 30.2515 37.4168C29.8914 37.3887 29.2507 37.3419 28.8251 37.3185C27.4034 37.2297 26.9404 37.1642 26.4026 36.9631C26.1688 36.8743 26.1501 36.7527 26.3465 36.6124C26.454 36.5375 26.6224 36.5282 28.0768 36.5142C28.9654 36.5048 30.1533 36.5188 30.7238 36.5422C31.9538 36.589 32.1362 36.5562 32.5243 36.2055C32.8283 35.9343 32.9733 35.677 33.0621 35.2561C33.2024 34.578 32.978 34.0963 32.3887 33.8251C32.038 33.6614 31.7153 33.6333 30.7893 33.6754C30.3403 33.6988 29.6014 33.7269 29.1525 33.7456L28.334 33.7783L27.6326 33.5866C26.5803 33.2966 25.9396 33.2405 25.1539 33.3668ZM31.589 34.4751C31.6779 34.5032 31.8228 34.578 31.9164 34.6388C32.5009 35.0223 32.1455 35.822 31.3879 35.822C31.0933 35.822 30.8828 35.7051 30.7098 35.4526C30.5695 35.2421 30.5601 34.8586 30.6958 34.6903C30.8828 34.4471 31.2523 34.3582 31.589 34.4751Z" fill="black"/>
<path d="M16.9932 34.1899C16.9277 34.2179 16.8248 34.2834 16.7687 34.3395C16.5161 34.5733 16.5255 34.4143 16.5255 38.3474C16.5255 42.3506 16.5115 42.1589 16.8061 42.3693C16.9417 42.4628 16.9838 42.4675 18.658 42.4628C20.5334 42.4628 20.5708 42.4535 20.7111 42.1869C20.7719 42.0653 20.7719 41.6818 20.7298 38.9226C20.7017 37.2063 20.6877 35.5274 20.7017 35.2C20.7298 34.5546 20.6971 34.3722 20.5334 34.2647C20.4024 34.1805 17.1802 34.1104 16.9932 34.1899ZM19.1865 35.5227C19.6448 35.9062 19.3034 36.921 18.8124 36.6311C18.63 36.5235 18.5177 36.271 18.5177 35.9576C18.5131 35.7565 18.5365 35.6677 18.6066 35.5882C18.7983 35.3777 18.9901 35.3543 19.1865 35.5227ZM19.2941 40.0263C19.397 40.1432 19.425 40.2181 19.425 40.3958C19.425 40.9102 18.9433 41.2189 18.5318 40.971C18.0922 40.7044 18.1062 40.2134 18.5552 39.9281C18.7796 39.7878 19.121 39.8346 19.2941 40.0263Z" fill="black"/>
<path d="M23.821 46.1574C23.0868 46.1714 22.4555 46.1995 22.4181 46.2229C22.259 46.3211 22.1375 46.4614 22.1375 46.5549C22.1375 46.6765 22.2918 46.8309 22.4882 46.9057C22.6519 46.9712 36.7099 47.0366 37.7247 46.9758C38.3701 46.9384 38.5431 46.8776 38.6881 46.6157C38.7583 46.4988 38.7536 46.4801 38.646 46.3632C38.5805 46.2977 38.4777 46.2182 38.4122 46.1948C38.2906 46.1434 26.3511 46.1153 23.821 46.1574Z" fill="black"/>
<path d="M19.8459 46.1902C19.715 46.2369 19.5186 46.4567 19.5186 46.5549C19.5186 46.7701 19.8787 46.9525 20.3136 46.9525C20.6129 46.9525 20.8561 46.873 21.0291 46.7186C21.1601 46.6017 21.1694 46.5736 21.132 46.4567C21.0572 46.2416 20.828 46.1574 20.337 46.1621C20.1078 46.1621 19.8833 46.1761 19.8459 46.1902Z" fill="black"/>
<path d="M40.021 46.1855C39.8667 46.2229 39.6656 46.4567 39.6843 46.583C39.6937 46.6438 39.7685 46.742 39.8574 46.7981C39.9977 46.8917 40.0725 46.9057 40.4887 46.9057C41.0125 46.9057 41.2416 46.8309 41.3445 46.6298C41.41 46.4895 41.3632 46.3819 41.1855 46.265C41.092 46.2042 40.947 46.1808 40.5916 46.1761C40.3297 46.1715 40.0725 46.1761 40.021 46.1855Z" fill="black"/>
</svg>
