<svg width="60" height="60" viewBox="0 0 60 60" fill="none" xmlns="http://www.w3.org/2000/svg">
<path d="M28.1108 13.113C27.061 13.1711 25.3193 13.2678 24.2404 13.3259C23.1615 13.3839 22.2714 13.442 22.2568 13.4565C22.2423 13.471 22.223 14.1048 22.2133 14.8644L22.1939 16.2529L21.7537 16.5432C18.7396 18.5364 16.3013 21.7585 14.9611 25.5177C14.5838 26.5675 14.2403 27.9802 14.1096 29.001C13.9452 30.2589 13.9693 32.1505 14.158 33.452C14.308 34.5018 14.787 36.1806 15.2417 37.2498C15.353 37.5159 15.5852 38.0045 15.7594 38.3384C16.1223 39.0495 16.9786 40.3461 17.0753 40.3461C17.1576 40.3461 17.8059 39.3301 17.8059 39.1995C17.8059 39.1511 17.6656 38.9044 17.4962 38.648C17.0899 38.0481 16.8141 37.5111 16.4754 36.6547C15.9142 35.2227 15.5756 33.7616 15.4788 32.3489C15.4159 31.3958 15.4546 29.7703 15.5562 29.0736C15.6481 28.4543 16.0594 26.79 16.3013 26.0595C16.7996 24.5452 18.2171 21.9569 19.1944 20.7861C19.7991 20.0604 21.7779 18.1494 22.1069 17.9704C22.2085 17.922 22.2085 17.9268 22.1794 18.1252C22.1165 18.5509 22.0343 18.6477 21.5069 18.9235C21.2409 19.0589 20.9651 19.2379 20.8925 19.3202C20.7474 19.4847 20.5635 20.0168 20.5635 20.2781C20.5635 20.6361 20.7958 21.3038 20.9699 21.4489C21.0377 21.5021 21.057 21.4828 21.1441 21.2892C21.2699 20.9893 21.3715 20.5829 21.4102 20.1959C21.4537 19.7701 21.5602 19.5572 21.9133 19.1605C22.2326 18.7977 22.3197 18.5896 22.3778 18.0381L22.4117 17.7478L22.9971 17.3705C23.3212 17.1673 23.7518 16.9012 23.9598 16.7851C24.3759 16.5432 24.3614 16.5722 24.4291 15.7739C24.4678 15.3191 24.4388 15.0966 24.3275 15.0772C24.2259 15.0579 23.7131 15.3191 22.9971 15.7449C22.6923 15.9336 22.4213 16.0739 22.4068 16.0545C22.3681 16.0158 22.3971 14.0177 22.4407 13.8242L22.4745 13.6646L23.6357 14.1677C25.0919 14.7966 25.6241 15.0289 25.9337 15.1885L26.1756 15.3095V16.0981C26.1756 17.0173 26.2046 16.9592 25.5854 17.2931C25.1403 17.5301 24.7678 17.8543 24.6468 18.101C24.5742 18.2607 24.5597 18.4251 24.5549 19.2718L24.55 20.2587L24.2791 20.4426C23.955 20.6651 23.6066 21.0425 23.4712 21.3231C23.0212 22.252 23.2051 23.5002 23.9308 24.4243C24.1727 24.7339 24.6323 25.0726 25.387 25.4983L25.9095 25.7886L25.9434 26.1031C26.016 26.7804 26.2966 27.5254 26.7078 28.1302L26.9158 28.4398L26.5336 28.8027C25.924 29.3929 25.5273 29.63 23.1519 30.8395C21.2796 31.7925 20.9457 31.9861 20.4861 32.3779C19.983 32.8037 19.6346 33.2439 19.3347 33.839C19.0009 34.4873 18.9283 34.7727 18.8702 35.6871C18.8315 36.3112 18.7251 41.9959 18.7251 43.4715V43.9359L19.5524 43.9698C20.0072 43.9891 22.252 43.9891 24.5404 43.9698L28.7011 43.9359L28.6769 43.7134C28.5027 42.3103 28.2076 40.3171 28.0382 39.364C27.9173 38.7109 27.7431 37.6465 27.6512 36.9885C27.5544 36.3354 27.3609 34.9905 27.2158 34.0083C26.8142 31.2604 26.6497 29.9202 26.6788 29.6687C26.7126 29.3542 26.8287 29.151 27.0174 29.0736C27.2497 28.9768 27.4432 29.0446 27.9995 29.4219C28.5753 29.809 29.4268 30.225 29.8525 30.3315C30.2782 30.4379 31.57 30.4814 32.0102 30.4089C32.7408 30.2782 33.6987 29.8525 34.3518 29.359C35.0098 28.8607 35.1888 28.8414 35.4017 29.2381C35.5517 29.5235 35.5468 29.9541 35.3968 30.9362C35.334 31.3474 35.2469 31.9667 35.2033 32.315C35.1598 32.6585 35.0921 33.2052 35.0485 33.5245C34.8647 34.9711 34.3325 38.348 33.989 40.201C33.8729 40.8396 33.7519 41.5459 33.7229 41.7733C33.6939 42.0007 33.6165 42.5522 33.5439 42.9973C33.4375 43.694 33.4278 43.8198 33.4858 43.8779C33.5294 43.9214 33.7326 43.9553 34.0519 43.9795L34.5502 44.0133L34.526 43.8972C34.4002 43.336 34.3615 42.1894 34.4486 41.6282C34.6034 40.6461 35.1936 39.4995 35.9629 38.6915C36.795 37.8158 37.7675 37.2788 38.9721 37.0273C39.3543 36.945 40.2832 36.945 40.738 37.0273C41.5459 37.1724 42.6006 37.5885 43.2054 37.9949L43.4231 38.1448L43.4521 37.8642C43.5247 37.2256 43.5489 36.0548 43.5005 35.4694C43.4134 34.4341 43.0651 33.6116 42.3781 32.8182C41.904 32.2715 41.7443 32.1747 38.9721 30.7669C37.0079 29.7703 36.6112 29.538 35.9919 29.0349C35.721 28.8172 35.4549 28.6043 35.4017 28.5608C35.3049 28.4833 35.3098 28.4737 35.6484 27.9705C36.0161 27.419 36.1903 26.9739 36.287 26.3546C36.379 25.7402 36.3548 25.7837 36.7999 25.5128C38.3432 24.5839 38.9721 23.7228 38.9721 22.5423C38.9721 21.9956 38.8947 21.715 38.6238 21.2215C38.4399 20.8828 38.0094 20.4136 37.8158 20.341L37.6901 20.2926L37.7239 19.8959C37.7433 19.6733 37.7626 19.2089 37.7626 18.8654C37.7626 18.0623 37.7481 18.0284 37.1095 17.6124L36.6257 17.2931L36.6596 16.2916C36.6741 15.7352 36.6934 15.2756 36.7031 15.2659C36.7225 15.2466 38.2319 14.608 39.843 13.9452C40.4284 13.7033 40.9267 13.4904 40.946 13.471C41.0138 13.413 39.9784 13.3452 37.1821 13.2291C36.5193 13.2001 35.1791 13.1324 34.2067 13.084C32.0054 12.963 30.5492 12.9727 28.1108 13.113ZM35.4791 18.5364C35.5468 18.7735 35.6291 19.0831 35.6629 19.2283C35.7355 19.5669 35.7984 19.6879 36.1371 20.1426C36.4128 20.52 36.4419 20.5684 36.6257 21.0764C36.7079 21.3038 36.7515 21.3618 36.8579 21.386C37.1966 21.4586 37.4288 21.6376 37.5885 21.9617C37.8255 22.431 37.6465 23.1761 37.1869 23.6453C36.916 23.926 36.0742 24.5984 35.5759 24.9274C35.3581 25.0726 35.1646 25.2274 35.1549 25.2709C35.1404 25.3145 35.0969 25.6289 35.0533 25.9773C34.9663 26.7078 34.9179 26.9013 34.7534 27.2351C34.5308 27.6802 33.4375 28.6285 32.7408 28.9865C32.3296 29.1945 31.8264 29.2961 31.1829 29.2961C30.5056 29.301 30.0315 29.1945 29.48 28.9284C29.0881 28.7349 28.4156 28.2318 27.9947 27.8109C27.4238 27.24 27.298 26.9352 27.1868 25.8612C27.1577 25.5515 27.1239 25.2758 27.1142 25.2419C27.1045 25.208 26.9739 25.1209 26.8191 25.0387C26.4852 24.8742 25.0967 23.7663 24.9032 23.5147C24.8258 23.418 24.7097 23.2148 24.642 23.0648C24.313 22.3439 24.6226 21.5263 25.2612 21.4247C25.4983 21.386 25.5564 21.3134 25.7112 20.8877C25.895 20.3749 25.9966 20.2007 26.2675 19.9298C26.5481 19.6588 26.6256 19.4798 26.8287 18.6574L26.9594 18.1155H31.1588H35.3533L35.4791 18.5364ZM25.866 19.0202C25.8224 19.2234 25.7789 19.4024 25.7644 19.4121C25.716 19.4605 25.6434 19.1605 25.6434 18.9138C25.6434 18.6912 25.6628 18.6429 25.7789 18.5509L25.9095 18.4445L25.924 18.5461C25.9337 18.6042 25.9047 18.817 25.866 19.0202ZM36.6257 18.5509C36.8434 18.6622 36.8628 18.7493 36.7708 19.2331C36.6789 19.7169 36.6499 19.6637 36.408 18.5606C36.379 18.43 36.3886 18.43 36.6257 18.5509Z" fill="black"/>
<path d="M29.6687 18.6961C29.3349 18.7445 29.272 18.8074 29.272 19.0638C29.272 19.2524 29.2865 19.2766 29.4074 19.3105C29.6348 19.3782 32.8182 19.3299 32.8666 19.2621C32.9198 19.1847 32.8763 18.7977 32.8086 18.7299C32.7408 18.6622 30.0751 18.6332 29.6687 18.6961Z" fill="black"/>
<path d="M27.8739 20.1959C27.3707 20.2684 27.0514 20.4329 26.645 20.82C26.3886 21.0619 26.2628 21.2651 26.1758 21.5989C25.9097 22.581 26.0935 23.3502 26.7515 24.0179C27.245 24.521 27.69 24.6952 28.4738 24.6952C29.2189 24.6952 29.6591 24.5162 30.1284 24.0276C30.4284 23.7179 30.709 23.1906 30.7525 22.8519L30.7864 22.6149H31.1637C31.5411 22.6149 31.5459 22.6149 31.575 22.7455C31.7636 23.6066 32.1797 24.163 32.8957 24.5162C33.2102 24.6662 33.2247 24.671 33.8924 24.671H34.5697L34.9325 24.4775C35.4067 24.2308 35.7889 23.8437 36.0259 23.3841L36.2146 23.0261V22.3488C36.2146 21.6763 36.2146 21.6714 36.0501 21.3618C35.8276 20.9264 35.426 20.52 35.0341 20.3265C34.7148 20.1717 34.7148 20.1717 33.9649 20.1765H33.215L32.8474 20.3555C32.3877 20.5732 32.0346 20.8877 31.8556 21.236L31.7153 21.5021H31.396C31.2218 21.5021 30.9751 21.4876 30.8541 21.4731C30.6461 21.4441 30.617 21.4247 30.4864 21.1925C30.3074 20.8732 29.9155 20.5103 29.5962 20.3652C29.1656 20.1668 28.5125 20.1039 27.8739 20.1959ZM29.214 21.4973C29.3059 21.5602 29.4414 21.7005 29.5188 21.8069C29.6349 21.9714 29.6591 22.0488 29.6591 22.2907C29.6591 22.6729 29.5817 22.9148 29.3882 23.1422C29.1656 23.3986 28.8995 23.5002 28.4448 23.5002C27.7384 23.5002 27.3224 23.1712 27.2159 22.5375C27.1675 22.2423 27.2643 21.9617 27.4965 21.7102C27.7868 21.3908 27.8981 21.3521 28.5222 21.3667C28.9963 21.3812 29.0737 21.3957 29.214 21.4973ZM34.4004 21.4054C34.6036 21.4634 34.8842 21.7343 35.0293 22.0246C35.1164 22.1891 35.1309 22.2714 35.1019 22.4552C35.0583 22.76 34.9277 23.0019 34.71 23.1954C34.4536 23.418 34.231 23.5002 33.8827 23.5002C33.128 23.4954 32.5619 22.789 32.7603 22.0924C32.8328 21.8263 33.1522 21.4828 33.3941 21.4102C33.6069 21.3521 34.1875 21.3473 34.4004 21.4054Z" fill="black"/>
<path d="M28.7735 25.9095C28.5122 26.2095 28.3042 26.6014 28.3042 26.8046C28.3042 26.8965 28.3477 26.9932 28.4203 27.061L28.5364 27.1722L28.8606 26.7707C29.2476 26.2869 29.3782 26.045 29.3589 25.8418C29.3444 25.7015 29.325 25.687 29.1702 25.6725C29.0105 25.658 28.9718 25.6821 28.7735 25.9095Z" fill="black"/>
<path d="M32.9199 25.7354C32.8279 25.9676 33.3795 27.0078 33.6794 27.1674C33.8439 27.2545 33.931 27.1384 33.8971 26.882C33.8197 26.2966 33.0457 25.3967 32.9199 25.7354Z" fill="black"/>
<path d="M29.5282 26.8239C29.3831 26.882 29.3202 27.0223 29.3202 27.269C29.3202 27.6899 29.2331 27.6706 31.1344 27.6706H32.8132L32.9052 27.5545C33.0648 27.3561 32.9874 26.8868 32.7794 26.8046C32.6536 26.761 29.6492 26.7755 29.5282 26.8239Z" fill="black"/>
<path d="M37.7675 15.0144C37.6031 15.324 37.5789 15.9384 37.7192 16.2916C37.7579 16.398 37.9998 16.5625 38.6094 16.906C40.68 18.072 42.6733 19.9249 44.0715 21.9859C45.1697 23.6018 45.9147 25.2516 46.3985 27.1384C46.7517 28.5172 46.8823 29.5816 46.8823 31.0523C46.8823 33.6213 46.3647 35.6968 45.0052 38.5512C44.7052 39.185 44.6907 39.2285 44.7585 39.3495C44.8407 39.4946 45.4648 40.0317 45.5567 40.0317C45.6825 40.0317 46.713 38.2077 47.042 37.3949C47.787 35.571 48.1934 33.602 48.2612 31.4926C48.3337 29.3494 48.0628 27.5399 47.3468 25.3967C46.505 22.8713 45.0342 20.52 43.0603 18.5461C41.9282 17.4092 40.6413 16.3787 39.6834 15.832C39.1319 15.5175 37.9127 14.8741 37.8691 14.8741C37.8498 14.8741 37.8062 14.9369 37.7675 15.0144Z" fill="black"/>
<path d="M30.9166 30.9894C30.8247 31.0475 30.3216 31.5119 29.8039 32.0199C29.2862 32.5279 28.6766 33.1085 28.4541 33.3068C27.9267 33.781 27.53 34.2454 27.53 34.3954C27.53 34.4776 27.6316 34.6131 27.8542 34.826L28.1783 35.1404L28.3622 34.9856C28.4589 34.8985 28.8024 34.5841 29.1217 34.2841L29.7023 33.7374L29.8813 34.0616L30.0651 34.3857L29.6442 36.5193C29.412 37.6949 29.1556 39.0786 29.0685 39.6011L28.9137 40.5445L29.1556 40.8348C29.2862 40.9944 29.7507 41.604 30.1813 42.1942C30.6118 42.7796 30.994 43.2876 31.0327 43.3167C31.086 43.3602 31.144 43.3215 31.3133 43.1183C31.4343 42.978 31.6568 42.678 31.8165 42.4507C32.3438 41.6863 32.7793 41.1202 33.055 40.8493L33.326 40.5832L33.2582 40.2929C33.2244 40.1381 33.026 39.0931 32.8228 37.9755C32.6244 36.8579 32.3922 35.6291 32.3148 35.242C32.2374 34.8598 32.1745 34.4921 32.1745 34.4341C32.1745 34.3422 32.4212 33.781 32.4938 33.6987C32.5035 33.6842 32.8276 33.9842 33.2098 34.3615C33.6259 34.7728 33.9452 35.0485 33.9984 35.0485C34.1339 35.0485 34.4774 34.7873 34.5693 34.6179C34.7386 34.2841 34.7677 34.3277 33.0405 32.615C31.6762 31.2555 31.2553 30.8878 31.1005 30.8878C31.0908 30.8878 31.0086 30.9362 30.9166 30.9894Z" fill="black"/>
<path d="M39.2866 38.1013C38.6093 38.2126 37.6804 38.6286 37.1386 39.0641C36.4806 39.5962 35.9097 40.4235 35.6581 41.217C35.5662 41.5024 35.5469 41.7008 35.5227 42.4555C35.5033 43.2586 35.513 43.3941 35.6049 43.7569C35.9146 44.9906 36.7999 46.0404 38.053 46.6694C38.6384 46.9645 38.9964 47.0516 39.7221 47.0806C41.2267 47.1387 42.0782 46.7903 43.1329 45.6824C44.2311 44.531 44.623 43.3457 44.3956 41.8749C44.2359 40.8299 43.8731 40.1091 43.1377 39.3737C42.383 38.6238 41.5508 38.2029 40.6268 38.1013C40.0898 38.0384 39.664 38.0432 39.2866 38.1013ZM39.5092 40.5106C39.5914 40.559 39.7559 40.7186 39.872 40.8541C40.4671 41.5701 40.3945 41.5169 41.7637 42.1507C42.0201 42.2716 42.2136 42.3926 42.2669 42.4748C42.3443 42.5958 42.3443 42.6055 42.233 42.7216C42.1701 42.7893 41.9669 42.9345 41.7782 43.0409C40.83 43.5876 40.5058 43.7956 39.8382 44.2843C39.4415 44.5794 39.0883 44.8213 39.0544 44.8213C38.919 44.8213 38.8996 44.531 38.8996 42.6248C38.8996 40.7235 38.9044 40.6703 39.0012 40.5445C39.1222 40.3945 39.2963 40.38 39.5092 40.5106Z" fill="black"/>
<path d="M24.9517 44.6471C24.584 44.7487 24.4243 44.9567 24.5646 45.1599C24.7968 45.4938 26.8143 46.1179 28.3044 46.3259C28.8172 46.3936 30.9459 46.3936 31.691 46.3259C33.0263 46.2001 34.1003 45.9872 34.4293 45.7889C34.6325 45.6631 34.6422 45.5373 34.4777 45.2131C34.3809 45.0293 34.3277 44.9712 34.2019 44.9471C33.9213 44.8938 32.8376 44.918 32.078 45.0003C31.1733 45.097 29.5236 45.1067 28.7398 45.0196C28.435 44.9858 27.8593 44.8938 27.4577 44.8213C26.1757 44.5745 25.4258 44.5213 24.9517 44.6471Z" fill="black"/>
</svg>
