<svg width="60" height="60" viewBox="0 0 60 60" fill="none" xmlns="http://www.w3.org/2000/svg">
<path d="M20.3328 14.0861C19.7026 14.2247 19.2048 14.5083 18.6944 15.025C18.184 15.5354 17.9508 15.9576 17.8059 16.6319C17.5538 17.8103 17.9508 18.9383 18.896 19.7701C19.5955 20.3876 20.1626 20.6019 21.089 20.6019C22.0846 20.6019 22.8093 20.3183 23.4269 19.6818C23.8617 19.2344 24.2839 18.4908 24.391 17.9678C24.7124 16.4176 23.7293 14.691 22.217 14.1743C21.7128 13.9978 20.8936 13.96 20.3328 14.0861Z" fill="black"/>
<path d="M39.0169 14.0545C37.2777 14.3066 36.0552 15.8379 36.2001 17.5771C36.2379 18.0371 36.4837 18.7303 36.7547 19.121C37.4541 20.1545 38.7901 20.7783 39.937 20.6082C40.8885 20.4695 41.5565 20.1104 42.1047 19.455C42.4702 19.0202 42.571 18.8374 42.7412 18.3459C42.8924 17.9174 42.905 17.0037 42.7664 16.487C42.445 15.2581 41.4052 14.3003 40.1575 14.0735C39.6219 13.9789 39.5148 13.9789 39.0169 14.0545Z" fill="black"/>
<path d="M37.4287 21.8559C37.2649 21.963 36.975 22.171 36.7797 22.3348C36.5843 22.4923 36.1243 22.8263 35.7525 23.0721C34.9963 23.5762 34.2149 24.1497 32.9798 25.0949C32.5198 25.4478 32.0157 25.8259 31.8581 25.933C31.2847 26.33 31.0074 26.6514 31.228 26.6514C31.3918 26.6514 32.0031 27.3887 32.1417 27.7541C32.3938 28.4221 32.2929 29.3926 31.896 30.1803C31.7888 30.3882 31.7195 30.5583 31.7384 30.5583C31.9212 30.5583 32.6962 30.0479 34.007 29.0775C34.53 28.6931 35.135 28.2646 35.3618 28.1322C35.5887 27.9999 35.9101 27.8046 36.0739 27.7037C36.2377 27.6029 36.3953 27.5336 36.4142 27.5588C36.4394 27.5777 36.4394 28.8254 36.4268 30.3252C36.3953 33.6713 36.4268 40.6409 36.4709 41.2269C36.5087 41.6113 36.5465 41.7058 36.8175 42.1154C37.3279 42.8653 37.5233 43.0607 38.0715 43.3442C39.357 44.0185 40.9261 43.9051 41.9785 43.0733C42.2935 42.8212 42.7725 42.2036 42.8544 41.9327C42.8859 41.8319 42.93 39.8784 42.9552 37.5972L42.993 33.4445L42.7725 33.665C42.5078 33.936 41.9974 34.1881 41.5374 34.2889C41.2538 34.3456 41.1025 34.3393 40.6866 34.2574C39.6595 34.0431 38.8655 33.4697 38.4496 32.619C38.2479 32.2031 38.2416 32.1715 38.1849 31.0436C38.1597 30.4134 38.1534 29.2287 38.1723 28.4158C38.1975 27.3445 38.1849 26.7522 38.1282 26.2733C37.9581 24.9815 38.0652 24.0677 38.4559 23.2989C38.5945 23.028 38.6008 22.9965 38.5126 22.9965C38.374 22.9965 37.9455 23.4628 37.6934 23.885C37.5485 24.1244 37.2964 24.5088 37.12 24.7357C36.9498 24.9626 36.8112 25.1768 36.8112 25.2209C36.8112 25.265 36.7797 25.2461 36.7419 25.1894C36.6284 24.9878 36.6662 24.1875 36.8112 23.7464C36.975 23.2485 37.372 22.5049 37.6934 22.0764C38.0337 21.6227 37.9266 21.5408 37.4287 21.8559Z" fill="black"/>
<path d="M20.0366 21.9504C19.2237 22.2844 18.7133 22.6877 18.2784 23.3557C17.831 24.0425 17.5727 24.9815 17.5979 25.7944C17.6042 25.9708 17.6042 27.8424 17.5979 29.9597C17.5916 32.0707 17.6168 34.7111 17.6546 35.8202C17.6924 36.9292 17.7428 38.7315 17.768 39.828L17.8121 41.8192L18.0516 42.1784C18.4234 42.733 19.0283 43.3064 19.4884 43.5333C20.0177 43.7916 20.5029 43.8736 21.3095 43.8421C21.9397 43.8168 22.009 43.7979 22.5131 43.5522C23.1244 43.2623 23.3386 43.0544 23.7986 42.3108L24.1137 41.8066L24.1326 35.316L24.1452 28.8191L23.9373 28.7435C23.8238 28.6994 23.2441 28.3528 22.658 27.9684C22.072 27.584 21.4292 27.187 21.2339 27.0799C20.2508 26.5568 19.5073 25.1957 19.6333 24.1623C19.7215 23.4754 20.0177 22.8389 20.5218 22.2466C20.6793 22.0638 20.7928 21.8874 20.7676 21.8559C20.7109 21.7614 20.4084 21.7929 20.0366 21.9504Z" fill="black"/>
<path d="M22.2862 22.5743C21.7443 22.757 21.3221 23.1036 21.07 23.5888C20.9314 23.8598 20.8999 23.9921 20.8999 24.4143C20.8999 24.8365 20.9251 24.9752 21.0763 25.2713C21.3095 25.7566 21.6372 26.0338 22.6328 26.601C23.0991 26.8656 23.6978 27.2437 23.9562 27.4328C26.0546 28.9578 28.2286 30.3504 28.7832 30.5268C29.0919 30.6214 29.2054 30.6277 29.4826 30.571C30.1695 30.426 30.6547 30.0479 30.932 29.443C31.0706 29.1468 31.0895 29.0334 31.0643 28.6427C31.0076 27.8109 30.6043 27.3004 29.4196 26.5758C29.073 26.3615 28.6571 26.0842 28.4996 25.9582C27.6678 25.3028 25.5757 23.759 24.9833 23.3683C23.994 22.7129 23.6159 22.5491 23.0235 22.5176C22.7211 22.505 22.4438 22.5239 22.2862 22.5743Z" fill="black"/>
<path d="M40.5734 22.8074C40.4096 22.8389 40.2332 22.9461 40.0189 23.1603C39.3887 23.7716 39.3068 24.156 39.395 26.1473C39.4266 26.8908 39.4581 28.3969 39.4581 29.4871C39.4581 31.7241 39.4959 32.1085 39.7668 32.4803C40.2016 33.0853 41.1406 33.2869 41.8716 32.9277C42.2181 32.7576 42.4324 32.5434 42.7412 32.0392L42.8924 31.7872L42.9113 28.3906C42.9302 24.7546 42.905 24.3513 42.6341 23.7527C42.2875 22.9965 41.9346 22.7444 41.2225 22.7507C40.9956 22.757 40.7058 22.7822 40.5734 22.8074Z" fill="black"/>
<path d="M23.389 44.0437C22.2295 44.0689 20.4399 44.0752 19.419 44.0626C17.6546 44.0311 17.5474 44.0374 17.3647 44.1571C17.1126 44.321 16.9425 44.6739 17.0181 44.8755C17.0496 44.9511 17.1756 45.1213 17.308 45.241L17.5348 45.4616L18.3351 45.449C18.7762 45.4427 20.2571 45.4427 21.6245 45.449C30.1632 45.4868 37.536 45.4553 38.6766 45.3733C39.6596 45.304 40.0125 45.304 40.6616 45.367C41.0901 45.4111 41.8337 45.449 42.3126 45.4553L43.1822 45.4616L43.4343 45.1969C43.7368 44.8692 43.762 44.5919 43.5225 44.3021C43.2452 43.9807 43.0751 43.9555 41.2224 44.0122C40.3024 44.0437 39.2248 44.0626 38.8278 44.0563C36.3261 44.0185 25.1408 44.0122 23.389 44.0437Z" fill="black"/>
</svg>
